<?xml version="1.0" encoding="UTF-8" standalone="no"?>
<svg
   version="1.1"
   id="svg1"
   width="555.88959mm"
   height="300mm"
   viewBox="0 0 555.88959 300"
   xml:space="preserve"
   xmlns:xlink="http://www.w3.org/1999/xlink"
   xmlns="http://www.w3.org/2000/svg"
   xmlns:svg="http://www.w3.org/2000/svg"><defs
     id="defs1"><symbol
       id="AigaSymbols.svg:Elevator_Inv"><title
         id="title75">Elevator</title><rect
         x="0.5"
         y="0.5"
         width="71"
         height="71"
         ry="6"
         style="stroke:#ffffff"
         id="rect75" /><g
         style="fill:none;stroke:#ffffff;stroke-width:5;stroke-linecap:round;stroke-linejoin:round"
         id="g76"><!-- Arrow up --><path
           d="M 26.5,23.5 V 6.5 M 20,14 26.5,6.5 33,14"
           id="path75" /><!-- Arrow down --><path
           d="m 45.5,6.5 v 17 M 39,16 45.5,23.5 52,16"
           id="path76" /></g><rect
         x="17"
         y="28"
         width="38"
         height="38"
         ry="5"
         style="fill:#ffffff;stroke:none"
         id="rect76" /><rect
         x="22"
         y="33"
         width="28"
         height="28"
         style="stroke:none"
         id="rect77" /><g
         id="person2"
         style="fill:#ffffff;stroke:none"><circle
           cx="27.5"
           cy="38.75"
           r="1.75"
           id="circle77" /><path
           d="m 24.5,41 a 1,1 0 0 0 -1,1 v 7 a 1,1 0 0 0 1,1 h 0.25 v 8.5 a 1.25,1.25 0 1 0 2.5,0 V 50 h 0.5 v 8.5 a 1.25,1.25 0 1 0 2.5,0 V 50 h 0.25 a 1,1 0 0 0 1,-1 v -7 a 1,1 0 0 0 -1,-1 z"
           id="path77" /></g><use
         x="8.5"
         xlink:href="#person2"
         id="use77" /><use
         x="17"
         xlink:href="#person2"
         id="use78" /></symbol><symbol
       id="AigaSymbols.svg:StairsUp_Inv"><title
         id="title69">Stairs Up</title><rect
         x="0.5"
         y="0.5"
         width="71"
         height="71"
         ry="6"
         style="stroke:#ffffff"
         id="rect69" /><path
         d="m 9,56.5 h 12 v -10 h 10 v -10 h 10 v -10 h 10 v -10 h 12"
         style="fill:none;stroke:#ffffff;stroke-width:5"
         id="path70" /><path
         d="M 54,45 42,57 m 12,-3 v -9 h -9"
         style="fill:none;stroke:#ffffff;stroke-width:4;stroke-linecap:round;stroke-linejoin:round"
         id="path71" /></symbol><symbol
       id="AigaSymbols.svg:StairsDown_Inv"><title
         id="title65">Stairs Down</title><rect
         x="0.5"
         y="0.5"
         width="71"
         height="71"
         ry="6"
         style="stroke:#ffffff"
         id="rect65" /><path
         d="m 9,56.5 h 12 v -10 h 10 v -10 h 10 v -10 h 10 v -10 h 12"
         style="fill:none;stroke:#ffffff;stroke-width:5"
         id="path66" /><path
         d="M 42,57 54,45 m -12,3 v 9 h 9"
         style="fill:none;stroke:#ffffff;stroke-width:4;stroke-linecap:round;stroke-linejoin:round"
         id="path67" /></symbol><symbol
       id="AigaSymbols.svg:Toilets_Inv"><title
         id="title83">Toilets</title><rect
         x="0.5"
         y="0.5"
         width="71"
         height="71"
         ry="6"
         style="stroke:#ffffff"
         id="rect83" /><g
         style="fill:#ffffff;stroke:none"
         id="g85"><!-- Divider --><rect
           x="33.5"
           y="12"
           width="5"
           height="48"
           id="rect84" /><!-- Woman --><circle
           cx="19.5"
           cy="15"
           r="4"
           id="circle84" /><path
           d="m 19,44.5 v 14 a 2,2 0 0 1 -4,0 v -14 H 10 L 15.5,26 h -1 l -3,10.5 A 1.821,1.821 0 0 1 8,35.5 l 3.5,-12 A 5.7,4.6 0 0 1 17,20 h 5 a 5.7,4.6 0 0 1 5.5,3.5 l 3.5,12 a 1.821,1.821 0 0 1 -3.5,1 L 24.5,26 h -1 L 29,44.5 h -5 v 14 a 2,2 0 0 1 -4,0 v -14 z"
           id="path84" /><!-- Man --><circle
           cx="52.5"
           cy="15"
           r="4"
           id="circle85" /><path
           d="m 43,25 v 13 a 1.75,1.75 0 0 0 3.5,0 V 26.5 h 1 v 31.75 a 2.25,2.25 0 0 0 4.5,0 V 39.5 h 1 v 18.75 a 2.25,2.25 0 0 0 4.5,0 V 26.5 h 1 V 38 A 1.75,1.75 0 0 0 62,38 V 25 a 5,5 0 0 0 -5,-5 h -9 a 5,5 0 0 0 -5,5 z"
           id="path85" /></g></symbol><symbol
       id="AigaSymbols.svg:Restaurant_Inv"><title
         id="title182">Restaurant</title><rect
         x="0.5"
         y="0.5"
         width="71"
         height="71"
         ry="6"
         style="stroke:#ffffff"
         id="rect182" /><g
         style="fill:#ffffff;stroke:none"
         id="g184"><path
           d="m 30,30 v 33 a 3,3 0 0 1 -6,0 V 30 A 4,4 0 0 1 20,26 V 8 a 1,1 0 0 1 2,0 v 14 h 2 V 8 a 1,1 0 0 1 2,0 v 14 h 2 V 8 a 1,1 0 0 1 2,0 v 14 h 2 V 8 a 1,1 0 0 1 2,0 v 18 a 4,4 0 0 1 -4,4 z"
           id="path183" /><path
           d="m 50,63 a 3,3 0 0 1 -6,0 V 43 H 41 V 11.5 a 4.5,4.5 0 0 1 9,0 z"
           id="path184" /></g></symbol><symbol
       id="AigaSymbols.svg:Coffeeshop_Inv"><title
         id="title186">Coffeeshop</title><rect
         x="0.5"
         y="0.5"
         width="71"
         height="71"
         ry="6"
         style="stroke:#ffffff"
         id="rect186" /><g
         style="fill:#ffffff;fill-rule:evenodd;stroke:none"
         id="g188"><path
           d="m 20,45 a 5,5 0 0 0 5,5 h 22 a 5,5 0 0 0 5,-5 v -1 h 1 A 10,10 0 0 0 53,24 H 20 Z M 52,28 v 12 h 1 a 6,6 0 0 0 0,-12 z"
           id="path187" /><path
           d="m 8,52 a 6,6 0 0 0 6,6 h 44 a 6,6 0 0 0 6,-6 z"
           id="path188" /></g></symbol><symbol
       id="AigaSymbols.svg:Parking_Inv"><title
         id="title252">Parking</title><rect
         x="0.5"
         y="0.5"
         width="71"
         height="71"
         ry="6"
         style="stroke:#ffffff"
         id="rect252" /><path
         d="M 25,60 V 15 h 14 a 12.5,12.5 0 0 1 0,25 h -9"
         style="fill:none;stroke:#ffffff;stroke-width:10"
         id="path253" /></symbol><symbol
       id="AigaSymbols.svg:WheelChair_Inv"><title
         id="title293">NPS Wheelchair Accessible</title><rect
         x="0.5"
         y="0.5"
         width="71"
         height="71"
         ry="6"
         style="stroke:#ffffff"
         id="rect293" /><g
         style="fill:#ffffff;stroke:none"
         id="g295"><circle
           cx="30"
           cy="11.75"
           r="5"
           id="circle293" /><path
           d="m 63.5,55.5 a 2.25,2.25 0 0 0 0,-4.5 h -4 L 51,36.5 C 50.48,35.61 49.5,35 48.5,35 H 36 L 35.8,31 H 45 a 2.25,2.25 0 0 0 0,-4.5 h -9.5 l -0.2,-4.3 c -0.18,-2.6 -2.2,-4.75 -4.9,-4.6 -2.7,0.15 -5,2.5 -4.8,5.1 L 26.45,38 c 0.2,2.6 2.45,4.5 5.05,4.5 H 48 L 54.5,54 c 0.25,0.5 1.3,1.5 2.5,1.5 z"
           id="path294" /><path
           d="M 23.2,29 A 19,19 0 1 0 50.9,52.5 L 48.2,48 A 15,15 0 1 1 23.5,33.8 Z"
           id="path295" /></g></symbol><symbol
       id="AigaSymbols.svg:Smoking_Inv"><title
         id="title236">Smoking</title><rect
         x="0.5"
         y="0.5"
         width="71"
         height="71"
         ry="6"
         style="stroke:#ffffff"
         id="rect236" /><rect
         x="8"
         y="46"
         height="8"
         width="48"
         style="fill:#ffffff;stroke:none"
         id="rect237" /><rect
         x="57.75"
         y="46"
         width="2.5"
         height="8"
         style="fill:#ffffff;stroke:none"
         id="rect238" /><rect
         x="61.75"
         y="46"
         width="2.5"
         height="8"
         style="fill:#ffffff;stroke:none"
         id="rect239" /><path
         d="m 59,44 v -5 a 3.5,3.5 0 0 0 -3.5,-3.5 h -9 A 5,5 0 0 1 42,28 6.5,6.5 0 0 1 42,15"
         style="fill:none;stroke:#ffffff;stroke-width:2.5"
         id="path239" /><path
         d="M 63,44 V 38 A 9,9 0 0 0 54,29 H 49 A 6.5,6.5 0 0 0 44,18"
         style="fill:none;stroke:#ffffff;stroke-width:2.5"
         id="path240" /></symbol><symbol
       id="AigaSymbols.svg:Nursery_Inv"><title
         id="title86">Nursery</title><rect
         x="0.5"
         y="0.5"
         width="71"
         height="71"
         ry="6"
         style="stroke:#ffffff"
         id="rect86" /><g
         style="fill:#ffffff;stroke:none"
         id="g87"><circle
           cx="36"
           cy="15.75"
           r="7.5"
           id="circle87" /><path
           d="M 28,39.5 V 34 l -6,6 a 2.475,2.475 0 0 1 -3.5,-3.5 l 10,-10 c 1,-1 1.5,-1.5 3,-1.5 h 9 c 1.5,0 2,0.5 3,1.5 l 10,10 A 2.475,2.475 0 0 1 50,40 l -6,-6 v 5.5 z"
           id="path87" /><path
           id="leg2"
           d="M 34,48.5 29.5,53 34,57.5 A 2.475,2.475 0 0 1 30.5,61 L 23,53.5 a 4.2,4.2 0 0 1 0,-6 l 5,-5 z" /><use
           xlink:href="#leg2"
           transform="matrix(-1,0,0,1,72,0)"
           id="use87" /></g></symbol></defs><g
     id="g2"><g
       id="g110"><rect
         style="fill:none;stroke:none;stroke-width:1;stroke-linecap:square;stroke-dasharray:none"
         id="use158"
         width="555.88959"
         height="300"
         x="0"
         y="0" /><g
         id="use11"><path
           style="display:inline;fill:none;stroke:#000000;stroke-width:2;stroke-linecap:square;stroke-dasharray:none"
           d="M 25,235 V 80 h 75 v 155 z"
           id="path18" /><path
           style="fill:none;stroke:#000000;stroke-width:2;stroke-linecap:square;stroke-dasharray:none"
           d="m 130,175 h 95 v 20 h 40 v -20 h 80 v 10 h 35 v 10 h 35 v 50 H 275 v 35 H 130 Z"
           id="path29" /><path
           style="fill:none;stroke:#000000;stroke-width:2;stroke-linecap:square;stroke-dasharray:none"
           d="m 120,65 h 120 v 80 H 130 v -35 h -10 z"
           id="path32" /><path
           style="fill:none;stroke:#000000;stroke-width:2;stroke-linecap:square;stroke-dasharray:none"
           d="m 280,65 h 100 v 10 h 35 v 70 H 280 Z"
           id="path33" /><path
           style="fill:none;stroke:#000000;stroke-width:2;stroke-linecap:square;stroke-dasharray:none"
           d="m 445,65 h 70 v 40 h 10 v 115 h -80 z"
           id="path34" /></g><g
         id="g13"><g
           id="g31"><path
             style="opacity:1;fill:#ffffff;stroke:none;stroke-width:1;stroke-linecap:square;stroke-dasharray:none"
             d="M 10,50 H 540 V 290 H 415 V 240 H 130 v 50 H 10 Z"
             id="path31" /></g><g
           id="g12"><rect
             style="opacity:1;fill:#ccffcc;stroke:#c0c0c0;stroke-width:1;stroke-linecap:square;stroke-dasharray:none"
             id="rect1"
             width="75"
             height="64.999977"
             x="25"
             y="80" /><rect
             style="opacity:1;fill:#ccffcc;stroke:#c0c0c0;stroke-width:1;stroke-linecap:square;stroke-dasharray:none"
             id="rect2"
             width="75"
             height="90"
             x="25"
             y="144.99998" /><rect
             style="opacity:1;fill:#ccffcc;stroke:#c0c0c0;stroke-width:1;stroke-linecap:square;stroke-dasharray:none"
             id="rect3"
             width="35.000004"
             height="80"
             x="345"
             y="64.999977" /><rect
             style="opacity:1;fill:#ccffcc;stroke:#c0c0c0;stroke-width:1;stroke-linecap:square;stroke-dasharray:none"
             id="rect4"
             width="69.999992"
             height="39.999969"
             x="445"
             y="65.000008" /><rect
             style="opacity:1;fill:#ccffcc;stroke:#c0c0c0;stroke-width:1;stroke-linecap:square;stroke-dasharray:none"
             id="rect5"
             width="75"
             height="104.99997"
             x="130"
             y="175.00002" /><rect
             style="opacity:1;fill:#ccffcc;stroke:#c0c0c0;stroke-width:1;stroke-linecap:square;stroke-dasharray:none"
             id="rect6"
             width="35.000004"
             height="85"
             x="205"
             y="195" /><rect
             style="opacity:1;fill:#ccffcc;stroke:#c0c0c0;stroke-width:1;stroke-linecap:square;stroke-dasharray:none"
             id="rect7"
             width="35.000004"
             height="85"
             x="240"
             y="195" /><rect
             style="opacity:1;fill:#ccffcc;stroke:#c0c0c0;stroke-width:1;stroke-linecap:square;stroke-dasharray:none"
             id="rect8"
             width="35"
             height="60"
             x="345"
             y="185.00002" /><rect
             style="opacity:1;fill:#ccffcc;stroke:#c0c0c0;stroke-width:1;stroke-linecap:square;stroke-dasharray:none"
             id="rect9"
             width="35"
             height="50"
             x="380"
             y="195" /><rect
             style="opacity:1;fill:#ccffcc;stroke:#c0c0c0;stroke-width:1;stroke-linecap:square;stroke-dasharray:none"
             id="rect10"
             width="35.000004"
             height="80.000031"
             x="205"
             y="64.999977" /><rect
             style="opacity:1;fill:#ccffcc;stroke:#c0c0c0;stroke-width:1;stroke-linecap:square;stroke-dasharray:none"
             id="rect11"
             width="79.999992"
             height="50"
             x="445"
             y="104.99998" /><rect
             style="opacity:1;fill:#ccffcc;stroke:#c0c0c0;stroke-width:1;stroke-linecap:square;stroke-dasharray:none"
             id="rect12"
             width="35"
             height="70"
             x="380"
             y="75.000008" /><rect
             style="opacity:1;fill:#ccffcc;stroke:#c0c0c0;stroke-width:1;stroke-linecap:square;stroke-dasharray:none"
             id="rect88"
             width="80"
             height="65"
             x="445"
             y="154.99998" /><rect
             style="opacity:1;fill:#ccffcc;stroke:#c0c0c0;stroke-width:1;stroke-linecap:square;stroke-dasharray:none"
             id="rect89"
             width="35"
             height="45"
             x="310"
             y="99.999977" /><path
             style="opacity:1;fill:#ccffcc;stroke:#c0c0c0;stroke-width:1;stroke-linecap:square;stroke-dasharray:none"
             d="m 280,65.002678 h 65 v 35.000002 h -35 v 45 h -30 z"
             id="path89" /><rect
             style="opacity:1;fill:#ccffcc;stroke:#c0c0c0;stroke-width:1;stroke-linecap:square;stroke-dasharray:none"
             id="rect90"
             width="35"
             height="70"
             x="310"
             y="174.99998" /><path
             style="opacity:1;fill:#ccffcc;stroke:#c0c0c0;stroke-width:1;stroke-linecap:square;stroke-dasharray:none"
             d="m 265,175 h 45 v 70 h -35 v -50 h -10 z"
             id="path90" /><path
             style="opacity:1;fill:#ccffcc;stroke:#c0c0c0;stroke-width:1;stroke-linecap:square;stroke-dasharray:none"
             d="m 120,65 h 85 v 80 h -75 v -35 h -10 z"
             id="path91" /></g><g
           id="g7"
           style="display:inline"><path
             style="display:inline;fill:none;stroke:#000000;stroke-width:1;stroke-linecap:square;stroke-dasharray:none"
             d="m 120,140 v -30 h 10 v 30"
             id="path23" /><path
             style="fill:none;stroke:#000000;stroke-width:1;stroke-linecap:square;stroke-dasharray:none"
             d="m 185,165 h 39.99999 v 10 H 185"
             id="path24" /><path
             style="fill:none;stroke:#000000;stroke-width:1;stroke-linecap:square;stroke-dasharray:none"
             d="m 240,125 -1e-5,-30.000001 h 10 V 125"
             id="path25" /><path
             style="fill:none;stroke:#000000;stroke-width:1;stroke-linecap:square;stroke-dasharray:none"
             d="M 380,185 H 344.99999 V 175 H 380"
             id="path26" /><path
             style="fill:none;stroke:#000000;stroke-width:1;stroke-linecap:square;stroke-dasharray:none"
             d="M 414.99998,135 V 94.999999 h 10.00001 V 135"
             id="path27" /><path
             style="fill:none;stroke:#000000;stroke-width:1;stroke-linecap:square;stroke-dasharray:none"
             d="M 524.99998,64.999999 V 105 H 515 V 64.999999"
             id="path28" /></g><g
           id="g22"
           style="display:inline;opacity:1"><path
             style="fill:none;stroke:#000000;stroke-width:0.2;stroke-linecap:square;stroke-dasharray:none"
             d="m 120,110 h 10 m -10,2 h 10 m -10,2 h 10 m -10,2 h 10 m -10,2 h 10 m -10,2 h 10 m -10,2 h 10 m -10,2 h 10 m -10,2 h 10 m -10,2 h 10 m -10,2 h 10 m -10,2 h 10 m -10,2 h 10 m -10,2 h 10 m -10,2 h 10 m -10,2 h 10"
             id="path16" /><path
             style="fill:none;stroke:#000000;stroke-width:0.2;stroke-linecap:square;stroke-dasharray:none"
             d="m 240,95 h 10 m -10,2 h 10 m -10,2 h 10 m -10,2 h 10 m -10,2 h 10 m -10,2 h 10 m -10,2 h 10 m -10,2 h 10 m -10,2 h 10 m -10,2 h 10 m -10,2 h 10 m -10,2 h 10 m -10,2 h 10 m -10,2 h 10 m -10,2 h 10 m -10,2 h 10"
             id="path17" /><path
             style="fill:none;stroke:#000000;stroke-width:0.2;stroke-linecap:square;stroke-dasharray:none"
             d="m 515,65 h 10 m -10,2 h 10 m -10,2 h 10 m -10,2 h 10 m -10,2 h 10 m -10,2 h 10 m -10,2 h 10 m -10,2 h 10 m -10,2 h 10 m -10,2 h 10 m -10,2 h 10 m -10,2 h 10 m -10,2 h 10 m -10,2 h 10 m -10,2 h 10 m -10,2 h 10 m -10,2 h 10 m -10,2 h 10"
             id="path19" /><path
             style="fill:none;stroke:#000000;stroke-width:0.2;stroke-linecap:square;stroke-dasharray:none"
             d="m 415,135 h 10 m -10,-2 h 10 m -10,-2 h 10 m -10,-2 h 10 m -10,-2 h 10 m -10,-2 h 10 m -10,-2 h 10 m -10,-2 h 10 m -10,-2 h 10 m -10,-2 h 10 m -10,-2 h 10 m -10,-2 h 10 m -10,-2 h 10 m -10,-2 h 10 m -10,-2 h 10 m -10,-2 h 10 m -10,-2 h 10 m -10,-2 h 10 m -10,-2 h 10 m -10,-2 h 10"
             id="path20" /><path
             style="fill:none;stroke:#000000;stroke-width:0.2;stroke-linecap:square;stroke-dasharray:none"
             d="m 185,165 v 10 m 2,-10 v 10 m 2,-10 v 10 m 2,-10 v 10 m 2,-10 v 10 m 2,-10 v 10 m 2,-10 v 10 m 2,-10 v 10 m 2,-10 v 10 m 2,-10 v 10 m 2,-10 v 10 m 2,-10 v 10 m 2,-10 v 10 m 2,-10 v 10 m 2,-10 v 10 m 2,-10 v 10 m 2,-10 v 10 m 2,-10 v 10 m 2,-10 v 10 m 2,-10 v 10"
             id="path21" /><path
             style="display:inline;opacity:1;fill:none;stroke:#000000;stroke-width:0.2;stroke-linecap:square;stroke-dasharray:none"
             d="m 380,185.1 v -10 m -2,10 v -10 m -2,10 v -10 m -2,10 v -10 m -2,10 v -10 m -2,10 v -10 m -2,10 v -10 m -2,10 v -10 m -2,10 v -10 m -2,10 v -10 m -2,10 v -10 m -2,10 v -10 m -2,10 v -10 m -2,10 v -10 m -2,10 v -10 m -2,10 v -10 m -2,10 v -10 m -2,10 v -10"
             id="path22" /></g></g><g
         id="g56"><g
           id="use54"
           style="display:inline"><rect
             style="fill:#ffffff;stroke:#000000;stroke-width:1;stroke-linecap:square;stroke-dasharray:none"
             id="rect45"
             width="20"
             height="20"
             x="205"
             y="175" /><rect
             style="fill:#ffffff;stroke:#000000;stroke-width:1;stroke-linecap:square;stroke-dasharray:none"
             id="rect46"
             width="20"
             height="20"
             x="260"
             y="95" /></g></g><g
         id="g71"><g
           id="g70"><g
             id="use69"
             transform="translate(270,105)"><use
               xlink:href="#AigaSymbols.svg:Elevator_Inv"
               style="fill:#000000;stroke:#000000"
               id="use51"
               transform="matrix(0.1,0,0,0.1,-3.6,-3.6)" /></g><g
             id="use69-5"
             transform="translate(215,185)"><use
               xlink:href="#AigaSymbols.svg:Elevator_Inv"
               style="fill:#000000;stroke:#000000"
               id="use52"
               transform="matrix(0.1,0,0,0.1,-3.6,-3.6)" /></g></g><g
           id="g100"><g
             id="use99"
             transform="translate(520,65)"><use
               xlink:href="#AigaSymbols.svg:StairsUp_Inv"
               style="display:inline;fill:#000000;stroke:#000000"
               id="use92"
               transform="matrix(0.1,0,0,0.1,-3.5999999,-3.5999999)" /></g><g
             id="use99-4"
             transform="translate(420,135)"><use
               xlink:href="#AigaSymbols.svg:StairsUp_Inv"
               style="display:inline;fill:#000000;stroke:#000000"
               id="use93"
               transform="matrix(0.1,0,0,0.1,-3.5999999,-3.5999999)" /></g><g
             id="use99-2"
             transform="translate(380,180)"><use
               xlink:href="#AigaSymbols.svg:StairsUp_Inv"
               style="display:inline;fill:#000000;stroke:#000000"
               id="use94"
               transform="matrix(0.1,0,0,0.1,-3.5999999,-3.5999999)" /></g><g
             id="use99-8"
             transform="translate(185,170)"><use
               xlink:href="#AigaSymbols.svg:StairsUp_Inv"
               style="display:inline;fill:#000000;stroke:#000000"
               id="use98"
               transform="matrix(0.1,0,0,0.1,-3.5999999,-3.5999999)" /></g><g
             id="use99-80"
             transform="translate(125,140)"><use
               xlink:href="#AigaSymbols.svg:StairsUp_Inv"
               style="display:inline;fill:#000000;stroke:#000000"
               id="use103"
               transform="matrix(0.1,0,0,0.1,-3.5999999,-3.5999999)" /></g><g
             id="use99-0"
             transform="translate(245,125)"><use
               xlink:href="#AigaSymbols.svg:StairsUp_Inv"
               style="display:inline;fill:#000000;stroke:#000000"
               id="use105"
               transform="matrix(0.1,0,0,0.1,-3.5999999,-3.5999999)" /></g></g></g></g></g></svg>
