<svg id="レイヤー_1" data-name="レイヤー 1" xmlns="http://www.w3.org/2000/svg" viewBox="0 0 731.12 627"><defs><style>.cls-1{fill:#221714;fill-rule:evenodd;}</style></defs><path class="cls-1" d="M628.42,406.63c-1.31-.44-6.14-1.47-13.89-1.47-12.56,0-34.11,7-34.69,37.67.7,25.72,27.14,38.18,53.39,35.75,12.84-1.34,74.68-1.86,80.83-76.68.18-61.47-55.69-91.52-95.53-91.52-39.68-1-94,13.56-131.1,57.43-22.52,26.63-39.6,63.89-40.67,115.67,0,27.85,10.65,73.74,47.77,112.31,24.5,25.46,68.83,46.27,113.7,46.27,31.76,0,84.22-8.51,113.74-49.08,12.09-16.6,23.46-39.24,15.33-63a35.26,35.26,0,0,0-5.86-10.56c-7.49-9.54-17.11-13.23-20.77-13.91a29.06,29.06,0,0,0-10.65,0c-6.21,1.13-14.37,4.62-19.5,12.14-9.48,13.87-14.77,45.13-53.75,57.07-21.95,6.12-79.36,14.22-105.9-57.78-7.73-23-13-94.16,34.76-131.91,6.6-5.43,12.16-9.45,18.37-12.3,20.8-9.48,40.64-10.92,58.7-5.64,9.54,2.67,28.66,12.84,24.47,32.71-1.38,8.19-6.25,14.4-9.8,15.3-3.72,1.63-4.48.83-6.83-1.13s-3.86-4.83-12.12-7.34" transform="translate(-8.92 -15.06)"/><path class="cls-1" d="M241.82,491.75c1.14.05,2.26.1,3.39.17,5.3,3.66,1.71,21.73,1.18,28.72-1.12,14.65-2.13,26.06-3.18,36.35,5.85,2.41,9.68-8.21,16-4.74,1.52.89,3.18,5.74,1.13,9.64-1,2-7.65,4.27-11,5.58a31.42,31.42,0,0,0-4,1.45c-1.45,2.3-1,10.29-1.4,15.09-.89,11.3-1.42,18.59.72,27,2,8,5.55,9.91-1.91,13.94-2.26-.14-4.49-.26-6.73-.38-10.47-7.22-.22-40.57-4.34-52.53-5.17,0-8.17-1.06-10.12.55-5.93,4.84,2.66,46.84-14.53,38-6.25-3.2-.23-22.87.59-30.32.43-4.07,2.09-8.44,1.12-10-1.94-3.29-11.44-1.38-14.25-5.89-.66-1-.6-6.22,1.51-7.21,5-2.31,8.52,4.67,11.63,2.93.53-7.29.45-17.23.35-25.85-.09-5.82-2.26-21.58,5.7-21.58,8.49,0,4.55,18.29,4.31,23.28-.37,7.43,0,17.52-.9,25.78,5-.41,14.3.34,16.5-3.56,1.44-2.54.31-7.44.7-12.33.43-5.5,1.19-12.66,1.8-21.81.88-13.47-.82-29,5.72-32.25" transform="translate(-8.92 -15.06)"/><path class="cls-1" d="M39.12,528.6c.09-1.65.19-3.33.28-5,3.38-6.84,7-7.73,14.08-10.45,3-1.15,6.92-2,9.72-2.82,19.72-5.39,44.1-10.75,67.88-7.92,14.69,1.73,35.69,8.74,41,20.24,3.89,8.44-.1,22.63-3.82,27.93-4.24,6-15.67,11.66-25.57,14.83-7.22,2.32-25.65,5.48-26.34,9.18-.25,1.24,4.13,5.57,6.22,8.81,2.71,4.09,4.71,7,6.22,9.33,3.52,5.29,12.93,14,11.95,17.55a6.8,6.8,0,0,1-6.43,4.1c-5.11-.51-5.8-6.6-7.91-9.41-3.22-4.37-7.82-7.94-10.63-10.76-5.88,6.27-.19,19.48-4.63,22.24-1.62,1.05-7.79-.42-7.82-.42-3.74-2.59-1.69-14.26-1.17-19.18.68-6.48,3.25-15.48,2.18-19-.89-3-8.21-8.94-11.72-11.35-4.54-3.09-8.07-1.64-10.29-6.77-6.32-14.56,16.09-3,23.21-2.62,3.08-6-1.59-26.15,2.91-31.86,1.39-1.77,9.77-3.22,11.91-1.58,3.07,2.39.68,13.24,0,18.54-.5,4.36-2.18,12.07-1.53,17.34,13.09-2.63,38.1-8.35,41.65-20.66,5.74-20-16.66-24.68-31.71-26-24.11-2.09-50,4.48-69.17,10.74-7.28,2.4-14.15,6.17-20.52,5" transform="translate(-8.92 -15.06)"/><path class="cls-1" d="M288.09,598.3c-5.59,9.13-11.21,17.06-20.08,17.41-4.15.18-11.31-2.33-13.21-5.22-3.36-5.2,1.77-6.28,1.24-11.74-.39-4.09-5-5.42-4.44-10.94.57-6.45,9.77-16.68,19.91-14,1.4.37,3,2.51,4.29,3.62.56.48,4.1,2.23,4.3,3.59,0,0-1.14,4.07-1.94,4.39-3.42,1.42-3.27-4-8.8-3.29-2.18.28-7.52,5.72-6.07,8.1,1.16,1.93,11.15-7.37,9.93,2.8-.21,1.79-12.39,10.23-4.64,12.65,5.19,1.63,10.33-5.36,12.37-10,1.49-3.47,2.09-14,5.38-16,7.55-4.42,7.53,6.82,8.81,13.43,1.14,5.95,2.65,10.6,5.36,14.33,1.31,1.79,2.15.91,2.11,2.94-.12,3.11-3.22,4.37-3.08,4.32-7.16,1.94-7.68-10.32-11.44-16.39" transform="translate(-8.92 -15.06)"/><path class="cls-1" d="M142.48,569.31c7.24-.34,6.8,5.07,11,5.09s2.42-4.26,7-4.65c5.16-.43,8.12,6.37,14.27,6.44,2.47,0,4.43-3.18,8-3.48,9.37-.78,15.91,13.28,16.8,21.17.36,3.31-1.3,11.94-8.23,6.26-3.47-2.81-2.21-15.51-8.61-16.77-3.68-.69-6,1.67-8.13,4.6-1.6,2.21-2,6.94-4.93,7.59-9.5,2.09-3.16-11.8-8.15-14.52-3.64-2-10.44,11.36-14.78,12.65-7.22,2.24-15.25-1.9-17-6.55-3.68-9.57,4.55-17.46,12.8-17.83m-5.85,14.29c1.77,5.72,14.72,2.89,9.83-5.07-1-1.67-3.57-2.73-6.64-1.53-3.45,1.37-4.29,3-3.19,6.6" transform="translate(-8.92 -15.06)"/><path class="cls-1" d="M467.26,600.53c-.39,6-6.69,8.11-11.85,10.58-4.78,2.3-11.79,5-16.58,5.26-2.64.12-8.62-.09-11.16-1.19-4.48-2-6.27-10.77-8.94-11.2-5.54-.85-6,12.55-12.42,10.58-3.89-1.25-2.49-12.86-6-13.3-1.41-.16-7.34,9.52-8.45,10.23-2.07,1.32-8.13,3-9.69,2.81-3.08-.44-5.21-4.83-7.61-4.94-3.62-.14-6.87,7.2-15.44,4.78-1.51-.48-5.83-3.43-6.41-6-2.17-9.71,11.73-20.59,17-21.55.69-.12,2.4.9,5,.87,4.53-.09,7.9-4.18,10.24-2.25,3.66,3-2.87,14.81-2.19,19,6.84-1.78,10.4-5.43,11.78-9.44,1.63-4.71-1.28-10.81,3.34-9.4,1.68.55,4.53,3,5.91,4.88,2.51,3.38,3.28,10,5.57,10.39,2.45.46,6.39-7.47,9.42-7.34,5.11.28,6.24,10.72,11.13,12.45,5.36,1.9,13.44-1.16,19.23-2.3s11.71-2.28,18.13-2.92m-102.52,4.34c5.35,8,17.45-12.62,3.26-8.25-2,.62-5.18,5.4-3.26,8.25" transform="translate(-8.92 -15.06)"/><path class="cls-1" d="M317.69,582c6.46-2,7.28,7.84,14.12,8.67,2.46.3,5.57-2.67,6.89-2.42,3.1.55,8,11,9.87,14,2,3.23,9.37,14.31,3,15.88-5.57,1.45-11-18-15.87-17.72-3.94.23-3.6,11.32-6.84,12-7.54,1.51-4.44-15.94-6.89-17.23-5-2.74-7.56,18.21-13.38,17.75-8-.57,2.42-23,4.9-26.7,1.14-1.7,2.35-3.68,4.17-4.25" transform="translate(-8.92 -15.06)"/><path class="cls-1" d="M499.53,278.7c-.74,2.69-5.91,19.14,2.62,26.33,1.91,1.5,4.58,3.34,7.47,2.39,4.35-1.16,18.45-11.48,28.41-15.14,6.32-2.66,15.94-6.9,40.39-11s35-2.44,36.68-2.39,9.21.36,10.81-1.26,5.6-6.36.24-18.4a30,30,0,0,0-11.37-13.49c-2.66-1.86-15.92-8.16-20.47-11.72s-7.26-7-7.77-16.61-4.21-95.48-1-121.31c.72-5.6,4.47-19.88,8.22-24.86s4.73-6,9-8.18,17.94-8.17,19.69-16.71-5.82-17.3-14.28-21-45.36-13.9-89.15-6.1c-9.39,1.69-31.65,6.29-25.81,25.08,2.44,6.21,12.21,13.81,17.28,17.56s13,10.9,13.89,19.83c0,7.44-1.29,54.5-1.29,54.5H419.51l-.21-47.92S417.49,76,426.73,67.5s21.88-16.16,23.92-23.58a17.4,17.4,0,0,0-9.5-20.1c-8-3.76-60.67-16.38-125.87-2.17-36.11,10.93-61.77,20.16-70.87,42.29-2.26,5.94-4,34.56,28,33.86,6.23-.36,14.14-5.2,16.61-7S305.87,78.13,317,76.27s27.48-4.3,34.24,9.33c2.65,5.52,5.72,13.24,5.72,39.33s-1.06,85-1.59,100.76-1.18,43.21-7.25,59.81-14.23,30.94-37.66,47.55c-6.06,4.46-21.34,20.54-15.15,37.42a41.94,41.94,0,0,0,42.55,27c19-1.59,36.89-11.3,56.51-47.8s22.15-87.73,22.8-98.41,2.39-58.49,2.39-58.49H523c0,2.93,1.17,32.31.16,42.49s-.21,10.26-8.58,20.2c-3.19,3.77-13.29,16-15.06,23.25" transform="translate(-8.92 -15.06)"/><path class="cls-1" d="M304.09,241.77c10.53-61.91-24.13-95.25-34.64-102.88C218,99,147.86,104.37,123.63,107.81c-78,11.59-103.24,63.21-108.42,79C4.33,221.07,10.13,249.74,13.69,260c11.15,30.9,27.94,46.49,46.64,49.72S87.2,302.3,90.63,298c12.11-15.72-.16-29.05-3.93-34.4-6.49-9.21-22-30.21-22.74-44.71-1-31.25,25.1-44.77,38.18-50.48,54.1-22.13,96.7-5.27,104.51-1.67,44.53,20.1,41.45,55,36.51,70.43s-20.52,24.67-36.28,29.29-30.53,3.19-34.68,2.82a86.84,86.84,0,0,1-10.61-2s-.08-4.23-.12-6.53.24-11.74.35-13.78A60.39,60.39,0,0,1,166,229.16c.74-2.32,6.07-13.83,4.74-23.12a13.56,13.56,0,0,0-2.53-6.55c-6.91-8.11-16.95-9.47-28.57-10.2s-26.62.94-33.69,3.35S93.24,197.72,89.92,204c-5.78,11.35,1.32,16.94,8.5,25.22s9.27,13.31,9.27,21-.45,70.06-.37,85.34-.44,37.89-.89,43.32-1.85,16.9-4.9,25.75-8.6,14.65-10.92,17.23-9.31,11.25-11,15.46-.39,11.08,4.88,17.84,13.81,11.81,26,9.85,26.33-15.14,27.47-16.35c13.28-12,24.87-23.47,33.19-34.13,8.09-10.35,13.35-19.93,15.09-26.84,1.81-6.63-.18-14.45-5.59-18.91a35.09,35.09,0,0,0-9.71-5.48c-5-1.93-9.47-3.52-9.47-3.52l.11-32.77s.23-12.59.29-13.69c.9,0,18.87.84,19.76.82,3.94,13.44,13.8,40.6,13.8,40.6,17.92,49.89,45.7,88.26,48.25,91.21,38.55,49.6,72.22,59,95.09,61.36s60.3-4.37,78.39-28.85,3.24-47.81-1.73-52c-13.83-12-25.95-6.1-33.51-.47s-18.63,9.5-27.41,11c-26,3.53-43.36-6.16-59.89-19.48-47.24-42.34-66.52-106.77-66.52-106.77,12.08.34,67.06-16.53,76-69" transform="translate(-8.92 -15.06)"/></svg>