<?xml version="1.0" encoding="UTF-8" standalone="no"?>
<!-- Created with Inkscape (http://www.inkscape.org/) -->

<svg
   width="210mm"
   height="297mm"
   viewBox="0 0 210 297"
   version="1.1"
   id="svg1"
   inkscape:version="1.4.3 (1:1.4.3+202512261035+0d15f75042)"
   sodipodi:docname="svgmapviewer-ad.svg"
   xmlns:inkscape="http://www.inkscape.org/namespaces/inkscape"
   xmlns:sodipodi="http://sodipodi.sourceforge.net/DTD/sodipodi-0.dtd"
   xmlns:xlink="http://www.w3.org/1999/xlink"
   xmlns="http://www.w3.org/2000/svg"
   xmlns:svg="http://www.w3.org/2000/svg">
  <sodipodi:namedview
     id="namedview1"
     pagecolor="#ffffff"
     bordercolor="#000000"
     borderopacity="0.25"
     inkscape:showpageshadow="2"
     inkscape:pageopacity="0.0"
     inkscape:pagecheckerboard="0"
     inkscape:deskcolor="#d1d1d1"
     inkscape:document-units="mm"
     showgrid="false"
     inkscape:zoom="1.0351712"
     inkscape:cx="326.51604"
     inkscape:cy="561.25982"
     inkscape:window-width="2560"
     inkscape:window-height="1363"
     inkscape:window-x="0"
     inkscape:window-y="0"
     inkscape:window-maximized="1"
     inkscape:current-layer="g1">
    <inkscape:grid
       id="grid1"
       units="mm"
       originx="0"
       originy="0"
       spacingx="0.99999998"
       spacingy="1"
       empcolor="#0099e5"
       empopacity="0.30196078"
       color="#0099e5"
       opacity="0.14901961"
       empspacing="5"
       enabled="true"
       visible="false" />
  </sodipodi:namedview>
  <defs
     id="defs1">
    <symbol
       id="AigaSymbols.svg:Customs_Inv">
      <title
         id="title223">Customs</title>
      <rect
         x="0.5"
         y="0.5"
         width="71"
         height="71"
         ry="6"
         style="stroke:#ffffff"
         id="rect223" />
      <g
         style="fill:#ffffff;stroke:none"
         id="g225">
        <!-- Bag -->
        <path
           d="m 11,53 h 4 V 30 h -4 a 3,3 0 0 0 -3,3 v 17 a 3,3 0 0 0 3,3 m 27,4 V 53 H 15 v 4 a 3,3 0 0 0 3,3 h 17 a 3,3 0 0 0 3,-3 z"
           id="path224" />
        <!-- Official -->
        <path
           d="m 43,19 -2.5,3 h 3 A 6.25,6.25 0 0 0 56,22 v -3 z m 13,-6 v 4.5 H 43 L 40,13 Z M 55.25,30 H 41 a 5.2,5.3 0 0 0 -4,1.8 L 25,47.5 a 2.93,2.93 0 0 0 4.6,3.6 L 41,36 V 49 Z M 63,34 V 60 H 41 V 53 H 57 V 50 H 44 L 59,30 a 4,4 0 0 1 4,4 z"
           id="path225" />
      </g>
    </symbol>
    <symbol
       id="AigaSymbols.svg:Shops_Inv">
      <title
         id="title193">Shops</title>
      <rect
         x="0.5"
         y="0.5"
         width="71"
         height="71"
         ry="6"
         style="stroke:#ffffff"
         id="rect193" />
      <g
         style="fill:#ffffff;stroke:none"
         id="g196">
        <!-- Pipe -->
        <path
           d="m 19.5,11 v 5 c 0,1.1 1,1.5 2,1 l 13.9,-6.4 c 0.4,-0.2 0.9,0 1.1,0.4 l 1.1,2.3 c 0.2,0.4 0,0.9 -0.4,1.1 L 18,23.1 c -3.5,1.6 -7,-0.6 -7,-3.6 V 11 Z"
           id="path194" />
        <!-- Book -->
        <path
           d="M 27.5,22 14,28 c -2.2,1 -3,2.4 -3,4.5 v 21 A 5.5,5.5 0 0 0 16.5,59 H 35 v -3.5 a 2,2 0 0 1 0,-4 V 26 h -7.5 z m 0.5,8 h 3 V 48 H 20 l 8,-3.5 z M 16.5,52 h 13 a 2,2 0 0 0 0,3 h -13 a 1.5,1.5 0 0 1 0,-3 z"
           id="path195" />
        <!-- Present -->
        <path
           d="M 49,10.5 45,11.8 46.9,18 42.6,14.6 40,18 45,22 H 40 V 59 H 62 V 22 H 57 L 62,18 59.4,14.6 55.1,18 57,11.8 53,10.5 51,17 Z M 44,26 h 5 v 6 h -5 z m 9,0 h 5 v 6 h -5 z m -9,10 h 5 v 19 h -5 z m 9,0 h 5 v 19 h -5 z"
           id="path196" />
      </g>
    </symbol>
    <symbol
       id="AigaSymbols.svg:BeautySalon_Inv">
      <title
         id="title209">Beauty Salon</title>
      <rect
         x="0.5"
         y="0.5"
         width="71"
         height="71"
         ry="6"
         style="stroke:#ffffff"
         id="rect209" />
      <g
         style="fill:#ffffff;stroke:none"
         id="g212">
        <!-- Scissors -->
        <path
           d="M 23,39 V 55.5 A 6.5,6.5 0 1 0 26,49 V 33 L 23,7 a 1.01,1.01 0 0 0 -2,0 l -3,26 v 16 a 6.5,6.5 0 1 0 3,6 V 39 Z m 6,21.5 c -0.3,2 0.4,5.5 1.8,6.8 1.5,1.3 3.2,-0.4 2.5,-1.8 -0.8,-1.4 -1.8,-2.2 -1,-5.5 z m -11,-6 a 3.5,3.5 0 0 1 -7,0 3.5,3.5 0 1 1 7,0 z m 15,0 a 3.5,3.5 0 0 1 -7,0 3.5,3.5 0 1 1 7,0 z"
           id="path210" />
        <!-- Comb -->
        <path
           d="m 30,13 c -2,0 -2,2.5 0,2.5 h 8 v 1 h -8 c -2,0 -2,2.5 0,2.5 h 8 v 1 h -8 c -2,0 -2,2.5 0,2.5 h 8 v 1 h -8 c -2,0 -2,2.5 0,2.5 h 8 v 1 h -8 c -2,0 -2,2.5 0,2.5 h 8 v 1 h -8 c -2,0 -2,2.5 0,2.5 h 8 v 1 h -8 c -2,0 -2,2.5 0,2.5 h 8 v 1 h -8 c -2,0 -2,2.5 0,2.5 h 8 v 24 a 3,3 0 0 0 6,0 V 10 A 4,4 0 0 0 40,6 H 30 c -2,0 -2,2.5 0,2.5 h 8 v 1 h -8 c -2,0 -2,2.5 0,2.5 h 8 v 1 z"
           id="path211" />
        <!-- Woman -->
        <circle
           cx="58"
           cy="10"
           r="3"
           id="circle211" />
        <path
           d="m 57.5,42.25 a 1.5,1.5 0 0 1 -3,0 V 32.05 L 51,32 55,18 H 54.25 L 52,25.75 c -0.5,1.75 -2.75,1 -2.25,-0.75 l 2.55,-8.75 c 0.2,-1 1.5,-2.75 3.7,-2.75 h 4 c 2.25,0 3.5,1.75 3.825,2.75 L 66.25,25 c 0.5,1.75 -1.75,2.5 -2.25,0.75 l -2.25,-8 H 61 L 65,32 h -3.5 v 10.25 a 1.5,1.5 0 0 1 -3,0 V 32 h -1 z"
           id="path212" />
      </g>
    </symbol>
    <symbol
       id="AigaSymbols.svg:CurrencyExchange_Inv">
      <title
         id="title15">Currency Exchange</title>
      <rect
         x="0.5"
         y="0.5"
         width="71"
         height="71"
         ry="6"
         style="stroke:#ffffff"
         id="rect15" />
      <rect
         x="11"
         y="14"
         width="50"
         height="22"
         style="fill:none;stroke:#ffffff;stroke-width:5.25"
         id="rect16" />
      <g
         style="stroke:none"
         id="g19">
        <!-- Dollar -->
        <circle
           cx="36"
           cy="25"
           r="7.25"
           style="fill:#ffffff"
           id="circle16" />
        <path
           d="m 35.1,19 v 1.2 c -0.6,0.1 -1.2,0.4 -1.6,0.7 -0.7,0.5 -1.2,1.2 -1.2,2.1 0,0.7 0.3,1.5 0.9,2 0.4,0.4 1.2,0.7 1.9,0.8 v 2.1 C 34.4,27.7 33.9,27 33.9,26.6 h -1.8 c 0,1 0.5,1.7 1.2,2.3 0.5,0.4 1.1,0.8 1.8,0.9 V 31 h 1.8 v -1.2 c 0.6,-0.1 1.2,-0.3 1.7,-0.6 0.7,-0.5 1.3,-1.25 1.3,-2.2 0,-0.8 -0.3,-1.6 -1,-2.1 -0.5,-0.3 -1.3,-0.6 -2,-0.7 v -2.1 c 0.6,0.3 1,0.9 1,1.3 h 1.8 c 0,-1.5 -1.2,-2.8 -2.8,-3.2 V 19 Z m 0,4.9 c -0.8,-0.2 -1,-0.5 -1,-0.9 0,-0.4 0.5,-0.8 1,-0.9 z m 1.8,2.1 c 0.8,0.2 1.2,0.4 1.2,1 0,0.5 -0.6,0.8 -1.2,1 z"
           id="path16" />
        <!-- Pound -->
        <circle
           cx="48"
           cy="38"
           r="7.25"
           style="fill:#ffffff"
           id="circle17" />
        <path
           d="m 48,32.6 c -1.6,0 -3.1,1.1 -3.1,2.7 0,0.5 0.1,0.9 0.2,1.3 H 44 v 1.8 h 1.4 c 0.2,1 -0.3,1.5 -0.8,2.2 v 1.8 h 6.6 v -1.8 h -4.4 c 0.4,-0.8 0.6,-1.5 0.5,-2.2 h 1.5 v -1.8 h -1.9 c -0.1,-0.5 -0.2,-1 -0.2,-1.3 0,-0.4 0.5,-0.9 1.3,-0.9 1,0 1.3,0.7 1.3,1.5 h 1.8 c 0,-1 -0.3,-1.8 -0.9,-2.4 -0.6,-0.6 -1.3,-0.9 -2.2,-0.9 z"
           id="path17" />
        <!-- Franc -->
        <circle
           cx="21"
           cy="48"
           r="7.25"
           style="fill:#ffffff"
           id="circle18" />
        <path
           d="m 21.9,46.6 v 5.8 h 1.8 V 50 c 0,-1.6 1.8,-1.7 1.8,-1.7 v -1.7 c -0.4,0 -1.3,0.2 -1.8,1 v -1 z M 21,42.8 c -1.6,0 -2.7,1.2 -2.7,2.7 v 1.1 h -1.1 v 1.8 h 1.1 v 4 h 1.8 v -4 h 1.3 v -1.8 h -1.3 v -1.1 c 0,-0.7 0.3,-1 0.9,-1 0.6,0 0.9,0.3 0.9,1 V 46 h 1.8 V 45.5 C 23.7,44 22.6,42.8 21,42.8 Z"
           id="path18" />
        <!-- Yen -->
        <circle
           cx="43"
           cy="56"
           r="7.25"
           style="fill:#ffffff"
           id="circle19" />
        <path
           d="m 41,51.8 2,3.4 2,-3.4 h 2 l -3.1,5.4 h 2.3 V 59 h -2.3 v 2.4 H 42.1 V 59 h -2.3 v -1.8 h 2.3 L 39,51.8 Z"
           id="path19" />
      </g>
    </symbol>
    <symbol
       id="AigaSymbols.svg:Heliport_Inv">
      <title
         id="title146">Heliport</title>
      <rect
         x="0.5"
         y="0.5"
         width="71"
         height="71"
         ry="6"
         style="stroke:#ffffff"
         id="rect146" />
      <!-- Pontoon -->
      <path
         d="M 31,53 H 61"
         style="fill:none;stroke:#ffffff;stroke-width:6;stroke-linecap:round"
         id="path147" />
      <!-- Body -->
      <path
         d="M 30.5,42 29,38 10,30.5 C 7.5,29.5 8,26 11,26 h 41 c 4.5,0 7.4,3 8.5,6 l 3,8 c 1,3 -0.5,5 -3.5,5 H 34 c -2.5,0 -3,-1.5 -3.5,-3 z"
         style="fill:#ffffff;stroke:none"
         id="path148" />
      <!-- Windows -->
      <g
         style="stroke:none"
         id="g151">
        <path
           d="m 40,36 h 4.5 V 29 H 40 Z"
           id="path149" />
        <path
           d="m 47,36 h 4.5 V 29 H 47 Z"
           id="path150" />
        <path
           d="M 58,32.5 59.5,36 H 54 v -7 c 1.5,0.3 3.1,1.5 4,3.5 z"
           id="path151" />
      </g>
      <!-- Roter -->
      <g
         style="fill:none;stroke:#ffffff;stroke-width:3"
         id="g155">
        <path
           d="m 38.5,20 v 6"
           id="path152" />
        <path
           d="m 33.5,19.5 h 10"
           style="stroke-width:1.5"
           id="path153" />
        <path
           d="m 15.5,19.5 h 17"
           style="stroke-linecap:round"
           id="path154" />
        <path
           d="m 44.5,19.5 h 17"
           style="stroke-linecap:round"
           id="path155" />
      </g>
      <!-- Tail Roter -->
      <circle
         cx="10.5"
         cy="28.5"
         r="5.5"
         style="fill:none;stroke:#ffffff;stroke-width:2.5"
         id="circle155" />
    </symbol>
    <symbol
       id="AigaSymbols.svg:CoatCheck_Inv">
      <title
         id="title40">Coat Check</title>
      <rect
         x="0.5"
         y="0.5"
         width="71"
         height="71"
         ry="6"
         style="stroke:#ffffff"
         id="rect40" />
      <path
         d="M 36,31 61,45.5 A 3.5,3.5 0 0 1 59.5,52 h -47 A 3.5,3.5 0 0 1 11,45.5 L 36,31 V 28 A 4,4 0 0 0 34,24.6 5.5,5.5 0 1 1 41.5,20"
         style="fill:none;stroke:#ffffff;stroke-width:4;stroke-linecap:round"
         id="path41" />
    </symbol>
    <symbol
       id="AigaSymbols.svg:Heliport">
      <title
         id="title137">Heliport</title>
      <!-- Pontoon -->
      <path
         d="M 31,53 H 61"
         style="fill:none;stroke-width:6;stroke-linecap:round"
         id="path138" />
      <!-- Body -->
      <path
         d="M 30.5,42 29,38 10,30.5 C 7.5,29.5 8,26 11,26 h 41 c 4.5,0 7.4,3 8.5,6 l 3,8 c 1,3 -0.5,5 -3.5,5 H 34 c -2.5,0 -3,-1.5 -3.5,-3 z"
         style="stroke:none"
         id="path139" />
      <!-- Windows -->
      <g
         style="fill:#ffffff;stroke:none"
         id="g142">
        <path
           d="m 40,36 h 4.5 V 29 H 40 Z"
           id="path140" />
        <path
           d="m 47,36 h 4.5 V 29 H 47 Z"
           id="path141" />
        <path
           d="M 58,32.5 59.5,36 H 54 v -7 c 1.5,0.3 3.1,1.5 4,3.5 z"
           id="path142" />
      </g>
      <!-- Roter -->
      <g
         style="fill:none;stroke-width:3"
         id="g146">
        <path
           d="m 38.5,20 v 6"
           id="path143" />
        <path
           d="m 33.5,19.5 h 10"
           style="stroke-width:1.5"
           id="path144" />
        <path
           d="m 15.5,19.5 h 17"
           style="stroke-linecap:round"
           id="path145" />
        <path
           d="m 44.5,19.5 h 17"
           style="stroke-linecap:round"
           id="path146" />
      </g>
      <!-- Tail Roter -->
      <circle
         cx="10.5"
         cy="28.5"
         r="5.5"
         style="fill:none;stroke-width:2.5"
         id="circle146" />
    </symbol>
    <symbol
       id="AigaSymbols.svg:Toilets">
      <title
         id="title82">Toilets</title>
      <g
         style="stroke:none"
         id="g83">
        <!-- Divider -->
        <rect
           x="33.5"
           y="12"
           width="5"
           height="48"
           id="rect82" />
        <!-- Woman -->
        <circle
           cx="19.5"
           cy="15"
           r="4"
           id="circle82" />
        <path
           d="m 19,44.5 v 14 a 2,2 0 0 1 -4,0 v -14 H 10 L 15.5,26 h -1 l -3,10.5 A 1.821,1.821 0 0 1 8,35.5 l 3.5,-12 A 5.7,4.6 0 0 1 17,20 h 5 a 5.7,4.6 0 0 1 5.5,3.5 l 3.5,12 a 1.821,1.821 0 0 1 -3.5,1 L 24.5,26 h -1 L 29,44.5 h -5 v 14 a 2,2 0 0 1 -4,0 v -14 z"
           id="path82" />
        <!-- Man -->
        <circle
           cx="52.5"
           cy="15"
           r="4"
           id="circle83" />
        <path
           d="m 43,25 v 13 a 1.75,1.75 0 0 0 3.5,0 V 26.5 h 1 v 31.75 a 2.25,2.25 0 0 0 4.5,0 V 39.5 h 1 v 18.75 a 2.25,2.25 0 0 0 4.5,0 V 26.5 h 1 V 38 A 1.75,1.75 0 0 0 62,38 V 25 a 5,5 0 0 0 -5,-5 h -9 a 5,5 0 0 0 -5,5 z"
           id="path83" />
      </g>
    </symbol>
    <symbol
       id="AigaSymbols.svg:GroundTransportation_Inv">
      <title
         id="title167">Ground Transportation</title>
      <rect
         x="0.5"
         y="0.5"
         width="71"
         height="71"
         ry="6"
         style="stroke:#ffffff"
         id="rect167" />
      <!-- Taxi -->
      <path
         d="m 11.5,48 v 3 a 2,2 0 0 1 -4,0 L 7.4,48 H 5 V 39.5 A 2.5,2.5 0 0 1 7.5,37 L 10,31 a 4,4 0 0 1 3.5,-2 h 3 v -1.5 a 1,1 0 0 1 1,-1 h 4 a 1,1 0 0 1 1,1 V 29 h 3 a 4,4 0 0 1 3.5,2 l 2.5,6 A 2.5,2.5 0 0 1 34,39.5 V 48 h -2.5 v 3 a 2,2 0 0 1 -4,0 V 48 Z M 10,37 12,32 a 1.5,1.5 0 0 1 1.5,-1 h 12 a 2.5,1.5 0 0 1 1.5,1 l 2,5 z"
         style="fill:#ffffff;fill-rule:evenodd;stroke:none"
         id="path167" />
      <circle
         cx="9.5"
         cy="41.5"
         r="2"
         style="stroke:none"
         id="circle168" />
      <circle
         cx="29.5"
         cy="41.5"
         r="2"
         style="stroke:none"
         id="circle169" />
      <!-- Bus -->
      <path
         d="m 36,48 h 2.5 v 3 a 2,2 0 0 0 4,0 v -3 h 18 v 3 a 2,2 0 0 0 4,0 V 48 H 67 V 31.5 L 65.5,20 a 5.6,5.6 0 0 0 -4,-4 28,28 0 0 0 -20,0 5.6,5.6 0 0 0 -4,4 L 36,31.5 V 48 m 5.5,-27 a 1.75,1.75 0 0 0 -2,1.5 l -1,9 a 1,1.225 0 0 0 1,1.5 h 24 a 1,1.225 0 0 0 1,-1.5 l -1,-9 A 1.75,1.75 0 0 0 61.128,21 Z"
         style="fill:#ffffff;fill-rule:evenodd;stroke:none"
         id="path169" />
      <path
         d="M 45,18 H 58"
         style="fill:none;stroke-width:2;stroke-linecap:round"
         id="path170" />
      <circle
         cx="40.5"
         cy="40.5"
         r="2.25"
         style="stroke:none"
         id="circle170" />
      <circle
         cx="62.5"
         cy="40.5"
         r="2.25"
         style="stroke:none"
         id="circle171" />
    </symbol>
    <symbol
       id="AigaSymbols.svg:Immigration_Inv">
      <title
         id="title227">Immigration</title>
      <rect
         x="0.5"
         y="0.5"
         width="71"
         height="71"
         ry="6"
         style="stroke:#ffffff"
         id="rect227" />
      <g
         style="fill:#ffffff;stroke:none"
         id="g229">
        <!-- Passport -->
        <path
           d="m 14,15 v 13 l 6.25,4.75 C 21.12,33.37 22,32.62 22,31.5 V 28 h 1 a 2,2 0 0 0 2,-2 v -9 a 2,2 0 0 0 -2,-2 z m 2.5,1.25 H 23 A 0.75,0.75 0 0 1 23.75,17 v 9 A 0.75,0.75 0 0 1 23,26.75 H 22 V 21.5 c 0,-0.6 0,-1.4 -0.5,-1.75 z"
           id="path228" />
        <!-- Official -->
        <path
           d="m 37,19 -2.5,3 h 3 A 6.25,6.25 0 0 0 50,22 v -3 z m 13,-6 v 4.5 H 37 L 34,13 Z M 49.25,30 H 35 a 5.2,5.3 0 0 0 -4,1.8 L 25.75,38.75 18.5,33 A 2.82,2.82 0 0 0 15,37.4 l 9.5,7.6 a 3,3 0 0 0 4,-0.5 L 35,36 V 49 Z M 57,34 V 60 H 35 V 53 H 51 V 50 H 38 L 53,30 a 4,4 0 0 1 4,4 z"
           id="path229" />
      </g>
    </symbol>
    <symbol
       id="AigaSymbols.svg:Mail_Inv">
      <title
         id="title7">Mail</title>
      <rect
         x="0.5"
         y="0.5"
         width="71"
         height="71"
         ry="6"
         style="stroke:#ffffff"
         id="rect7" />
      <g
         style="fill:none;stroke:#ffffff;stroke-width:4"
         id="g11">
        <path
           d="m 10.5,55.1 h 51 V 17.5 h -51 z"
           id="path8" />
        <path
           d="m 11,17.75 22,22.6 c 1.6,1.6 4.4,1.6 6,0.0125 L 61,17.75"
           id="path9" />
        <path
           d="M 12,54 28.9,37"
           id="path10" />
        <path
           d="M 60,54 43.1,37"
           id="path11" />
      </g>
    </symbol>
    <symbol
       id="AigaSymbols.svg:Telephone_Inv">
      <title
         id="title3">Telephone</title>
      <rect
         x="0.5"
         y="0.5"
         width="71"
         height="71"
         ry="6"
         style="stroke:#ffffff"
         id="rect3" />
      <g
         style="fill:#ffffff;stroke:none"
         id="g3">
        <path
           d="m 23,36 c 0,24 11,30 13,30 V 49 c -3,0 -3,-8 -3,-13 0,-5 0,-13 3,-13 V 6 C 33,6 23,12 23,36 Z"
           id="path3" />
        <path
           id="ear2"
           d="m 42,23 a 2,2 0 0 0 2,-2 V 8 A 2,2 0 0 0 42,6 h -4 v 17 z" />
        <use
           y="43"
           xlink:href="#ear2"
           id="use3" />
      </g>
    </symbol>
    <symbol
       id="AigaSymbols.svg:Bus">
      <title
         id="title159">Bus</title>
      <path
         d="m 14,58 h 4 v 4 a 3,3 0 0 0 6,0 v -4 h 24 v 4 a 3,3 0 0 0 6,0 v -4 h 4 V 35 L 56,19 a 8,8 0 0 0 -6,-6 40,40 0 0 0 -28,0 8,8 0 0 0 -6,6 l -2,16 z m 8,-38 a 2.5,2.5 0 0 0 -2.5,2 L 18,35 a 1.5,1.75 0 0 0 1.5,2 h 33 A 1.5,1.75 0 0 0 54,35 L 52.5,22 A 2.5,2.5 0 0 0 50,20 Z"
         style="fill-rule:evenodd;stroke:none"
         id="path159" />
      <path
         d="M 27,16.5 H 45"
         style="fill:none;stroke:#ffffff;stroke-width:3;stroke-linecap:round"
         id="path160" />
      <circle
         cx="21"
         cy="48"
         r="3"
         style="fill:#ffffff;stroke:none"
         id="circle160" />
      <circle
         cx="51"
         cy="48"
         r="3"
         style="fill:#ffffff;stroke:none"
         id="circle161" />
    </symbol>
    <symbol
       id="AigaSymbols.svg:AirTransportation">
      <title
         id="title135">Air Transportation</title>
      <path
         d="m 39,10 v 18 l 25,15 v 7 L 39,41 v 14 l 6,4 v 6 l -9,-3 -9,3 v -6 l 6,-4 V 41 L 8,50 V 43 L 33,28 V 10 a 3,3 0 0 1 6,0 z"
         style="stroke:none"
         id="path136" />
    </symbol>
    <symbol
       id="AigaSymbols.svg:RailTransportation">
      <title
         id="title171">Rail Transportation</title>
      <g
         style="stroke:none"
         id="g173">
        <path
           d="m 27,12 a 8,8 0 0 0 -8,8 v 26 a 8,8 0 0 0 6.156,7.781 L 17,66 h 5 l 6,-9 h 16 l 6,9 h 5 L 46.844,53.781 A 8,8 0 0 0 53,46 V 20 a 8,8 0 0 0 -8,-8 z m 5,2 h 8 a 1,1 0 0 1 1,1 v 2 a 1,1 0 0 1 -1,1 h -8 a 1,1 0 0 1 -1,-1 v -2 a 1,1 0 0 1 1,-1 z m -5,6 h 18 a 4,4 0 0 1 4,4 v 4 a 4,4 0 0 1 -4,4 H 27 a 4,4 0 0 1 -4,-4 v -4 a 4,4 0 0 1 4,-4 z m 2.75,26 a 3.25,3.25 0 1 1 -6.5,0 3.25,3.25 0 1 1 6.5,0 z m 18.75,0 a 3.25,3.25 0 1 1 -6.5,0 3.25,3.25 0 1 1 6.5,0 z"
           id="path171" />
        <circle
           cx="33.25"
           cy="9.5"
           r="2"
           id="circle172" />
        <circle
           cx="38.75"
           cy="9.5"
           r="2"
           id="circle173" />
      </g>
    </symbol>
    <symbol
       id="AigaSymbols.svg:ArrivingFlights">
      <title
         id="title231">Arriving Flights</title>
      <g
         style="stroke:none"
         id="g232">
        <circle
           cx="34"
           cy="11"
           r="5"
           id="circle231" />
        <path
           d="m 13,9 14.5,14.5 v 41 a 3,3 0 0 0 6,0 V 42 h 1 v 22.5 a 3,3 0 0 0 6,0 V 59 H 52 V 41 H 49 V 38.5 A 1.5,1.5 0 0 0 47.5,37 H 46 V 24 A 7,7 0 0 0 39,17 H 28 L 16.5,5.5 A 2.48,2.48 0 0 0 13,9 Z m 27.5,16.5 h 1 V 41 h -1 z M 43,39 h 4 v 2 h -4 z m 10,20 h 2 a 3,3 0 0 0 3,-3 V 44 a 3,3 0 0 0 -3,-3 h -2 z"
           id="path232" />
      </g>
    </symbol>
    <symbol
       id="AigaSymbols.svg:ToiletsMen">
      <title
         id="title78">Toilets - Men</title>
      <g
         style="stroke:none"
         id="g78-7">
        <circle
           cx="36"
           cy="9"
           r="5"
           id="circle78" />
        <path
           d="m 24,22 v 15.5 a 2.25,2.25 0 0 0 4.5,0 V 23 h 1 v 39.5 a 3,3 0 0 0 6,0 V 40 h 1 v 22.5 a 3,3 0 0 0 6,0 V 23 h 1 v 14.5 a 2.25,2.25 0 0 0 4.5,0 V 22 A 7,7 0 0 0 41,15 H 31 a 7,7 0 0 0 -7,7 z"
           id="path78" />
      </g>
    </symbol>
    <symbol
       id="AigaSymbols.svg:ToiletsWomen">
      <title
         id="title80">Toilets - Women</title>
      <g
         style="stroke:none"
         id="g80">
        <circle
           cx="36"
           cy="10"
           r="5"
           id="circle80" />
        <path
           d="m 35.5,64 a 2.5,2.5 0 0 1 -5,0 V 47 H 24 l 7,-23.5 h -1 l -4.1,13.4 a 2.1,2.1 0 0 1 -4,-1.2 L 26.5,20.5 A 6.5,6.5 0 0 1 33,16 h 6 a 6.5,6.5 0 0 1 6.5,4.5 l 4.6,15.2 a 2.1,2.1 0 0 1 -4,1.2 L 42,23.5 H 41 L 48,47 h -6.5 v 17 a 2.5,2.5 0 0 1 -5,0 V 47 h -1 z"
           id="path80" />
      </g>
    </symbol>
    <symbol
       id="AigaSymbols.svg:Elevator_Inv">
      <title
         id="title75">Elevator</title>
      <rect
         x="0.5"
         y="0.5"
         width="71"
         height="71"
         ry="6"
         style="stroke:#ffffff"
         id="rect75" />
      <g
         style="fill:none;stroke:#ffffff;stroke-width:5;stroke-linecap:round;stroke-linejoin:round"
         id="g76-3">
        <!-- Arrow up -->
        <path
           d="M 26.5,23.5 V 6.5 M 20,14 26.5,6.5 33,14"
           id="path75" />
        <!-- Arrow down -->
        <path
           d="m 45.5,6.5 v 17 M 39,16 45.5,23.5 52,16"
           id="path76" />
      </g>
      <rect
         x="17"
         y="28"
         width="38"
         height="38"
         ry="5"
         style="fill:#ffffff;stroke:none"
         id="rect76" />
      <rect
         x="22"
         y="33"
         width="28"
         height="28"
         style="stroke:none"
         id="rect77" />
      <g
         id="person2"
         style="fill:#ffffff;stroke:none">
        <circle
           cx="27.5"
           cy="38.75"
           r="1.75"
           id="circle77" />
        <path
           d="m 24.5,41 a 1,1 0 0 0 -1,1 v 7 a 1,1 0 0 0 1,1 h 0.25 v 8.5 a 1.25,1.25 0 1 0 2.5,0 V 50 h 0.5 v 8.5 a 1.25,1.25 0 1 0 2.5,0 V 50 h 0.25 a 1,1 0 0 0 1,-1 v -7 a 1,1 0 0 0 -1,-1 z"
           id="path77" />
      </g>
      <use
         x="8.5"
         xlink:href="#person2"
         id="use77" />
      <use
         x="17"
         xlink:href="#person2"
         id="use78" />
    </symbol>
    <symbol
       id="AigaSymbols.svg:NoDogs_Inv">
      <title
         id="title262">No Dogs</title>
      <rect
         x="0.5"
         y="0.5"
         width="71"
         height="71"
         ry="6"
         style="stroke:#ffffff"
         id="rect262" />
      <path
         d="m 28,42 v 7 a 3,3 0 0 1 -6,0 V 34 h -2 a 2.5,2.5 0 0 1 0,-5 h 19 l 9,-9 v 5 l 6,6 c 1,1 1,3 -1,3 h -7 v 15 a 3,3 0 0 1 -6,0 v -7 z"
         style="fill:#ffffff;stroke:none"
         id="path263" />
      <path
         d="M 18,18 54,54"
         style="fill:none;stroke-width:6.25"
         id="path264" />
      <path
         d="M 18,18 54,54"
         style="fill:none;stroke:#ffffff;stroke-width:6.25"
         id="path265" />
      <circle
         cx="36"
         cy="36"
         r="24"
         style="fill:none;stroke:#ffffff;stroke-width:6"
         id="circle265" />
    </symbol>
    <symbol
       id="AigaSymbols.svg:BaggageCheckIn_Inv">
      <title
         id="title219">Baggage Check In</title>
      <rect
         x="0.5"
         y="0.5"
         width="71"
         height="71"
         ry="6"
         style="stroke:#ffffff"
         id="rect219" />
      <path
         d="m 31,14 a 3,3 0 0 0 -3,3 v 5 H 22 V 58 H 51 V 22 h -7 v -5 a 3,3 0 0 0 -3,-3 z m 0,3 h 10 v 5 H 31 Z m -16,5 a 5,5 0 0 0 -5,5 v 26 a 5,5 0 0 0 5,5 h 4 V 22 Z m 39,0 v 36 h 3 a 5,5 0 0 0 5,-5 V 27 a 5,5 0 0 0 -5,-5 z"
         style="fill:#ffffff;stroke:none"
         id="path219" />
    </symbol>
    <symbol
       id="AigaSymbols.svg:BaggageLockers_Inv">
      <title
         id="title43">Baggage Lockers</title>
      <rect
         x="0.5"
         y="0.5"
         width="71"
         height="71"
         ry="6"
         style="stroke:#ffffff"
         id="rect43-7" />
      <!-- key -->
      <path
         d="m 34.625,11 a 7.5,7.5 0 1 0 0,7 H 37 l 2.5,-2.5 2,2 2,-2 2,2 2,-2 2,2 L 52,15 c 0.5,-0.5 0.5,-1 0,-1.5 L 49.5,11 Z M 27,14.5 a 2,2 0 1 1 -4,0 2,2 0 1 1 4,0 z"
         style="fill:#ffffff;stroke:none"
         id="path44" />
      <!-- locker -->
      <rect
         x="16.5"
         y="26.5"
         width="39"
         height="32"
         style="fill:none;stroke:#ffffff;stroke-width:5"
         id="rect44" />
      <!-- bag -->
      <path
         d="M 33.5,31.5 A 1.5,1.5 0 0 0 32,33 v 2.5 h -3 v 18 h 14.5 v -18 H 40 V 33 a 1.5,1.5 0 0 0 -1.5,-1.5 z m 0,1.5 h 5 v 2.5 h -5 z m -8,2.5 A 2.5,2.5 0 0 0 23,38 v 13 a 2.5,2.5 0 0 0 2.5,2.5 h 2 v -18 z m 19.5,0 v 18 h 1.5 A 2.5,2.5 0 0 0 49,51 V 38 a 2.5,2.5 0 0 0 -2.5,-2.5 z"
         style="fill:#ffffff;stroke:none"
         id="path45" />
    </symbol>
    <symbol
       id="AigaSymbols.svg:Escalator_Inv">
      <title
         id="title47">Escalator</title>
      <rect
         x="0.5"
         y="0.5"
         width="71"
         height="71"
         ry="6"
         style="stroke:#ffffff"
         id="rect47-6" />
      <path
         d="m 55,28 c -1,0 -2,0 -3,1 L 27,54 c -2,2 -4,3 -6,3 h -9 a 6,6 0 1 1 0,-12 h 5 c 1,0 2,0 3,-1 L 45,19 c 2,-2 4,-3 6,-3 h 9 a 6,6 0 1 1 0,12 z"
         style="fill:none;stroke:#ffffff;stroke-width:4"
         id="path48" />
      <path
         d="m 27,35 9,-9 v -3 a 4.5,4.5 0 0 0 -9,0 z"
         style="fill:#ffffff;stroke:none"
         id="path49" />
      <circle
         cx="31.5"
         cy="13.5"
         r="4.5"
         style="fill:#ffffff;stroke:none"
         id="circle49" />
    </symbol>
    <symbol
       id="AigaSymbols.svg:LostAndFound_Inv">
      <title
         id="title35">Lost and Found</title>
      <rect
         x="0.5"
         y="0.5"
         width="71"
         height="71"
         ry="6"
         style="stroke:#ffffff"
         id="rect35" />
      <!-- Question Mark -->
      <path
         d="m 30.6,14.6 c 0,-3 0.6,-6.6 5.4,-6.6 2.4,0 4.8,1.8 4.8,4.2 0,2.4 -1.2,3.6 -2.4,4.2 -1.2,0.6 -2.4,1.2 -2.4,3 0,1.8 0,3.6 0,3.6 m 0,1.5 v 4"
         style="fill:none;stroke:#ffffff;stroke-width:4"
         id="path36-1" />
      <!-- Umbrella -->
      <path
         d="m 51,28 -38,8 v 2 l 38,8 v -7 h 8 a 3.5,3.5 0 0 1 0,7 2,2 0 0 0 0,4 7.5,7.5 0 0 0 0,-15 h -8 z"
         style="fill:#ffffff;stroke:none"
         id="path37" />
      <path
         d="M 12,38 H 6 a 1,1 0 0 1 0,-2 h 6 z"
         style="fill:#ffffff;stroke:none"
         id="path38" />
      <!-- Glove -->
      <path
         d="m 49.5,56 a 1.5,1.5 0 0 1 1.5,1.5 v 7 L 46,63 H 20 a 1.5,1.5 0 0 1 0,-3 H 33.5 V 59 H 20 a 1.5,1.5 0 0 1 0,-3 H 33.5 V 55 H 20 a 1.5,1.5 0 0 1 0,-3 H 33.5 V 51 H 20 a 1.5,1.5 0 0 1 0,-3 h 12 l -4.5,-1.25 a 1.85,1.85 0 0 1 1,-3.5 L 51,48 v 4.5 A 1.5,1.5 0 0 1 49.5,54 h -2 a 1,1 0 0 0 0,2 z"
         style="fill:#ffffff;stroke:none"
         id="path39" />
    </symbol>
    <symbol
       id="AigaSymbols.svg:AirTransportation_Inv">
      <title
         id="title136">Air Transportation</title>
      <rect
         x="0.5"
         y="0.5"
         width="71"
         height="71"
         ry="6"
         style="stroke:#ffffff"
         id="rect136" />
      <path
         d="m 39,10 v 18 l 25,15 v 7 L 39,41 v 14 l 6,4 v 6 l -9,-3 -9,3 v -6 l 6,-4 V 41 L 8,50 V 43 L 33,28 V 10 a 3,3 0 0 1 6,0 z"
         style="fill:#ffffff;stroke:none"
         id="path137" />
    </symbol>
    <symbol
       id="AigaSymbols.svg:Toilets_Inv">
      <title
         id="title83">Toilets</title>
      <rect
         x="0.5"
         y="0.5"
         width="71"
         height="71"
         ry="6"
         style="stroke:#ffffff"
         id="rect83" />
      <g
         style="fill:#ffffff;stroke:none"
         id="g85-5">
        <!-- Divider -->
        <rect
           x="33.5"
           y="12"
           width="5"
           height="48"
           id="rect84-9" />
        <!-- Woman -->
        <circle
           cx="19.5"
           cy="15"
           r="4"
           id="circle84" />
        <path
           d="m 19,44.5 v 14 a 2,2 0 0 1 -4,0 v -14 H 10 L 15.5,26 h -1 l -3,10.5 A 1.821,1.821 0 0 1 8,35.5 l 3.5,-12 A 5.7,4.6 0 0 1 17,20 h 5 a 5.7,4.6 0 0 1 5.5,3.5 l 3.5,12 a 1.821,1.821 0 0 1 -3.5,1 L 24.5,26 h -1 L 29,44.5 h -5 v 14 a 2,2 0 0 1 -4,0 v -14 z"
           id="path84" />
        <!-- Man -->
        <circle
           cx="52.5"
           cy="15"
           r="4"
           id="circle85" />
        <path
           d="m 43,25 v 13 a 1.75,1.75 0 0 0 3.5,0 V 26.5 h 1 v 31.75 a 2.25,2.25 0 0 0 4.5,0 V 39.5 h 1 v 18.75 a 2.25,2.25 0 0 0 4.5,0 V 26.5 h 1 V 38 A 1.75,1.75 0 0 0 62,38 V 25 a 5,5 0 0 0 -5,-5 h -9 a 5,5 0 0 0 -5,5 z"
           id="path85" />
      </g>
    </symbol>
    <symbol
       id="AigaSymbols.svg:DrinkingFountain_Inv">
      <title
         id="title103">Drinking Fountain</title>
      <rect
         x="0.5"
         y="0.5"
         width="71"
         height="71"
         ry="6"
         style="stroke:#ffffff"
         id="rect103" />
      <g
         style="fill:#ffffff;stroke:none"
         id="g119">
        <circle
           cx="45"
           cy="16"
           r="5.5"
           id="circle104" />
        <path
           d="m 34,28.5 v 5 a 2.5,2.5 0 0 0 0.75,1.75 l 6.5,6.5 a 2.475,2.475 0 0 0 3.5,-3.5 L 39,32.5 v -10 a 5.5,5.5 0 0 0 -8,-5 L 19,24 a 5,5 0 0 0 -3,5 v 32.5 a 4,4 0 0 0 8,0 v -27 z"
           id="path104" />
        <path
           d="m 54.5,45 h 7 V 29 h -17 a 2.5,2.5 0 0 0 -1.75,4.25 z"
           id="path105" />
        <!-- Water Drops -->
        <circle
           cx="47.75"
           cy="27.25"
           r="0.69999999"
           id="circle105" />
        <circle
           cx="49.5"
           cy="27.25"
           r="0.69999999"
           id="circle106" />
        <circle
           cx="47.75"
           cy="25.25"
           r="0.69999999"
           id="circle107" />
        <circle
           cx="49.75"
           cy="25.25"
           r="0.69999999"
           id="circle108" />
        <circle
           cx="48.5"
           cy="23.25"
           r="0.69999999"
           id="circle109" />
        <circle
           cx="50.75"
           cy="23.75"
           r="0.69999999"
           id="circle110" />
        <circle
           cx="49.75"
           cy="21.75"
           r="0.75"
           id="circle111" />
        <circle
           cx="51.5"
           cy="21"
           r="0.75"
           id="circle112" />
        <circle
           cx="51.5"
           cy="21"
           r="0.75"
           id="circle113" />
        <circle
           cx="52.5"
           cy="23"
           r="0.75"
           id="circle114" />
        <circle
           cx="53.75"
           cy="21"
           r="0.85000002"
           id="circle115" />
        <circle
           cx="54.25"
           cy="23.5"
           r="0.85000002"
           id="circle116" />
        <circle
           cx="55.5"
           cy="22"
           r="0.89999998"
           id="circle117" />
        <circle
           cx="55.75"
           cy="25.25"
           r="0.89999998"
           id="circle118" />
        <circle
           cx="57.25"
           cy="23.5"
           r="0.89999998"
           id="circle119" />
      </g>
    </symbol>
  </defs>
  <g
     inkscape:groupmode="layer"
     id="layer2"
     inkscape:label="(Page)"
     style="display:inline;fill:#556b2f">
    <rect
       style="fill:#ffffff;stroke-width:1;stroke-linecap:round;stroke-linejoin:round"
       id="rect5"
       width="210"
       height="297"
       x="0"
       y="0"
       inkscape:label="1" />
  </g>
  <g
     id="g24"
     inkscape:groupmode="layer"
     style="display:none"
     inkscape:label="(Guides)">
    <g
       id="g84">
      <rect
         style="fill:none;stroke:#0000ff;stroke-width:0.25"
         id="rect12"
         width="25"
         height="75"
         x="92.5"
         y="110" />
      <rect
         style="fill:none;stroke:#0000ff;stroke-width:0.25"
         id="rect13"
         width="25"
         height="25"
         x="0"
         y="85" />
      <rect
         style="fill:none;stroke:#0000ff;stroke-width:0.25"
         id="rect21"
         width="25"
         height="25"
         x="0"
         y="110" />
      <rect
         style="fill:none;stroke:#0000ff;stroke-width:0.25"
         id="rect22"
         width="25"
         height="25"
         x="0"
         y="135" />
      <rect
         style="fill:none;stroke:#0000ff;stroke-width:0.25"
         id="rect23"
         width="25"
         height="25"
         x="0"
         y="160" />
      <rect
         style="fill:none;stroke:#0000ff;stroke-width:0.25"
         id="rect24"
         width="25"
         height="25"
         x="0"
         y="185" />
      <rect
         style="fill:none;stroke:#0000ff;stroke-width:0.25;stroke-dasharray:none"
         id="rect37"
         width="210"
         height="25"
         x="0"
         y="110" />
      <rect
         style="fill:none;stroke:#0000ff;stroke-width:0.25;stroke-dasharray:none"
         id="rect38"
         width="210"
         height="25"
         x="0"
         y="135" />
      <rect
         style="fill:none;stroke:#0000ff;stroke-width:0.25"
         id="rect39"
         width="25"
         height="75"
         x="67.5"
         y="110" />
      <rect
         style="fill:none;stroke:#0000ff;stroke-width:0.25"
         id="rect41"
         width="25"
         height="75"
         x="117.5"
         y="110" />
      <rect
         style="fill:none;stroke:#0000ff;stroke-width:0.25"
         id="rect42"
         width="25"
         height="25"
         x="42.5"
         y="135" />
      <rect
         style="fill:none;stroke:#0000ff;stroke-width:0.25"
         id="rect47"
         width="25"
         height="25"
         x="142.5"
         y="135" />
      <rect
         style="fill:none;stroke:#0000ff;stroke-width:0.25"
         id="rect48"
         width="25"
         height="25"
         x="117.5"
         y="160" />
      <rect
         style="fill:none;stroke:#0000ff;stroke-width:0.25"
         id="rect49"
         width="25"
         height="25"
         x="67.5"
         y="160" />
      <rect
         style="fill:none;stroke:#0000ff;stroke-width:0.25"
         id="rect50"
         width="25"
         height="25"
         x="185"
         y="85" />
    </g>
    <g
       id="g82"
       style="display:inline">
      <rect
         style="display:inline;fill:none;stroke:#0000ff;stroke-width:0.25"
         id="rect11"
         width="210"
         height="75"
         x="0"
         y="0" />
      <g
         id="g86">
        <rect
           style="display:inline;opacity:1;fill:none;stroke:#0000ff;stroke-width:0.25;stroke-dasharray:none"
           id="rect87"
           width="210"
           height="25"
           x="0"
           y="-3.5527137e-15" />
        <rect
           style="display:inline;opacity:1;fill:none;stroke:#0000ff;stroke-width:0.25;stroke-dasharray:none"
           id="rect36"
           width="210"
           height="25"
           x="0"
           y="25" />
        <rect
           style="display:inline;opacity:1;fill:none;stroke:#0000ff;stroke-width:0.25;stroke-dasharray:none"
           id="rect84"
           width="210"
           height="25"
           x="-2.9374649e-17"
           y="50" />
      </g>
      <g
         id="g85">
        <rect
           style="display:inline;fill:none;stroke:#0000ff;stroke-width:0.25"
           id="rect20"
           width="25"
           height="25"
           x="0"
           y="25" />
        <rect
           style="display:inline;fill:none;stroke:#0000ff;stroke-width:0.25"
           id="rect43"
           width="25"
           height="25"
           x="185"
           y="25" />
      </g>
    </g>
    <g
       id="g89"
       style="display:inline">
      <rect
         style="display:inline;opacity:1;fill:none;stroke:#0000ff;stroke-width:0.25;stroke-dasharray:none"
         id="rect88"
         width="210"
         height="25"
         x="0.125"
         y="271.875" />
      <rect
         style="display:inline;opacity:1;fill:none;stroke:#0000ff;stroke-width:0.25;stroke-dasharray:none"
         id="rect89"
         width="210"
         height="25"
         x="0.125"
         y="246.875" />
    </g>
  </g>
  <g
     inkscape:label="(Content)"
     inkscape:groupmode="layer"
     id="layer1">
    <g
       id="g81"
       style="display:inline;fill:#ffffff"
       transform="translate(0.41702271,19.985016)"
       inkscape:label="Header">
      <text
         xml:space="preserve"
         style="font-weight:300;font-size:16px;line-height:1.5;font-family:'Noto Sans';-inkscape-font-specification:'Noto Sans Light';text-align:center;writing-mode:lr-tb;direction:ltr;text-anchor:middle;fill:#000000;stroke:none;stroke-width:1;stroke-dasharray:none"
         x="104.29498"
         y="31.49148"
         id="text1"
         inkscape:label="1"><tspan
           sodipodi:role="line"
           style="font-style:normal;font-variant:normal;font-weight:normal;font-stretch:normal;font-size:16px;font-family:'Noto Sans';-inkscape-font-specification:'Noto Sans';writing-mode:lr-tb;fill:#000000;stroke:none;stroke-width:1;stroke-dasharray:none"
           x="104.29498"
           y="31.49148"
           id="tspan50">svgmapviewer</tspan></text>
      <text
         xml:space="preserve"
         style="font-weight:300;font-size:5px;line-height:1.5;font-family:'Noto Sans';-inkscape-font-specification:'Noto Sans Light';text-align:center;writing-mode:lr-tb;direction:ltr;text-anchor:middle;fill:#000000;stroke:none;stroke-width:1;stroke-dasharray:none"
         x="104.62048"
         y="3.827981"
         id="text87"
         inkscape:label="2"><tspan
           sodipodi:role="line"
           style="font-style:normal;font-variant:normal;font-weight:normal;font-stretch:normal;font-size:5px;font-family:'Noto Sans';-inkscape-font-specification:'Noto Sans';writing-mode:lr-tb;fill:#000000;stroke:none;stroke-width:1;stroke-dasharray:none"
           x="104.62048"
           y="3.827981"
           id="tspan87">An opinionated interactive offline SVG map viewer</tspan></text>
    </g>
    <g
       id="g79"
       inkscape:groupmode="layer"
       inkscape:label="Message">
      <g
         id="g4"
         inkscape:label="1">
        <text
           xml:space="preserve"
           style="font-weight:300;font-size:10px;line-height:1.5;font-family:'Noto Sans';-inkscape-font-specification:'Noto Sans Light';text-align:center;writing-mode:lr-tb;direction:ltr;text-anchor:middle;display:inline;fill:#000000;stroke:none;stroke-width:0.25"
           x="105"
           y="88.5"
           id="text2"
           inkscape:label="1"><tspan
             sodipodi:role="line"
             style="font-size:10px;stroke-width:0.25;fill:#000000"
             x="105"
             y="88.5"
             id="tspan33">超高速・超軽量・超鮮明</tspan><tspan
             sodipodi:role="line"
             style="font-size:9px;stroke-width:0.25;fill:#000000"
             x="105"
             y="103.5"
             id="tspan34">スマホ・PCブラウザ両用</tspan><tspan
             sodipodi:role="line"
             style="font-size:8px;stroke-width:0.25;fill:#000000"
             x="105"
             y="118.5"
             id="tspan35">フロアマップアプリ</tspan><tspan
             sodipodi:role="line"
             style="font-size:7px;stroke-width:0.25;fill:#000000"
             x="105"
             y="133.5"
             id="tspan47">オープンソース</tspan><tspan
             sodipodi:role="line"
             style="font-size:7px;stroke-width:0.25;fill:#000000"
             x="105"
             y="148.5"
             id="tspan1">SVG</tspan></text>
      </g>
      <g
         id="g76"
         inkscape:label="2">
        <g
           id="g78"
           inkscape:label="1">
          <g
             id="g77"
             inkscape:label="1">
            <path
               style="opacity:1;fill:#000000;stroke:#000000;stroke-width:1;stroke-dasharray:none"
               d="M 92.5 160 L 25 85 l -2 2e-06 z"
               id="path36"
               sodipodi:nodetypes="cc"
               inkscape:label="1" />
            <path
               style="opacity:1;fill:#000000;stroke:#000000;stroke-width:1;stroke-dasharray:none"
               d="m 117.5 160 l 67.5 -75 l 2 -2e-06 z"
               id="path43"
               sodipodi:nodetypes="cc"
               inkscape:label="2" />
          </g>
          <g
             id="g6"
             inkscape:label="2">
            <path
               id="path47"
               style="opacity:1;fill:none;stroke:#000000;stroke-width:2;stroke-linecap:round;stroke-linejoin:round;stroke-dasharray:none"
               d="m 100 210 l 5 -20 l 5 20 m -15 -20 l 10 -15 l 10 15 m -10 -20 L 105 190 m 5 -25 c 0 2.76142 -2.23858 5 -5 5 c -2.76142 0 -5 -2.23858 -5 -5 c 0 -2.76142 2.23858 -5 5 -5 c 2.76142 0 5 2.23858 5 5 z"
               sodipodi:nodetypes="ccccccccsssss"
               inkscape:label="1" />
          </g>
        </g>
      </g>
    </g>
    <g
       id="g1"
       inkscape:label="Symbols">
      <use
         xlink:href="#AigaSymbols.svg:BaggageLockers_Inv"
         style="fill:#000000;stroke:#000000"
         id="use1-73"
         transform="matrix(0.264583,0,0,0.264583,55.475013,155.47501)"
         inkscape:label="1" />
      <use
         xlink:href="#AigaSymbols.svg:Customs_Inv"
         style="fill:#000000;stroke:#000000"
         id="use1-74"
         transform="matrix(0.264583,0,0,0.264583,35.475013,165.47501)"
         inkscape:label="2" />
      <use
         xlink:href="#AigaSymbols.svg:DrinkingFountain_Inv"
         style="fill:#000000;stroke:#000000"
         id="use1-18"
         transform="matrix(0.264583,0,0,0.264583,15.475,175.475)"
         inkscape:label="3" />
      <use
         xlink:href="#AigaSymbols.svg:CurrencyExchange_Inv"
         style="fill:#000000;stroke:#000000"
         id="use1-5"
         transform="matrix(0.264583,0,0,0.264583,15.475,195.475)"
         inkscape:label="4" />
      <use
         xlink:href="#AigaSymbols.svg:AirTransportation_Inv"
         style="fill:#000000;stroke:#000000"
         id="use1-0"
         transform="matrix(0.264583,0,0,0.264583,35.475,205.475)"
         inkscape:label="5" />
      <use
         xlink:href="#AigaSymbols.svg:BaggageCheckIn_Inv"
         style="fill:#000000;stroke:#000000"
         id="use1-66"
         transform="matrix(0.264583,0,0,0.264583,55.475,215.475)"
         inkscape:label="6" />
      <use
         xlink:href="#AigaSymbols.svg:BeautySalon_Inv"
         style="fill:#000000;stroke:#000000"
         id="use1-7"
         transform="matrix(0.264583,0,0,0.264583,75.475,220.475)"
         inkscape:label="7" />
      <use
         xlink:href="#AigaSymbols.svg:NoDogs_Inv"
         style="fill:#000000;stroke:#000000"
         id="use1-6"
         transform="matrix(0.264583,0,0,0.264583,95.475,220.475)"
         inkscape:label="8" />
      <use
         xlink:href="#AigaSymbols.svg:Shops_Inv"
         style="fill:#000000;stroke:#000000"
         id="use1-17"
         transform="matrix(0.264583,0,0,0.264583,115.475,220.475)"
         inkscape:label="9" />
      <use
         xlink:href="#AigaSymbols.svg:LostAndFound_Inv"
         style="fill:#000000;stroke:#000000"
         id="use1-98"
         transform="matrix(0.264583,0,0,0.264583,135.475,215.475)"
         inkscape:label="10" />
      <use
         xlink:href="#AigaSymbols.svg:Immigration_Inv"
         style="fill:#000000;stroke:#000000"
         id="use1"
         transform="matrix(0.264583,0,0,0.264583,155.475,205.475)"
         inkscape:label="11" />
      <use
         xlink:href="#AigaSymbols.svg:Elevator_Inv"
         style="fill:#000000;stroke:#000000"
         id="use1-4"
         transform="matrix(0.264583,0,0,0.264583,175.475,195.475)"
         inkscape:label="12" />
      <use
         xlink:href="#AigaSymbols.svg:Toilets_Inv"
         style="fill:#000000;stroke:#000000"
         id="use1-53"
         transform="matrix(0.264583,0,0,0.264583,175.475,175.475)"
         inkscape:label="13" />
      <use
         xlink:href="#AigaSymbols.svg:Heliport_Inv"
         style="fill:#000000;stroke:#000000"
         id="use1-15"
         transform="matrix(0.264583,0,0,0.264583,155.47502,165.47501)"
         inkscape:label="14" />
      <use
         xlink:href="#AigaSymbols.svg:Escalator_Inv"
         style="fill:#000000;stroke:#000000"
         id="use1-94"
         transform="matrix(0.264583,0,0,0.264583,135.47502,155.47501)"
         inkscape:label="15" />
    </g>
    <g
       id="g53"
       transform="translate(-20.124996,18.249984)"
       style="display:inline"
       inkscape:label="Footer">
      <g
         id="g52"
         transform="translate(30.293086,21.86113)"
         inkscape:label="1">
        <g
           id="g54"
           transform="translate(-28.741398,-4.8610961)"
           inkscape:label="1">
          <text
             xml:space="preserve"
             style="font-weight:300;font-size:7px;line-height:1.5;font-family:'Noto Sans';-inkscape-font-specification:'Noto Sans Light';text-align:start;writing-mode:lr-tb;direction:ltr;text-anchor:start;opacity:1;fill:#000000;stroke:#000000;stroke-width:2;stroke-linecap:round;stroke-linejoin:round;stroke-dasharray:none"
             x="103.37467"
             y="231.8165"
             id="text51"
             inkscape:label="2"><tspan
               sodipodi:role="line"
               id="tspan51"
               style="font-style:normal;font-variant:normal;font-weight:normal;font-stretch:normal;font-family:'Noto Sans';-inkscape-font-specification:'Noto Sans';fill:#000000;stroke:none;stroke-width:2"
               x="103.37467"
               y="231.8165">x.com/DaijiMaps</tspan></text>
          <g
             id="g5"
             transform="translate(88.845806,98.749982)">
            <rect
               style="fill:#000000;stroke-width:0.25;stroke-linecap:round;stroke-linejoin:round;stroke:#ffffff"
               id="rect4"
               width="10"
               height="10"
               x="0"
               y="126"
               ry="0.5" />
            <path
               d="m 7.5775706,133.57969 -2.001044,-2.95778 1.8669,-2.2016 h -0.649816 l -1.505744,1.77641 -1.2012083,-1.77641 H 2.449152 l 1.9288126,2.85115 -1.9576522,2.30823 h 0.6498167 l 1.5967605,-1.88331 1.274762,1.88331 h 1.638036 z m -3.7049602,-4.74451 2.9292022,4.32964 h -0.647436 l -2.9297309,-4.32964 h 0.6474355 z"
               id="path1"
               style="fill:#ffffff;stroke-width:0.264583" />
          </g>
        </g>
      </g>
      <g
         id="g2"
         inkscape:label="2"
         transform="translate(65,-29.999984)">
        <rect
           style="opacity:1;fill:none;stroke:#000000;stroke-width:2;stroke-linecap:round;stroke-linejoin:round;stroke-dasharray:none"
           id="rect52"
           width="80"
           height="20"
           x="20.124996"
           y="266.75"
           inkscape:label="1" />
      </g>
    </g>
  </g>
</svg>
