<?xml version="1.0" encoding="UTF-8" standalone="no"?>
<!-- Created with Inkscape (http://www.inkscape.org/) -->

<svg
   width="28mm"
   height="28mm"
   viewBox="0 0 28 28"
   version="1.1"
   id="svg1"
   inkscape:version="1.4.3 (1:1.4.3+202512261035+0d15f75042)"
   sodipodi:docname="smv-logo2.svg"
   xmlns:inkscape="http://www.inkscape.org/namespaces/inkscape"
   xmlns:sodipodi="http://sodipodi.sourceforge.net/DTD/sodipodi-0.dtd"
   xmlns="http://www.w3.org/2000/svg"
   xmlns:svg="http://www.w3.org/2000/svg">
  <sodipodi:namedview
     id="namedview1"
     pagecolor="#ffffff"
     bordercolor="#000000"
     borderopacity="0.25"
     inkscape:showpageshadow="2"
     inkscape:pageopacity="0.0"
     inkscape:pagecheckerboard="0"
     inkscape:deskcolor="#d1d1d1"
     inkscape:document-units="mm"
     showgrid="false"
     inkscape:zoom="10.980208"
     inkscape:cx="52.913386"
     inkscape:cy="52.913386"
     inkscape:window-width="2560"
     inkscape:window-height="1363"
     inkscape:window-x="0"
     inkscape:window-y="0"
     inkscape:window-maximized="1"
     inkscape:current-layer="layer1">
    <inkscape:grid
       id="grid1"
       units="mm"
       originx="0"
       originy="0"
       spacingx="0.99999997"
       spacingy="0.99999997"
       empcolor="#0099e5"
       empopacity="0.30196078"
       color="#0099e5"
       opacity="0.14901961"
       empspacing="2"
       enabled="true"
       visible="false" />
  </sodipodi:namedview>
  <defs
     id="defs1" />
  <g
     inkscape:label="SMV"
     inkscape:groupmode="layer"
     id="layer1">
    <g
       id="g24"
       inkscape:label="1">
      <path
         id="rect23"
         style="fill:#ffff00"
         d="m 8 8 L 8 17 l 5 3 L 15 20 l 5 -3 L 20 8 L 15 8 L 14 9 L 13 8 Z"
         inkscape:label="1" />
    </g>
    <g
       id="g23"
       inkscape:label="2">
      <path
         style="fill:#000000;stroke-width:1"
         id="path1"
         sodipodi:arc-type="arc"
         sodipodi:type="arc"
         sodipodi:cx="8"
         sodipodi:cy="14"
         sodipodi:rx="3"
         sodipodi:ry="2"
         sodipodi:start="4.712389"
         sodipodi:end="1.5707963"
         d="m 8,12 a 3,2 0 0 1 3,2 3,2 0 0 1 -3,2"
         inkscape:label="1"
         sodipodi:open="true" />
      <path
         style="fill:#000000;stroke-width:1"
         id="path2"
         sodipodi:arc-type="arc"
         sodipodi:type="arc"
         sodipodi:cx="20"
         sodipodi:cy="14"
         sodipodi:rx="3"
         sodipodi:ry="2"
         sodipodi:start="1.5707963"
         sodipodi:end="4.712389"
         d="m 20,16 a 3,2 0 0 1 -2.598076,-1 3,2 0 0 1 0,-2 A 3,2 0 0 1 20,12"
         inkscape:label="2"
         sodipodi:open="true" />
    </g>
    <g
       id="g22"
       inkscape:label="3">
      <ellipse
         style="fill:#000000;stroke-width:0.707107"
         id="path3"
         cx="14"
         cy="15.25"
         rx="1"
         ry="0.75"
         inkscape:label="1" />
      <ellipse
         style="fill:#000000;stroke-width:0.707107"
         id="path4"
         cx="14"
         cy="12.75"
         rx="1"
         ry="0.75"
         inkscape:label="2" />
    </g>
    <g
       id="g21"
       inkscape:label="4">
      <path
         style="fill:none;stroke:#000000;stroke-width:1"
         d="m 20 14 L 20 17 L 15 20 L 13 20 L 8 17 L 8 14 L 8 8 L 13 8 L 14 9 L 15 8 L 20 8 z"
         id="path5"
         inkscape:label="1" />
      <path
         style="fill:none;stroke:#000000;stroke-width:1"
         d="M 20 14 L 15 17 L 13 17 L 8 14 L 11 14 L 11 11 L 13 11 L 14 11.5 L 15 11 L 17 11 L 17 14 z"
         id="path6"
         sodipodi:nodetypes="cccccccccccc"
         inkscape:label="2" />
    </g>
    <g
       id="g18"
       inkscape:label="5">
      <path
         style="fill:none;stroke:#000000;stroke-width:1"
         d="M 11 13 L 14 15"
         id="path7"
         inkscape:label="1" />
      <path
         style="display:inline;fill:none;stroke:#000000;stroke-width:1"
         d="m 14 13 l 3 2"
         id="path8"
         inkscape:label="2" />
    </g>
    <g
       id="g19"
       inkscape:label="6">
      <path
         style="fill:none;stroke:#000000;stroke-width:1"
         d="M 11 14 L 11 16"
         id="path9"
         inkscape:label="1" />
      <path
         style="fill:none;stroke:#000000;stroke-width:1"
         d="M 17 14 L 17 16"
         id="path10"
         inkscape:label="2" />
    </g>
    <g
       id="g17"
       inkscape:label="7">
      <path
         style="fill:none;stroke:#ffff00;stroke-width:0.75"
         d="M 12 11.875 L 16 11.875"
         id="path11"
         sodipodi:nodetypes="cc"
         inkscape:label="1" />
      <path
         style="fill:none;stroke:#ffff00;stroke-width:0.75"
         d="m 13.25 16.125 L 14.75 16.125"
         id="path14"
         sodipodi:nodetypes="cc"
         inkscape:label="2" />
    </g>
    <g
       id="g20"
       inkscape:label="8">
      <ellipse
         style="fill:#000000;stroke-width:0.707107"
         id="ellipse13"
         cx="11.5"
         cy="11.25"
         rx="1"
         ry="0.75"
         inkscape:label="1" />
      <ellipse
         style="fill:#000000;stroke-width:0.707107"
         id="ellipse14"
         cx="16.5"
         cy="11.25"
         rx="1"
         ry="0.75"
         inkscape:label="2" />
      <ellipse
         style="fill:#000000;stroke-width:0.707107"
         id="ellipse15"
         cx="16.5"
         cy="14"
         rx="1"
         ry="0.75"
         inkscape:label="3" />
      <ellipse
         style="fill:#000000;stroke-width:0.707107"
         id="ellipse16"
         cx="11.5"
         cy="14"
         rx="1"
         ry="0.75"
         inkscape:label="4" />
    </g>
    <g
       id="g16"
       inkscape:label="9">
      <path
         style="fill:#000000;stroke:#000000;stroke-width:1"
         d="m 20 12.5 L 20 15.5 l 5 -3 z"
         id="path12"
         sodipodi:nodetypes="cccc"
         inkscape:label="1" />
      <path
         style="fill:#000000;stroke:#000000;stroke-width:1"
         d="m 8 12.5 L 3 12.5 l 5 3 z"
         id="path13"
         sodipodi:nodetypes="cccc"
         inkscape:label="2" />
    </g>
  </g>
</svg>
