<svg xmlns="http://www.w3.org/2000/svg" width="14mm" height="14mm" viewBox="0 0 14 14"><defs><clipPath id="a" clipPathUnits="userSpaceOnUse"><path d="M6 8.75h2.5V8.4L7 7.4H6Z" style="display:inline;opacity:.5;fill:#00f;stroke-width:10;stroke-linejoin:round"/></clipPath><clipPath id="b" clipPathUnits="userSpaceOnUse"><path d="M8 5.25H5.5v.35l1.5 1h1z" style="display:inline;opacity:.5;fill:#00f;stroke-width:10;stroke-linejoin:round"/></clipPath></defs><g style="display:inline"><g style="display:inline"><g style="display:inline"><path d="M1 1.5h12V7H1ZM1 7h12v3l-5 3H6l-5-3Z" style="fill:#9acd32;stroke:none;stroke-width:.132292;stroke-linecap:round;stroke-linejoin:round"/><path d="m13 10-5 3H6l-5-3V1h5l1 1 1-1h5z" style="display:inline;fill:none;stroke:#000;stroke-width:1"/></g><g style="display:inline"><path d="M9.5 5.5a4 1.5 0 0 1 4 1.5 4 1.5 0 0 1-4 1.5" style="fill:#000;stroke-width:1"/><path d="M4.5 8.5A4 1.5 0 0 1 .5 7a4 1.5 0 0 1 4-1.5" style="display:inline;fill:#000;stroke:none;stroke-width:.666999;stroke-linejoin:round"/></g></g><g style="display:inline"><g style="display:inline"><path d="M4 4v5l3 2 3-2V4Z" style="baseline-shift:baseline;display:inline;overflow:visible;vector-effect:none;fill:#fff"/><path d="M3.5 3v6l2.65 2.5h1.7L10.5 9V3H7.85L7 3.5 6.15 3Zm1 1.5h5v4l-1.65 1h-1.7l-1.65-1Z" style="baseline-shift:baseline;display:inline;overflow:visible;vector-effect:none;fill:#000"/><path d="M4 5.4v1.1l3 2 .3-.9zM7 5.5l-.3.9L10 8.6V7.5Z" style="baseline-shift:baseline;display:inline;overflow:visible;opacity:1;vector-effect:none;fill:#000"/></g><g style="display:inline"><g style="display:inline"><ellipse cx="4.5" cy="4.25" rx="1" ry=".75" style="fill:#000"/><ellipse cx="9.5" cy="4.25" rx="1" ry=".75" style="fill:#000"/><ellipse cx="9.5" cy="7" rx="1" ry=".75" style="fill:#000"/><ellipse cx="4.5" cy="7" rx="1" ry=".75" style="fill:#000"/></g><g style="display:inline"><ellipse cx="7" cy="8.25" clip-path="url(#a)" rx="1" ry=".75" style="display:inline;fill:#000"/><ellipse cx="7" cy="5.75" clip-path="url(#b)" rx="1" ry=".75" style="display:inline;fill:#000"/></g></g></g><path d="M0 0h14v14H0z" style="fill:none;stroke:none;stroke-width:.132292;stroke-linecap:round;stroke-linejoin:round"/></g></svg>