<?xml version='1.0' encoding='utf-8'?>
<svg xmlns="http://www.w3.org/2000/svg" xmlns:inkscape="http://www.inkscape.org/namespaces/inkscape" xmlns:ns1="http://sodipodi.sourceforge.net/DTD/sodipodi-0.dtd" xmlns:ns3="http://www.w3.org/1999/xlink" version="1.1" id="svg1" ns1:docname="map.svg" width="555.88959" height="300" viewBox="0 0 555.88959 300" xml:space="preserve" inkscape:version="1.4.4 (1:1.4.4+202605061436+dcaf3e7d9e)"><ns1:namedview id="namedview1" pagecolor="#888888" bordercolor="#000000" borderopacity="0.25" inkscape:showpageshadow="2" inkscape:pageopacity="0.0" inkscape:pagecheckerboard="0" inkscape:deskcolor="#d1d1d1" inkscape:document-units="px" inkscape:zoom="2.4753117" inkscape:cx="277.94479" inkscape:cy="200.17681" inkscape:window-width="2560" inkscape:window-height="1363" inkscape:window-x="0" inkscape:window-y="0" inkscape:window-maximized="1" inkscape:current-layer="g116" showgrid="true" showguides="true"><inkscape:grid id="grid1" units="px" originx="0" originy="0" spacingx="1" spacingy="1" empcolor="#0099e5" empopacity="0.30196078" color="#0099e5" opacity="0.14901961" empspacing="5" enabled="true" visible="true" /><ns1:guide position="25,220" orientation="0,-1" id="guide1" inkscape:locked="false" /><ns1:guide position="25,190" orientation="1,0" id="guide2" inkscape:locked="false" /><ns1:guide position="100,210" orientation="1,0" id="guide3" inkscape:locked="false" /><ns1:guide position="25,155" orientation="0,-1" id="guide4" inkscape:locked="false" /><ns1:guide position="25,658" orientation="0,-1" id="guide5" inkscape:locked="false" /><ns1:guide position="130,125" orientation="0,-1" id="guide6" inkscape:locked="false" /><ns1:guide position="130,125" orientation="1,0" id="guide7" inkscape:locked="false" /><ns1:guide position="205,125" orientation="1,0" id="guide8" inkscape:locked="false" /><ns1:guide position="225,105" orientation="1,0" id="guide9" inkscape:locked="false" /><ns1:guide position="240,105" orientation="1,0" id="guide10" inkscape:locked="false" /><ns1:guide position="250,175" orientation="1,0" id="guide11" inkscape:locked="false" /><ns1:guide position="265,125" orientation="1,0" id="guide12" inkscape:locked="false" /><ns1:guide position="275,105" orientation="1,0" id="guide13" inkscape:locked="false" /><ns1:guide position="310,558" orientation="1,0" id="guide14" inkscape:locked="false" /><ns1:guide position="280,155" orientation="1,0" id="guide15" inkscape:locked="false" /><ns1:guide position="345,155" orientation="1,0" id="guide16" inkscape:locked="false" /><ns1:guide position="380,155" orientation="1,0" id="guide17" inkscape:locked="false" /><ns1:guide position="415,155" orientation="1,0" id="guide18" inkscape:locked="false" /><ns1:guide position="425,165" orientation="1,0" id="guide19" inkscape:locked="false" /><ns1:guide position="445,80" orientation="1,0" id="guide20" inkscape:locked="false" /><ns1:guide position="525,80" orientation="1,0" id="guide21" inkscape:locked="false" /><ns1:guide position="280,235" orientation="0,-1" id="guide22" inkscape:locked="false" /><ns1:guide position="415,225" orientation="0,-1" id="guide23" inkscape:locked="false" /><ns1:guide position="345,200" orientation="0,-1" id="guide24" inkscape:locked="false" /><ns1:guide position="280,205" orientation="0,-1" id="guide25" inkscape:locked="false" /><ns1:guide position="130,190" orientation="0,-1" id="guide26" inkscape:locked="false" /><ns1:guide position="225,135" orientation="0,-1" id="guide27" inkscape:locked="false" /><ns1:guide position="205,105" orientation="0,-1" id="guide28" inkscape:locked="false" /><ns1:guide position="380,115" orientation="0,-1" id="guide29" inkscape:locked="false" /><ns1:guide position="415,55" orientation="0,-1" id="guide30" inkscape:locked="false" /><ns1:guide position="445,80" orientation="0,-1" id="guide31" inkscape:locked="false" /><ns1:guide position="445,145" orientation="0,-1" id="guide32" inkscape:locked="false" /><ns1:guide position="445,195" orientation="0,-1" id="guide33" inkscape:locked="false" /><ns1:guide position="515,195" orientation="1,0" id="guide34" inkscape:locked="false" /><ns1:guide position="415,10" orientation="0,-1" id="guide35" inkscape:locked="false" /><ns1:guide position="130,20" orientation="0,-1" id="guide36" inkscape:locked="false" /><ns1:guide position="10,250" orientation="0,-1" id="guide37" inkscape:locked="false" /><ns1:guide position="10,250" orientation="1,0" id="guide38" inkscape:locked="false" /><ns1:guide position="540,250" orientation="1,0" id="guide39" inkscape:locked="false" /><ns1:guide position="460,70" orientation="1,0" id="guide40" inkscape:locked="false" /><ns1:guide position="485,80" orientation="1,0" id="guide41" inkscape:locked="false" /><ns1:guide position="500,90" orientation="1,0" id="guide42" inkscape:locked="false" /><ns1:guide position="260,185" orientation="1,0" id="guide43" inkscape:locked="false" /><ns1:guide position="280,185" orientation="0,-1" id="guide44" inkscape:locked="false" /><ns1:guide position="260,170" orientation="0,-1" id="guide45" inkscape:locked="false" /><ns1:guide position="365,170" orientation="1,0" id="guide46" inkscape:locked="false" /><ns1:guide position="430,170" orientation="1,0" id="guide47" inkscape:locked="false" /><ns1:guide position="430,140" orientation="0,-1" id="guide48" inkscape:locked="false" /><ns1:guide position="120,235" orientation="1,0" id="guide49" inkscape:locked="false" /><ns1:guide position="505,235" orientation="1,0" id="guide50" inkscape:locked="false" /><ns1:guide position="435,805" orientation="1,0" id="guide51" inkscape:locked="false" /><ns1:guide position="205,959" orientation="0,-1" id="guide52" inkscape:locked="false" /><ns1:guide position="145,155" orientation="1,0" id="guide53" inkscape:locked="false" /><ns1:guide position="155,155" orientation="1,0" id="guide54" inkscape:locked="false" /><ns1:guide position="185,135" orientation="1,0" id="guide55" inkscape:locked="false" /><ns1:guide position="250,210" orientation="0,-1" id="guide56" inkscape:locked="false" /><ns1:guide position="245,20" orientation="1,0" id="guide57" inkscape:locked="false" /><ns1:guide position="235,105" orientation="1,0" id="guide58" inkscape:locked="false" /><ns1:guide position="455,155" orientation="1,0" id="guide59" inkscape:locked="false" /><ns1:guide position="515,245" orientation="0,-1" id="guide60" inkscape:locked="false" /><ns1:guide position="25,65" orientation="0,-1" id="guide61" inkscape:locked="false" /><ns1:guide position="130,160" orientation="0,-1" id="guide62" inkscape:locked="false" /><ns1:guide position="250,175" orientation="0,-1" id="guide63" inkscape:locked="false" /><ns1:guide position="425,165" orientation="0,-1" id="guide64" inkscape:locked="false" /><ns1:guide position="205,95" orientation="0,-1" id="guide65" inkscape:locked="false" /></ns1:namedview><defs id="defs1"><symbol id="AigaSymbols.svg:Elevator_Inv"><title id="title75">Elevator</title><rect x="0.5" y="0.5" width="71" height="71" ry="6" style="stroke:#ffffff" id="rect75" /><g style="fill:none;stroke:#ffffff;stroke-width:5;stroke-linecap:round;stroke-linejoin:round" id="g76"><path d="M 26.5,23.5 V 6.5 M 20,14 26.5,6.5 33,14" id="path75" /><path d="m 45.5,6.5 v 17 M 39,16 45.5,23.5 52,16" id="path76" /></g><rect x="17" y="28" width="38" height="38" ry="5" style="fill:#ffffff;stroke:none" id="rect76" /><rect x="22" y="33" width="28" height="28" style="stroke:none" id="rect77" /><g id="person2" style="fill:#ffffff;stroke:none"><circle cx="27.5" cy="38.75" r="1.75" id="circle77" /><path d="m 24.5,41 a 1,1 0 0 0 -1,1 v 7 a 1,1 0 0 0 1,1 h 0.25 v 8.5 a 1.25,1.25 0 1 0 2.5,0 V 50 h 0.5 v 8.5 a 1.25,1.25 0 1 0 2.5,0 V 50 h 0.25 a 1,1 0 0 0 1,-1 v -7 a 1,1 0 0 0 -1,-1 z" id="path77" /></g><use x="8.5" ns3:href="#person2" id="use77" /><use x="17" ns3:href="#person2" id="use78" /></symbol><symbol id="AigaSymbols.svg:StairsUp_Inv"><title id="title69">Stairs Up</title><rect x="0.5" y="0.5" width="71" height="71" ry="6" style="stroke:#ffffff" id="rect69" /><path d="m 9,56.5 h 12 v -10 h 10 v -10 h 10 v -10 h 10 v -10 h 12" style="fill:none;stroke:#ffffff;stroke-width:5" id="path70" /><path d="M 54,45 42,57 m 12,-3 v -9 h -9" style="fill:none;stroke:#ffffff;stroke-width:4;stroke-linecap:round;stroke-linejoin:round" id="path71" /></symbol><symbol id="AigaSymbols.svg:StairsDown_Inv"><title id="title65">Stairs Down</title><rect x="0.5" y="0.5" width="71" height="71" ry="6" style="stroke:#ffffff" id="rect65" /><path d="m 9,56.5 h 12 v -10 h 10 v -10 h 10 v -10 h 10 v -10 h 12" style="fill:none;stroke:#ffffff;stroke-width:5" id="path66" /><path d="M 42,57 54,45 m -12,3 v 9 h 9" style="fill:none;stroke:#ffffff;stroke-width:4;stroke-linecap:round;stroke-linejoin:round" id="path67" /></symbol><symbol id="AigaSymbols.svg:Toilets_Inv"><title id="title83">Toilets</title><rect x="0.5" y="0.5" width="71" height="71" ry="6" style="stroke:#ffffff" id="rect83" /><g style="fill:#ffffff;stroke:none" id="g85"><rect x="33.5" y="12" width="5" height="48" id="rect84" /><circle cx="19.5" cy="15" r="4" id="circle84" /><path d="m 19,44.5 v 14 a 2,2 0 0 1 -4,0 v -14 H 10 L 15.5,26 h -1 l -3,10.5 A 1.821,1.821 0 0 1 8,35.5 l 3.5,-12 A 5.7,4.6 0 0 1 17,20 h 5 a 5.7,4.6 0 0 1 5.5,3.5 l 3.5,12 a 1.821,1.821 0 0 1 -3.5,1 L 24.5,26 h -1 L 29,44.5 h -5 v 14 a 2,2 0 0 1 -4,0 v -14 z" id="path84" /><circle cx="52.5" cy="15" r="4" id="circle85" /><path d="m 43,25 v 13 a 1.75,1.75 0 0 0 3.5,0 V 26.5 h 1 v 31.75 a 2.25,2.25 0 0 0 4.5,0 V 39.5 h 1 v 18.75 a 2.25,2.25 0 0 0 4.5,0 V 26.5 h 1 V 38 A 1.75,1.75 0 0 0 62,38 V 25 a 5,5 0 0 0 -5,-5 h -9 a 5,5 0 0 0 -5,5 z" id="path85" /></g></symbol><symbol id="AigaSymbols.svg:Restaurant_Inv"><title id="title182">Restaurant</title><rect x="0.5" y="0.5" width="71" height="71" ry="6" style="stroke:#ffffff" id="rect182" /><g style="fill:#ffffff;stroke:none" id="g184"><path d="m 30,30 v 33 a 3,3 0 0 1 -6,0 V 30 A 4,4 0 0 1 20,26 V 8 a 1,1 0 0 1 2,0 v 14 h 2 V 8 a 1,1 0 0 1 2,0 v 14 h 2 V 8 a 1,1 0 0 1 2,0 v 14 h 2 V 8 a 1,1 0 0 1 2,0 v 18 a 4,4 0 0 1 -4,4 z" id="path183" /><path d="m 50,63 a 3,3 0 0 1 -6,0 V 43 H 41 V 11.5 a 4.5,4.5 0 0 1 9,0 z" id="path184" /></g></symbol><symbol id="AigaSymbols.svg:Coffeeshop_Inv"><title id="title186">Coffeeshop</title><rect x="0.5" y="0.5" width="71" height="71" ry="6" style="stroke:#ffffff" id="rect186" /><g style="fill:#ffffff;fill-rule:evenodd;stroke:none" id="g188"><path d="m 20,45 a 5,5 0 0 0 5,5 h 22 a 5,5 0 0 0 5,-5 v -1 h 1 A 10,10 0 0 0 53,24 H 20 Z M 52,28 v 12 h 1 a 6,6 0 0 0 0,-12 z" id="path187" /><path d="m 8,52 a 6,6 0 0 0 6,6 h 44 a 6,6 0 0 0 6,-6 z" id="path188" /></g></symbol><symbol id="AigaSymbols.svg:Parking_Inv"><title id="title252">Parking</title><rect x="0.5" y="0.5" width="71" height="71" ry="6" style="stroke:#ffffff" id="rect252" /><path d="M 25,60 V 15 h 14 a 12.5,12.5 0 0 1 0,25 h -9" style="fill:none;stroke:#ffffff;stroke-width:10" id="path253" /></symbol><symbol id="AigaSymbols.svg:WheelChair_Inv"><title id="title293">NPS Wheelchair Accessible</title><rect x="0.5" y="0.5" width="71" height="71" ry="6" style="stroke:#ffffff" id="rect293" /><g style="fill:#ffffff;stroke:none" id="g295"><circle cx="30" cy="11.75" r="5" id="circle293" /><path d="m 63.5,55.5 a 2.25,2.25 0 0 0 0,-4.5 h -4 L 51,36.5 C 50.48,35.61 49.5,35 48.5,35 H 36 L 35.8,31 H 45 a 2.25,2.25 0 0 0 0,-4.5 h -9.5 l -0.2,-4.3 c -0.18,-2.6 -2.2,-4.75 -4.9,-4.6 -2.7,0.15 -5,2.5 -4.8,5.1 L 26.45,38 c 0.2,2.6 2.45,4.5 5.05,4.5 H 48 L 54.5,54 c 0.25,0.5 1.3,1.5 2.5,1.5 z" id="path294" /><path d="M 23.2,29 A 19,19 0 1 0 50.9,52.5 L 48.2,48 A 15,15 0 1 1 23.5,33.8 Z" id="path295" /></g></symbol><symbol id="AigaSymbols.svg:Smoking_Inv"><title id="title236">Smoking</title><rect x="0.5" y="0.5" width="71" height="71" ry="6" style="stroke:#ffffff" id="rect236" /><rect x="8" y="46" height="8" width="48" style="fill:#ffffff;stroke:none" id="rect237" /><rect x="57.75" y="46" width="2.5" height="8" style="fill:#ffffff;stroke:none" id="rect238" /><rect x="61.75" y="46" width="2.5" height="8" style="fill:#ffffff;stroke:none" id="rect239" /><path d="m 59,44 v -5 a 3.5,3.5 0 0 0 -3.5,-3.5 h -9 A 5,5 0 0 1 42,28 6.5,6.5 0 0 1 42,15" style="fill:none;stroke:#ffffff;stroke-width:2.5" id="path239" /><path d="M 63,44 V 38 A 9,9 0 0 0 54,29 H 49 A 6.5,6.5 0 0 0 44,18" style="fill:none;stroke:#ffffff;stroke-width:2.5" id="path240" /></symbol><symbol id="AigaSymbols.svg:Nursery_Inv"><title id="title86">Nursery</title><rect x="0.5" y="0.5" width="71" height="71" ry="6" style="stroke:#ffffff" id="rect86" /><g style="fill:#ffffff;stroke:none" id="g87"><circle cx="36" cy="15.75" r="7.5" id="circle87" /><path d="M 28,39.5 V 34 l -6,6 a 2.475,2.475 0 0 1 -3.5,-3.5 l 10,-10 c 1,-1 1.5,-1.5 3,-1.5 h 9 c 1.5,0 2,0.5 3,1.5 l 10,10 A 2.475,2.475 0 0 1 50,40 l -6,-6 v 5.5 z" id="path87" /><path id="leg2" d="M 34,48.5 29.5,53 34,57.5 A 2.475,2.475 0 0 1 30.5,61 L 23,53.5 a 4.2,4.2 0 0 1 0,-6 l 5,-5 z" /><use ns3:href="#leg2" transform="matrix(-1,0,0,1,72,0)" id="use87" /></g></symbol></defs><g id="g6" inkscape:groupmode="layer" inkscape:label="B1F" style="display:initial" ns1:insensitive="true"><g id="g37" inkscape:label="Content" inkscape:groupmode="layer" ns1:insensitive="true"><rect style="fill:none;stroke:none;stroke-width:1;stroke-linecap:square;stroke-dasharray:none" id="use37" width="555.88959" height="300" x="0" y="0" inkscape:label="(ViewBox)" /><g id="g36" inkscape:label="(Spaces)" inkscape:groupmode="layer"><g id="g57" style="display:inline;opacity:1" inkscape:label="1"><path id="path30" style="opacity:1;fill:#ffffff;stroke:none;stroke-width:1;stroke-linecap:square;stroke-dasharray:none" d="m 100,95 v 150 h 295 v 35 h 70 l 60,-60 V 150 L 505,130 H 430 V 95 Z m 330,60 h 65 l 5,5 v 50 l -10,10 h -5 v -50 l -10,-10 h -45 z" inkscape:label="1" /><path style="fill:none;stroke:#000000;stroke-width:2;stroke-linecap:square;stroke-dasharray:none" d="m 460,185 v 45 l -15,15 H 100 V 95 h 330 v 35 h 74.99999 l 20,20 10e-6,70 -60,60 h -70" id="path38" ns1:nodetypes="cccccccccccc" inkscape:label="2" /><path style="fill:none;stroke:#000000;stroke-width:2;stroke-linecap:square;stroke-dasharray:none" d="m 430,155 h 65 l 5,5 -10e-6,50 -10,10 h -5 L 485,170 475,160 h -45 z" id="path39" ns1:nodetypes="cccccccccc" inkscape:label="3" /></g><g id="g48" inkscape:label="2"><rect style="fill:none;stroke:#000000;stroke-width:1;stroke-linecap:square;stroke-dasharray:none" id="rect41" width="20" height="35" x="240" y="95" inkscape:label="1" /><path style="fill:none;stroke:#000000;stroke-width:1;stroke-linecap:square;stroke-dasharray:none" d="m 295,130 h 70 l 0.12,-35" id="path41" inkscape:label="2" /></g><g id="g47" inkscape:label="3"><path style="fill:none;stroke:#808080;stroke-width:0.5;stroke-linecap:square;stroke-dasharray:none" d="m 425,240 v -20 m -15,20 v -20 m -15,20 v -20 m -15,20 v -20 m -15,20 v -20 m -15,20 v -20 m -15,20 v -20 m -15,20 v -20 m -15,20 v -20 m -15,20 v -20 m -15,20 v -20 m -15,20 v -20 m -15,20 v -20 m -15,20 v -20 m -15,20 v -20 m -15,20 v -20 m -15,20 v -20 m -15,20 v -20 m -15,20 v -20 m -15,20 v -20 m -15,20 v -20 m -15,20 v -20" id="path42" ns1:nodetypes="cccccccccccccccccccccccccccccccccccccccccccc" inkscape:label="1" /><path style="fill:none;stroke:#808080;stroke-width:0.499999;stroke-linecap:square;stroke-dasharray:none" d="m 395,170 v -20 m -15,20 v -20 m -15,20 v -20 m -15,20 v -20 m -15,20 v -20 m -15,20 v -20 m -15,20 v -20" id="path45" ns1:nodetypes="cccccccccccccc" inkscape:label="2" /><path style="fill:none;stroke:#808080;stroke-width:0.499999;stroke-linecap:square;stroke-dasharray:none" d="m 430,185 h 30 m -30,15 h 30 m -30,15 h 30" id="path47" ns1:nodetypes="cccccc" inkscape:label="3" /><path style="display:inline;opacity:1;fill:none;stroke:#808080;stroke-width:0.499999;stroke-linecap:square;stroke-dasharray:none" d="m 230,130 v -30 m -15,30 v -30 m -15,30 v -30 m -15,30 v -30 m -15,30 v -30 m -15,30 v -30 m -15,30 v -30 m -15,30 v -30 m -15,30 v -30" id="path52" inkscape:label="4" /><path style="display:inline;opacity:1;fill:none;stroke:#808080;stroke-width:0.499999;stroke-linecap:square;stroke-dasharray:none" d="m 395,200 v -20 m -15,20 v -20 m -15,20 v -20 m -15,20 v -20 m -15,20 v -20 m -15,20 v -20 m -15,20 v -20 m -15,20 v -20 m -15,20 v -20 m -15,20 v -20 m -15,20 v -20 m -15,20 v -20" id="path49" ns1:nodetypes="cccccccccccccccccccccccc" inkscape:label="5" /><path style="display:inline;opacity:1;fill:none;stroke:#808080;stroke-width:0.499999;stroke-linecap:square;stroke-dasharray:none" d="m 200,200 v -20 m -15,20 v -20 m -15,20 v -20 m -15,20 v -20 m -15,20 v -20 m -15,20 v -20" id="path50" inkscape:label="6" /><path style="display:inline;opacity:1;fill:none;stroke:#808080;stroke-width:0.499999;stroke-linecap:square;stroke-dasharray:none" d="m 125,170 v -20 m 15,20 v -20 m 15,20 v -20 m 15,20 v -20 m 15,20 v -20 m 15,20 v -20 m 15,20 v -20 m 15,20 v -20 m 15,20 v -20 m 15,20 v -20 m 15,20 v -20" id="path51" inkscape:label="7" /></g></g><g id="g58" inkscape:label="(Barriers)" inkscape:groupmode="layer"><g id="use53" inkscape:label="(Elevators)" style="display:inline"><rect style="fill:#ffffff;stroke:#000000;stroke-width:1;stroke-linecap:square;stroke-dasharray:none" id="rect43" width="20" height="20" x="205" y="175" inkscape:label="1" /><rect style="fill:#ffffff;stroke:#000000;stroke-width:1;stroke-linecap:square;stroke-dasharray:none" id="rect44" width="20" height="20" x="260" y="95" inkscape:label="2" /></g></g><g id="g30" inkscape:label="(Facilities)" style="display:inline"><g id="g29" inkscape:label="(Elevators)"><g id="use28" inkscape:label="(Elevator)" transform="translate(270,105)"><use ns3:href="#AigaSymbols.svg:Elevator_Inv" style="fill:#000000;stroke:#000000" id="use49" transform="matrix(0.1,0,0,0.1,-3.6,-3.6)" inkscape:label="1" /></g><g id="use29" inkscape:label="(Elevator)" transform="translate(215,185)"><use ns3:href="#AigaSymbols.svg:Elevator_Inv" style="fill:#000000;stroke:#000000" id="use50" transform="matrix(0.1,0,0,0.1,-3.6,-3.6)" inkscape:label="1" /></g></g></g></g></g></svg>