<?xml version="1.0" encoding="UTF-8" standalone="no"?>
<!-- Created with Inkscape (http://www.inkscape.org/) -->

<svg
   width="249mm"
   height="214mm"
   viewBox="0 0 249 214"
   version="1.1"
   id="svg1"
   xml:space="preserve"
   xmlns:xlink="http://www.w3.org/1999/xlink"
   xmlns="http://www.w3.org/2000/svg"
   xmlns:svg="http://www.w3.org/2000/svg"><defs
     id="defs1"><style
       id="style1"><![CDATA[@import url("https://fonts.googleapis.com/css2?family=Noto+Sans+JP:wght@200&display=swap");
.floor, text, tspan { font-family: 'Noto Sans', sans-serif; }]]></style><symbol
       id="AigaSymbols.svg:Elevator_Inv"><title
         id="title75">Elevator</title><rect
         x="0.5"
         y="0.5"
         width="71"
         height="71"
         ry="6"
         style="stroke:#ffffff"
         id="rect75" /><g
         style="fill:none;stroke:#ffffff;stroke-width:5;stroke-linecap:round;stroke-linejoin:round"
         id="g76"><!-- Arrow up --><path
           d="M 26.5,23.5 V 6.5 M 20,14 26.5,6.5 33,14"
           id="path75" /><!-- Arrow down --><path
           d="m 45.5,6.5 v 17 M 39,16 45.5,23.5 52,16"
           id="path76" /></g><rect
         x="17"
         y="28"
         width="38"
         height="38"
         ry="5"
         style="fill:#ffffff;stroke:none"
         id="rect76" /><rect
         x="22"
         y="33"
         width="28"
         height="28"
         style="stroke:none"
         id="rect77" /><g
         id="person2"
         style="fill:#ffffff;stroke:none"><circle
           cx="27.5"
           cy="38.75"
           r="1.75"
           id="circle77" /><path
           d="m 24.5,41 a 1,1 0 0 0 -1,1 v 7 a 1,1 0 0 0 1,1 h 0.25 v 8.5 a 1.25,1.25 0 1 0 2.5,0 V 50 h 0.5 v 8.5 a 1.25,1.25 0 1 0 2.5,0 V 50 h 0.25 a 1,1 0 0 0 1,-1 v -7 a 1,1 0 0 0 -1,-1 z"
           id="path77" /></g><use
         x="8.5"
         xlink:href="#person2"
         id="use77" /><use
         x="17"
         xlink:href="#person2"
         id="use78" /></symbol><symbol
       id="AigaSymbols.svg:Escalator_Inv"><title
         id="title47">Escalator</title><rect
         x="0.5"
         y="0.5"
         width="71"
         height="71"
         ry="6"
         style="stroke:#ffffff"
         id="rect47" /><path
         d="m 55,28 c -1,0 -2,0 -3,1 L 27,54 c -2,2 -4,3 -6,3 h -9 a 6,6 0 1 1 0,-12 h 5 c 1,0 2,0 3,-1 L 45,19 c 2,-2 4,-3 6,-3 h 9 a 6,6 0 1 1 0,12 z"
         style="fill:none;stroke:#ffffff;stroke-width:4"
         id="path48" /><path
         d="m 27,35 9,-9 v -3 a 4.5,4.5 0 0 0 -9,0 z"
         style="fill:#ffffff;stroke:none"
         id="path49" /><circle
         cx="31.5"
         cy="13.5"
         r="4.5"
         style="fill:#ffffff;stroke:none"
         id="circle49" /></symbol><symbol
       id="AigaSymbols.svg:Information_Inv"><title
         id="title126">Information</title><rect
         x="0.5"
         y="0.5"
         width="71"
         height="71"
         ry="6"
         style="stroke:#ffffff"
         id="rect127" /><circle
         cx="36"
         cy="36"
         r="24"
         style="fill:none;stroke:#ffffff;stroke-width:6"
         id="circle127" /><path
         d="m 27,32 c 0,-5 1,-11 9,-11 4,0 8,3 8,7 0,4 -2,6 -4,7 -2,1 -4,2 -4,5 0,3 0,6 0,6"
         style="fill:none;stroke:#ffffff;stroke-width:6"
         id="path127" /><rect
         x="33"
         y="48"
         width="6"
         height="6"
         style="fill:#ffffff;stroke:none"
         id="rect128" /></symbol><symbol
       id="AigaSymbols.svg:Cashier_Inv"><title
         id="title28">Cashier</title><rect
         x="0.5"
         y="0.5"
         width="71"
         height="71"
         ry="6"
         style="stroke:#ffffff"
         id="rect28-0" /><g
         style="fill:none;stroke:#ffffff;stroke-width:6"
         id="g29"><circle
           cx="36"
           cy="36"
           r="24"
           id="circle29" /><path
           d="m 45,30 c 0,-4 -4,-6 -9,-6 -5,0 -9,2 -9,6 0,4 4,5.5 9,6 5,0.5 10,1 10,6 0,5 -5,6 -10,6 -5,0 -9,-3 -9,-7 m 9,-24 v 38"
           id="path29" /></g></symbol><symbol
       id="AigaSymbols.svg:ToiletsWomen_Inv"><title
         id="title81">Toilets - Women</title><rect
         x="0.5"
         y="0.5"
         width="71"
         height="71"
         ry="6"
         style="stroke:#ffffff"
         id="rect81" /><g
         style="fill:#ffffff;stroke:none"
         id="g81"><circle
           cx="36"
           cy="10"
           r="5"
           id="circle81" /><path
           d="m 35.5,64 a 2.5,2.5 0 0 1 -5,0 V 47 H 24 l 7,-23.5 h -1 l -4.1,13.4 a 2.1,2.1 0 0 1 -4,-1.2 L 26.5,20.5 A 6.5,6.5 0 0 1 33,16 h 6 a 6.5,6.5 0 0 1 6.5,4.5 l 4.6,15.2 a 2.1,2.1 0 0 1 -4,1.2 L 42,23.5 H 41 L 48,47 h -6.5 v 17 a 2.5,2.5 0 0 1 -5,0 V 47 h -1 z"
           id="path81" /></g></symbol><symbol
       id="AigaSymbols.svg:ToiletsMen_Inv"><title
         id="title79">Toilets - Men</title><rect
         x="0.5"
         y="0.5"
         width="71"
         height="71"
         ry="6"
         style="stroke:#ffffff"
         id="rect79" /><g
         style="fill:#ffffff;stroke:none"
         id="g79"><circle
           cx="36"
           cy="9"
           r="5"
           id="circle79" /><path
           d="m 24,22 v 15.5 a 2.25,2.25 0 0 0 4.5,0 V 23 h 1 v 39.5 a 3,3 0 0 0 6,0 V 40 h 1 v 22.5 a 3,3 0 0 0 6,0 V 23 h 1 v 14.5 a 2.25,2.25 0 0 0 4.5,0 V 22 A 7,7 0 0 0 41,15 H 31 a 7,7 0 0 0 -7,7 z"
           id="path79" /></g></symbol><symbol
       id="AigaSymbols.svg:Stairs_Inv"><title
         id="title62">Stairs</title><rect
         x="0.5"
         y="0.5"
         width="71"
         height="71"
         ry="6"
         style="stroke:#ffffff"
         id="rect62" /><path
         d="m 9,56.5 h 12 v -10 h 10 v -10 h 10 v -10 h 10 v -10 h 12"
         style="fill:none;stroke:#ffffff;stroke-width:5"
         id="path63" /></symbol><symbol
       id="AigaSymbols.svg:Toilets_Inv"><title
         id="title83">Toilets</title><rect
         x="0.5"
         y="0.5"
         width="71"
         height="71"
         ry="6"
         style="stroke:#ffffff"
         id="rect83" /><g
         style="fill:#ffffff;stroke:none"
         id="g85"><!-- Divider --><rect
           x="33.5"
           y="12"
           width="5"
           height="48"
           id="rect84" /><!-- Woman --><circle
           cx="19.5"
           cy="15"
           r="4"
           id="circle84" /><path
           d="m 19,44.5 v 14 a 2,2 0 0 1 -4,0 v -14 H 10 L 15.5,26 h -1 l -3,10.5 A 1.821,1.821 0 0 1 8,35.5 l 3.5,-12 A 5.7,4.6 0 0 1 17,20 h 5 a 5.7,4.6 0 0 1 5.5,3.5 l 3.5,12 a 1.821,1.821 0 0 1 -3.5,1 L 24.5,26 h -1 L 29,44.5 h -5 v 14 a 2,2 0 0 1 -4,0 v -14 z"
           id="path84" /><!-- Man --><circle
           cx="52.5"
           cy="15"
           r="4"
           id="circle85" /><path
           d="m 43,25 v 13 a 1.75,1.75 0 0 0 3.5,0 V 26.5 h 1 v 31.75 a 2.25,2.25 0 0 0 4.5,0 V 39.5 h 1 v 18.75 a 2.25,2.25 0 0 0 4.5,0 V 26.5 h 1 V 38 A 1.75,1.75 0 0 0 62,38 V 25 a 5,5 0 0 0 -5,-5 h -9 a 5,5 0 0 0 -5,5 z"
           id="path85" /></g></symbol><symbol
       id="AigaSymbols.svg:Nursery_Inv"><title
         id="title86">Nursery</title><rect
         x="0.5"
         y="0.5"
         width="71"
         height="71"
         ry="6"
         style="stroke:#ffffff"
         id="rect86" /><g
         style="fill:#ffffff;stroke:none"
         id="g87"><circle
           cx="36"
           cy="15.75"
           r="7.5"
           id="circle87" /><path
           d="M 28,39.5 V 34 l -6,6 a 2.475,2.475 0 0 1 -3.5,-3.5 l 10,-10 c 1,-1 1.5,-1.5 3,-1.5 h 9 c 1.5,0 2,0.5 3,1.5 l 10,10 A 2.475,2.475 0 0 1 50,40 l -6,-6 v 5.5 z"
           id="path87" /><path
           id="leg2"
           d="M 34,48.5 29.5,53 34,57.5 A 2.475,2.475 0 0 1 30.5,61 L 23,53.5 a 4.2,4.2 0 0 1 0,-6 l 5,-5 z" /><use
           xlink:href="#leg2"
           transform="matrix(-1,0,0,1,72,0)"
           id="use87" /></g></symbol><symbol
       id="AigaSymbols.svg:FirstAid_Inv"><title
         id="title30">First Aid</title><rect
         x="0.5"
         y="0.5"
         width="71"
         height="71"
         ry="6"
         style="stroke:#ffffff"
         id="rect30-4" /><path
         d="M 44,13 V 28 H 59 V 44 H 44 V 59 H 28 V 44 H 13 V 28 H 28 V 13 Z"
         style="fill:#ffffff;stroke:none"
         id="path31" /></symbol><symbol
       id="AigaSymbols.svg:Coffeeshop_Inv"><title
         id="title186">Coffeeshop</title><rect
         x="0.5"
         y="0.5"
         width="71"
         height="71"
         ry="6"
         style="stroke:#ffffff"
         id="rect186-0" /><g
         style="fill:#ffffff;fill-rule:evenodd;stroke:none"
         id="g188-3"><path
           d="m 20,45 a 5,5 0 0 0 5,5 h 22 a 5,5 0 0 0 5,-5 v -1 h 1 A 10,10 0 0 0 53,24 H 20 Z M 52,28 v 12 h 1 a 6,6 0 0 0 0,-12 z"
           id="path187" /><path
           d="m 8,52 a 6,6 0 0 0 6,6 h 44 a 6,6 0 0 0 6,-6 z"
           id="path188-6" /></g></symbol><symbol
       id="AigaSymbols.svg:EscalatorDown_Inv"><title
         id="title52">Escalator Down</title><rect
         x="0.5"
         y="0.5"
         width="71"
         height="71"
         ry="6"
         style="stroke:#ffffff"
         id="rect52" /><path
         d="m 55,28 c -1,0 -2,0 -3,1 L 27,54 c -2,2 -4,3 -6,3 h -9 a 6,6 0 1 1 0,-12 h 5 c 1,0 2,0 3,-1 L 45,19 c 2,-2 4,-3 6,-3 h 9 a 6,6 0 1 1 0,12 z"
         style="fill:none;stroke:#ffffff;stroke-width:4"
         id="path53" /><path
         d="m 27,35 9,-9 v -3 a 4.5,4.5 0 0 0 -9,0 z"
         style="fill:#ffffff;stroke:none"
         id="path54" /><circle
         cx="31.5"
         cy="13.5"
         r="4.5"
         style="fill:#ffffff;stroke:none"
         id="circle54" /><path
         d="M 42,57 54,45 m -12,3 v 9 h 9"
         style="fill:none;stroke:#ffffff;stroke-width:4;stroke-linecap:round;stroke-linejoin:round"
         id="path55" /></symbol><symbol
       id="AigaSymbols.svg:EscalatorUp_Inv"><title
         id="title58">Escalator Up</title><rect
         x="0.5"
         y="0.5"
         width="71"
         height="71"
         ry="6"
         style="stroke:#ffffff"
         id="rect58" /><path
         d="m 55,28 c -1,0 -2,0 -3,1 L 27,54 c -2,2 -4,3 -6,3 h -9 a 6,6 0 1 1 0,-12 h 5 c 1,0 2,0 3,-1 L 45,19 c 2,-2 4,-3 6,-3 h 9 a 6,6 0 1 1 0,12 z"
         style="fill:none;stroke:#ffffff;stroke-width:4"
         id="path59" /><path
         d="m 27,35 9,-9 v -3 a 4.5,4.5 0 0 0 -9,0 z"
         style="fill:#ffffff;stroke:none"
         id="path60" /><circle
         cx="31.5"
         cy="13.5"
         r="4.5"
         style="fill:#ffffff;stroke:none"
         id="circle60" /><path
         d="M 54,45 42,57 m 12,-3 v -9 h -9"
         style="fill:none;stroke:#ffffff;stroke-width:4;stroke-linecap:round;stroke-linejoin:round"
         id="path61" /></symbol><symbol
       id="AigaSymbols.svg:StairsDown_Inv"><title
         id="title65">Stairs Down</title><rect
         x="0.5"
         y="0.5"
         width="71"
         height="71"
         ry="6"
         style="stroke:#ffffff"
         id="rect65" /><path
         d="m 9,56.5 h 12 v -10 h 10 v -10 h 10 v -10 h 10 v -10 h 12"
         style="fill:none;stroke:#ffffff;stroke-width:5"
         id="path66" /><path
         d="M 42,57 54,45 m -12,3 v 9 h 9"
         style="fill:none;stroke:#ffffff;stroke-width:4;stroke-linecap:round;stroke-linejoin:round"
         id="path67" /></symbol><symbol
       id="AigaSymbols.svg:StairsUp_Inv"><title
         id="title69">Stairs Up</title><rect
         x="0.5"
         y="0.5"
         width="71"
         height="71"
         ry="6"
         style="stroke:#ffffff"
         id="rect69" /><path
         d="m 9,56.5 h 12 v -10 h 10 v -10 h 10 v -10 h 10 v -10 h 12"
         style="fill:none;stroke:#ffffff;stroke-width:5"
         id="path70" /><path
         d="M 54,45 42,57 m 12,-3 v -9 h -9"
         style="fill:none;stroke:#ffffff;stroke-width:4;stroke-linecap:round;stroke-linejoin:round"
         id="path71" /></symbol></defs><g
     id="layer7"
     class="floor"
     transform="translate(-23,2)"><g
       id="g72"
       style="display:inline;opacity:1"><g
         id="g100"><g
           id="g2"
           style="display:inline"><path
             id="path1"
             style="fill:#808080;stroke:#000000;stroke-width:4;stroke-dasharray:none"
             d="M 140,0 V 40 H 25 v 125 45 h 25 15 25 10 25 10 30 15 35 10 25 20 V 165 0 h -55 -55 z" /></g><g
           id="g3"
           style="display:inline;opacity:1"><path
             id="path2"
             style="opacity:1;fill:#ffffff;stroke:#ffffff"
             d="M 150,40 V 65 H 50 v 95 h 85 v 45 h 30 V 185 H 270 V 120 H 255 V 70 H 215 V 40 Z" /></g><g
           id="g16"
           style="display:inline;opacity:1;fill:#f0e68c"><rect
             style="opacity:1;fill:#f0e68c;stroke:#ffffff;stroke-width:1;stroke-dasharray:none"
             id="rect3"
             width="30"
             height="20"
             x="95"
             y="105" /><rect
             style="opacity:1;fill:#f0e68c;stroke:#ffffff;stroke-width:1;stroke-dasharray:none"
             id="rect4"
             width="50"
             height="25"
             x="135"
             y="65" /><rect
             style="opacity:1;fill:#f0e68c;stroke:#ffffff;stroke-width:1;stroke-dasharray:none"
             id="rect5"
             width="45"
             height="25"
             x="210"
             y="65" /><path
             id="path5"
             style="opacity:1;stroke:#ffffff"
             d="m 25,65 v 35 h 0.36 L 25,105 v 40 40 h 120 v -40 h 10 v -40 -5 H 130 V 65 H 53 Z" /><rect
             style="opacity:1;fill:#f0e68c;stroke:#ffffff;stroke-width:1;stroke-dasharray:none"
             id="rect7"
             width="45"
             height="50"
             x="195"
             y="100" /><rect
             style="opacity:1;fill:#f0e68c;stroke:#ffffff;stroke-width:1;stroke-dasharray:none"
             id="rect13"
             width="14.999759"
             height="30"
             x="255"
             y="125" /><rect
             style="opacity:1;fill:#f0e68c;stroke:#ffffff;stroke-width:1;stroke-dasharray:none"
             id="rect14"
             width="62.499542"
             height="29.997831"
             x="155"
             y="155" /><rect
             style="opacity:1;fill:#f0e68c;stroke:#ffffff;stroke-width:1;stroke-dasharray:none"
             id="rect15"
             width="50"
             height="29.999998"
             x="220"
             y="155" /><rect
             style="opacity:1;fill:#f0e68c;stroke:#ffffff;stroke-width:1;stroke-dasharray:none"
             id="rect72"
             width="34.5"
             height="25.5"
             x="215.5"
             y="14.5" /></g><g
           id="g19"
           style="display:inline;opacity:1;fill:none"><path
             id="path17"
             style="fill:none;stroke:#000000;stroke-width:2;stroke-dasharray:none"
             d="M 150,40 V 65 H 70 25 v 120 h 60 v 0 h 50 v 20 h 30 v -20 h 60 25 20 V 145 120 H 255 V 65 H 215 V 40 Z" /></g></g><g
         id="g22"><g
           id="g20"><g
             id="use19"
             style="display:inline"><rect
               style="fill:#c0c0c0;stroke:none;stroke-width:2;stroke-dasharray:none"
               id="rect445"
               width="24.000002"
               height="38"
               x="158"
               y="106" /><g
               id="g452"><path
                 style="fill:none;stroke:#ffffff;stroke-width:0.25;stroke-dasharray:none"
                 d="m 158,143 h 24 m -24,-2 h 24 m -24,-2 h 24 m -24,-2 h 24 m -24,-2 h 24 m -24,-2 h 24 m -24,-2 h 24 m -24,-2 h 24 m -24,-2 h 24 m -24,-2 h 24 m -24,-2 h 24 m -24,-2 h 24 m -24,-2 h 24 m -24,-2 h 24 m -24,-2 h 24 m -24,-2 h 24 m -24,-2 h 24 m -24,-2 h 24 m -24,-2 h 24"
                 id="path445" /><path
                 style="display:inline;fill:#f0e68c;stroke:#000000;stroke-width:1;stroke-dasharray:none"
                 d="M 182,125 H 158"
                 id="path446" /><path
                 style="opacity:1;fill:none;stroke:#000000;stroke-width:1;stroke-dasharray:none"
                 d="m 158,145 v -40 m 6,40 v -40 m 6,40 v -40 m 6,40 v -40 m 6,40 v -40"
                 id="path447" /><path
                 style="opacity:1;fill:none;stroke:#000000;stroke-width:1;stroke-dasharray:none"
                 d="M 157,145 V 105"
                 id="path448" /><path
                 style="opacity:1;fill:none;stroke:#000000;stroke-width:1;stroke-dasharray:none"
                 d="M 183,145 V 105"
                 id="path451" /></g></g></g><g
           id="g21"><g
             id="use20"
             style="display:inline"><path
               style="opacity:1;fill:none;stroke:#000000;stroke-width:0.25;stroke-dasharray:none"
               d="m 165,186 h -30 m 30,2 h -30 m 30,2 h -30 m 30,2 h -30 m 30,2 h -30 m 30,2 h -30 m 30,2 h -30 m 30,2 h -30 m 30,2 h -30 m 30,2 h -30"
               id="path384" /><path
               style="fill:none;stroke:#000000;stroke-width:1;stroke-dasharray:none"
               d="m 165,185 v 20 m -15,-20 v 20 m -15,-20 v 20"
               id="path385" /></g><g
             id="use21"
             style="display:inline"><path
               style="opacity:1;fill:none;stroke:#000000;stroke-width:0.25;stroke-dasharray:none"
               d="m 190,59 h 25 m -25,-2 h 25 m -25,-2 h 25 m -25,-2 h 25 m -25,-2 h 25 m -25,-2 h 25 m -25,-2 h 25 m -25,-2 h 25 m -25,-2 h 25 m -25,-2 h 25"
               id="path402" /><path
               style="fill:none;stroke:#000000;stroke-width:1;stroke-dasharray:none"
               d="M 190,60 V 40 m 12.5,20 V 40 M 215,60 V 40"
               id="path403" /></g></g></g><g
         id="g111"
         style="display:inline;opacity:1"><g
           id="g101"
           style="display:inline;opacity:1"><g
             id="use98"
             transform="matrix(0.1,0,0,0.1,51.4,161.4)"><title
               id="title162">Cashier</title><rect
               x="0.5"
               y="0.5"
               width="71"
               height="71"
               ry="6"
               style="stroke:#ffffff"
               id="rect162" /><g
               style="fill:none;stroke:#ffffff;stroke-width:6"
               id="g162"><circle
                 cx="36"
                 cy="36"
                 r="24"
                 id="circle162" /><path
                 d="m 45,30 c 0,-4 -4,-6 -9,-6 -5,0 -9,2 -9,6 0,4 4,5.5 9,6 5,0.5 10,1 10,6 0,5 -5,6 -10,6 -5,0 -9,-3 -9,-7 m 9,-24 v 38"
                 id="path162" /></g></g></g><g
           id="g102"
           style="display:inline;opacity:1"><g
             id="use101"
             style="display:inline"><g
               id="g519"
               transform="matrix(0.1,0,0,0.1,256.4,108.4)"><title
                 id="title515">Elevator</title><rect
                 x="0.5"
                 y="0.5"
                 width="71"
                 height="71"
                 ry="6"
                 style="stroke:#ffffff"
                 id="rect515" /><g
                 style="fill:none;stroke:#ffffff;stroke-width:5;stroke-linecap:round;stroke-linejoin:round"
                 id="g516"><!-- Arrow up --><path
                   d="M 26.5,23.5 V 6.5 M 20,14 26.5,6.5 33,14"
                   id="path515" /><!-- Arrow down --><path
                   d="m 45.5,6.5 v 17 M 39,16 45.5,23.5 52,16"
                   id="path516" /></g><rect
                 x="17"
                 y="28"
                 width="38"
                 height="38"
                 ry="5"
                 style="fill:#ffffff;stroke:none"
                 id="rect516" /><rect
                 x="22"
                 y="33"
                 width="28"
                 height="28"
                 style="stroke:none"
                 id="rect517" /><g
                 id="g518"
                 style="fill:#ffffff;stroke:none"><circle
                   cx="27.5"
                   cy="38.75"
                   r="1.75"
                   id="circle517" /><path
                   d="m 24.5,41 a 1,1 0 0 0 -1,1 v 7 a 1,1 0 0 0 1,1 h 0.25 v 8.5 a 1.25,1.25 0 1 0 2.5,0 V 50 h 0.5 v 8.5 a 1.25,1.25 0 1 0 2.5,0 V 50 h 0.25 a 1,1 0 0 0 1,-1 v -7 a 1,1 0 0 0 -1,-1 z"
                   id="path517" /></g><use
                 x="8.5"
                 xlink:href="#person2"
                 id="use518" /><use
                 x="17"
                 xlink:href="#person2"
                 id="use519" /></g><g
               id="g522"
               transform="matrix(0.1,0,0,0.1,256.4,97.4)"><title
                 id="title519">Elevator</title><rect
                 x="0.5"
                 y="0.5"
                 width="71"
                 height="71"
                 ry="6"
                 style="stroke:#ffffff"
                 id="rect519" /><g
                 style="fill:none;stroke:#ffffff;stroke-width:5;stroke-linecap:round;stroke-linejoin:round"
                 id="g520"><!-- Arrow up --><path
                   d="M 26.5,23.5 V 6.5 M 20,14 26.5,6.5 33,14"
                   id="path519" /><!-- Arrow down --><path
                   d="m 45.5,6.5 v 17 M 39,16 45.5,23.5 52,16"
                   id="path520" /></g><rect
                 x="17"
                 y="28"
                 width="38"
                 height="38"
                 ry="5"
                 style="fill:#ffffff;stroke:none"
                 id="rect520" /><rect
                 x="22"
                 y="33"
                 width="28"
                 height="28"
                 style="stroke:none"
                 id="rect521" /><g
                 id="g521"
                 style="fill:#ffffff;stroke:none"><circle
                   cx="27.5"
                   cy="38.75"
                   r="1.75"
                   id="circle521" /><path
                   d="m 24.5,41 a 1,1 0 0 0 -1,1 v 7 a 1,1 0 0 0 1,1 h 0.25 v 8.5 a 1.25,1.25 0 1 0 2.5,0 V 50 h 0.5 v 8.5 a 1.25,1.25 0 1 0 2.5,0 V 50 h 0.25 a 1,1 0 0 0 1,-1 v -7 a 1,1 0 0 0 -1,-1 z"
                   id="path521" /></g><use
                 x="8.5"
                 xlink:href="#person2"
                 id="use521" /><use
                 x="17"
                 xlink:href="#person2"
                 id="use522" /></g></g></g><g
           id="g103"
           style="display:inline;opacity:1"><g
             id="use102"
             style="display:inline"><g
               id="g586"
               transform="matrix(0.1,0,0,0.1,175.4,135.4)"><title
                 id="title585">Escalator</title><rect
                 x="0.5"
                 y="0.5"
                 width="71"
                 height="71"
                 ry="6"
                 style="stroke:#ffffff"
                 id="rect585" /><path
                 d="m 55,28 c -1,0 -2,0 -3,1 L 27,54 c -2,2 -4,3 -6,3 h -9 a 6,6 0 1 1 0,-12 h 5 c 1,0 2,0 3,-1 L 45,19 c 2,-2 4,-3 6,-3 h 9 a 6,6 0 1 1 0,12 z"
                 style="fill:none;stroke:#ffffff;stroke-width:4"
                 id="path585" /><path
                 d="m 27,35 9,-9 v -3 a 4.5,4.5 0 0 0 -9,0 z"
                 style="fill:#ffffff;stroke:none"
                 id="path586" /><circle
                 cx="31.5"
                 cy="13.5"
                 r="4.5"
                 style="fill:#ffffff;stroke:none"
                 id="circle586" /></g><g
               id="g588"
               transform="matrix(0.1,0,0,0.1,163.4,135.4)"><title
                 id="title586">Escalator</title><rect
                 x="0.5"
                 y="0.5"
                 width="71"
                 height="71"
                 ry="6"
                 style="stroke:#ffffff"
                 id="rect586" /><path
                 d="m 55,28 c -1,0 -2,0 -3,1 L 27,54 c -2,2 -4,3 -6,3 h -9 a 6,6 0 1 1 0,-12 h 5 c 1,0 2,0 3,-1 L 45,19 c 2,-2 4,-3 6,-3 h 9 a 6,6 0 1 1 0,12 z"
                 style="fill:none;stroke:#ffffff;stroke-width:4"
                 id="path587" /><path
                 d="m 27,35 9,-9 v -3 a 4.5,4.5 0 0 0 -9,0 z"
                 style="fill:#ffffff;stroke:none"
                 id="path588" /><circle
                 cx="31.5"
                 cy="13.5"
                 r="4.5"
                 style="fill:#ffffff;stroke:none"
                 id="circle588" /></g><g
               id="g590"
               transform="matrix(0.1,0,0,0.1,157.4,107.4)"><title
                 id="title588">Escalator</title><rect
                 x="0.5"
                 y="0.5"
                 width="71"
                 height="71"
                 ry="6"
                 style="stroke:#ffffff"
                 id="rect588" /><path
                 d="m 55,28 c -1,0 -2,0 -3,1 L 27,54 c -2,2 -4,3 -6,3 h -9 a 6,6 0 1 1 0,-12 h 5 c 1,0 2,0 3,-1 L 45,19 c 2,-2 4,-3 6,-3 h 9 a 6,6 0 1 1 0,12 z"
                 style="fill:none;stroke:#ffffff;stroke-width:4"
                 id="path589" /><path
                 d="m 27,35 9,-9 v -3 a 4.5,4.5 0 0 0 -9,0 z"
                 style="fill:#ffffff;stroke:none"
                 id="path590" /><circle
                 cx="31.5"
                 cy="13.5"
                 r="4.5"
                 style="fill:#ffffff;stroke:none"
                 id="circle590" /></g><g
               id="g592"
               transform="matrix(0.1,0,0,0.1,169.4,107.4)"><title
                 id="title590">Escalator</title><rect
                 x="0.5"
                 y="0.5"
                 width="71"
                 height="71"
                 ry="6"
                 style="stroke:#ffffff"
                 id="rect590" /><path
                 d="m 55,28 c -1,0 -2,0 -3,1 L 27,54 c -2,2 -4,3 -6,3 h -9 a 6,6 0 1 1 0,-12 h 5 c 1,0 2,0 3,-1 L 45,19 c 2,-2 4,-3 6,-3 h 9 a 6,6 0 1 1 0,12 z"
                 style="fill:none;stroke:#ffffff;stroke-width:4"
                 id="path591" /><path
                 d="m 27,35 9,-9 v -3 a 4.5,4.5 0 0 0 -9,0 z"
                 style="fill:#ffffff;stroke:none"
                 id="path592" /><circle
                 cx="31.5"
                 cy="13.5"
                 r="4.5"
                 style="fill:#ffffff;stroke:none"
                 id="circle592" /></g></g></g><g
           id="g104"
           transform="translate(0.46875,-0.0729188)"
           style="display:inline;opacity:1"><g
             id="use103"
             transform="matrix(0.1,0,0,0.1,55.9312,156.473)"><title
               id="title211">Information</title><rect
               x="0.5"
               y="0.5"
               width="71"
               height="71"
               ry="6"
               style="stroke:#ffffff"
               id="rect212" /><circle
               cx="36"
               cy="36"
               r="24"
               style="fill:none;stroke:#ffffff;stroke-width:6"
               id="circle212" /><path
               d="m 27,32 c 0,-5 1,-11 9,-11 4,0 8,3 8,7 0,4 -2,6 -4,7 -2,1 -4,2 -4,5 0,3 0,6 0,6"
               style="fill:none;stroke:#ffffff;stroke-width:6"
               id="path214" /><rect
               x="33"
               y="48"
               width="6"
               height="6"
               style="fill:#ffffff;stroke:none"
               id="rect214" /></g></g><g
           id="g106"
           style="display:inline;opacity:1"><g
             id="use104"
             transform="matrix(0.1,0,0,0.1,192.8,51.4)"><title
               id="title283">Stairs Down</title><rect
               x="0.5"
               y="0.5"
               width="71"
               height="71"
               ry="6"
               style="stroke:#ffffff"
               id="rect283" /><path
               d="m 9,56.5 h 12 v -10 h 10 v -10 h 10 v -10 h 10 v -10 h 12"
               style="fill:none;stroke:#ffffff;stroke-width:5"
               id="path284" /><path
               d="M 42,57 54,45 m -12,3 v 9 h 9"
               style="fill:none;stroke:#ffffff;stroke-width:4;stroke-linecap:round;stroke-linejoin:round"
               id="path285" /></g><g
             id="use105"
             transform="matrix(0.1,0,0,0.1,153.8,186.4)"><title
               id="title285">Stairs Down</title><rect
               x="0.5"
               y="0.5"
               width="71"
               height="71"
               ry="6"
               style="stroke:#ffffff"
               id="rect285" /><path
               d="m 9,56.5 h 12 v -10 h 10 v -10 h 10 v -10 h 10 v -10 h 12"
               style="fill:none;stroke:#ffffff;stroke-width:5"
               id="path286" /><path
               d="M 42,57 54,45 m -12,3 v 9 h 9"
               style="fill:none;stroke:#ffffff;stroke-width:4;stroke-linecap:round;stroke-linejoin:round"
               id="path287" /></g></g><g
           id="g107"
           style="display:inline;opacity:1"><g
             id="use106"
             transform="matrix(0.1,0,0,0.1,139.4,186.4)"><title
               id="title328">Stairs Up</title><rect
               x="0.5"
               y="0.5"
               width="71"
               height="71"
               ry="6"
               style="stroke:#ffffff"
               id="rect328" /><path
               d="m 9,56.5 h 12 v -10 h 10 v -10 h 10 v -10 h 10 v -10 h 12"
               style="fill:none;stroke:#ffffff;stroke-width:5"
               id="path329" /><path
               d="M 54,45 42,57 m 12,-3 v -9 h -9"
               style="fill:none;stroke:#ffffff;stroke-width:4;stroke-linecap:round;stroke-linejoin:round"
               id="path330" /></g><g
             id="use107"
             transform="matrix(0.1,0,0,0.1,204.8,51.4)"><title
               id="title330">Stairs Up</title><rect
               x="0.5"
               y="0.5"
               width="71"
               height="71"
               ry="6"
               style="stroke:#ffffff"
               id="rect330" /><path
               d="m 9,56.5 h 12 v -10 h 10 v -10 h 10 v -10 h 10 v -10 h 12"
               style="fill:none;stroke:#ffffff;stroke-width:5"
               id="path331" /><path
               d="M 54,45 42,57 m 12,-3 v -9 h -9"
               style="fill:none;stroke:#ffffff;stroke-width:4;stroke-linecap:round;stroke-linejoin:round"
               id="path332" /></g></g></g></g></g></svg>
