<?xml version="1.0" encoding="UTF-8" standalone="no"?>
<svg version="1.1" xmlns="http://www.w3.org/2000/svg" xmlns:xlink="http://www.w3.org/1999/xlink" viewBox="0 0 683 412" width="100%" height="100%"><g><style type="text/css">.st0{fill:#DCFFFA;} .st1{fill:#B0EAE3;} .st2{fill:#E6E6E6;} .st3{fill:#DCE7FF;} .st4{fill:#A5B3DB;} .st5{fill:#1B9F7E;stroke:#FFFFFF;stroke-width:1.3164;} .st6{fill:#FFFFFF;} .st7{display:none;} .st8{font-family:'HiraKakuPro-W3-83pv-RKSJ-H';} .st9{font-size:6.84px;} .st10{fill:none;stroke:#999999;stroke-width:0.855;} .st11{fill:#CCCCCC;} .st12{fill:#CB100C;stroke:#FFFFFF;stroke-width:1.3164;} .st13{fill:#FFFFFF;stroke:#000000;stroke-width:1.1391;} .st14{fill:#00A496;} .st15{fill:none;stroke:#000000;stroke-width:0.4275;} .st16{fill:none;stroke:#000000;stroke-width:0.1148;} .st17{fill:#3B3794;stroke:#FFFFFF;stroke-width:1.1391;} .st18{fill:#3B3794;} .st19{fill:none;stroke:#666666;stroke-width:2.565;} .st20{fill:#CB100C;stroke:#FFFFFF;stroke-width:0.9181;} .st21{fill:none;stroke:#999999;stroke-width:2.565;} .st22{fill:#169379;stroke:#FFFFFF;stroke-width:1.159;} .st23{fill:#169379;} .st24{fill:#73BACB;stroke:#FFFFFF;stroke-width:1.1543;} .st25{fill:#CB100C;} .st26{fill:#0000A2;} .st27{fill:none;stroke:#E6E6E6;stroke-width:5.8509;} .st28{fill:#E6E6E6;stroke:#666666;stroke-width:2.565;} .st29{fill:none;stroke:#000000;stroke-width:0.1131;stroke-linecap:round;stroke-linejoin:round;} .st30{fill:#FFFFFF;stroke:#000000;stroke-width:0.7538;} .st31{fill:#FFFFFF;stroke:#FFFFFF;stroke-width:1.215;} .st32{fill:#FFFFFF;stroke:#000000;}</style><path class="st0" d="M265.54 353.31v-17.44l26.33 2.52 166.18 15.62 185.83 39.15.37-183.78-593.25-64.08-5.73 95.68 118.47 12.28v41.25l-35.98 1.75-2.52 29.47 106.96 6.94v20.64"></path><path class="st1" d="M304.06 308.15v-45.64l-68.45-4.38-35.99-2.64v.38l-35.1-2.57v45.63l35.1 2.09v.11l35.98 2.63zM304.06 321.75v17.55l92.14 8.78-.87-17.55zM403.22 305.95v43.01l53.54 4.38 24.57 4.39-.78-50.92zM399.72 261.2v23.69h89.6l-.18-29.76zM643.68 289.51l-.87-58.15-46.36 8.78v.69l-65.93 7.86v14.52l65.93-.3v26.6zM598.7 331.36v50.94l44.98 9.66-.87-60.58zM530.31 292.28h58.14v9.83h-58.14z"></path><path class="st2" d="M643.36 211.18l.41-172.01-100.13-1.46-246.6-2.63-241.34 16.37-4.37 72.85z"></path><path class="st3" d="M532.93 115.46l-.88-78.11-165.56-1.8v-.07l-69.17-.7-241.62 15.82-1.76 56.14 311.75 1.99v-.04z"></path><path class="st4" d="M56.81 50.56l-3.42 55.44 78.8-3.1-.01.37 33.93-.77.01.38 33.54-.39-.39-61.35zM228.53 102.49l33.15-.39.07-65.04-33.61 2.3zM306.34 35.61v67.27l49.33.78-.21-67.88zM532.94 37.29l-136.49-.98v33.81h40.76l.39 36.27 95.37 5.07z"></path><path class="st5" d="M508.12 326.03c0 6.64-5.39 12.03-12.02 12.03-6.64 0-12.03-5.38-12.03-12.03 0-6.64 5.38-12.03 12.03-12.03 6.63.01 12.02 5.39 12.02 12.03z"></path><path class="st6" d="M495.71 320.14v-1.25l-2 2v-4.25h-1v4.25l-1.99-2v1.25l2.49 2.5zM498.41 318.26v4.25h.99v-4.25l2 2v-1.25l-2.49-2.5-2.5 2.5v1.25zM490.56 323.24v10.94h10.98v-10.94h-10.98m9.94 9.9h-8.89v-8.85h8.89v8.85zM492.2 329.79h.34v2.83h.55l.2-2.83h.1l.2 2.83h.55v-2.83h.34l.1-1.9c.03-.39-.25-.74-.64-.79-.19-.03-.39-.05-.6-.05-.2 0-.4.02-.6.05-.38.05-.66.4-.63.79l.09 1.9zM493.33 326.84c.27 0 .5-.22.5-.5 0-.27-.23-.5-.5-.5s-.5.22-.5.5.23.5.5.5zM494.94 329.79h.34v2.83h.55l.2-2.83h.1l.2 2.83h.54v-2.83h.34l.1-1.9c.03-.39-.25-.74-.63-.79-.2-.03-.4-.05-.6-.05-.21 0-.4.02-.6.05-.39.05-.66.4-.63.79l.09 1.9zM496.07 326.84c.28 0 .5-.22.5-.5 0-.27-.22-.5-.5-.5-.27 0-.5.22-.5.5.01.28.23.5.5.5zM497.68 329.79h.34v2.83h.54l.2-2.83h.09l.21 2.83h.54v-2.83h.33l.1-1.9c.03-.39-.25-.74-.63-.79-.2-.03-.4-.05-.6-.05-.2 0-.41.02-.6.05-.38.05-.66.4-.63.79l.11 1.9zM498.82 326.84c.27 0 .5-.22.5-.5 0-.27-.22-.5-.5-.5-.27 0-.49.22-.49.5-.01.28.21.5.49.5z"></path><path d="M230.3 359.56c-.14-.4-.24-.6-.44-.83-.38-.44-.94-.68-1.63-.68-1.52 0-2.48 1.17-2.48 3.04 0 1.86.97 3.05 2.48 3.05.74 0 1.37-.28 1.76-.79.2-.27.29-.51.38-.94l.78.19c-.16.55-.28.82-.51 1.12-.53.71-1.38 1.09-2.43 1.09-.9 0-1.66-.28-2.2-.83-.66-.66-1.02-1.68-1.02-2.86 0-1.21.38-2.24 1.07-2.92.54-.53 1.26-.8 2.15-.8.88 0 1.6.25 2.11.76.33.32.51.6.73 1.18l-.75.22zM235.62 364c-.37.33-.54.45-.86.57-.32.12-.66.19-.98.19-1.03 0-1.66-.54-1.66-1.43 0-.75.47-1.3 1.34-1.54.55-.16 1.01-.22 2.16-.24v-.55c0-.64-.4-.97-1.18-.97-.52 0-.9.13-1.17.4-.12.13-.2.26-.29.54l-.73-.16c.17-.43.29-.63.53-.84.39-.36.95-.54 1.65-.54 1.24 0 1.88.53 1.88 1.54v2.64c0 .42.02.66.08 1.03h-.76v-.64zm0-1.89c-1.12.03-1.65.09-2.08.27-.48.2-.71.52-.71.97 0 .52.39.85 1 .85.54 0 1.14-.26 1.5-.67.22-.24.29-.43.29-.81v-.61zM237.68 364.67c.05-.34.07-.62.07-1.06v-2.94c0-.47-.02-.72-.07-1.06h.76v.52l-.02.34c.08-.16.17-.27.36-.47.32-.32.78-.49 1.33-.49.54 0 .93.16 1.21.48.14.15.2.26.29.55.44-.72.95-1.03 1.74-1.03.62 0 1.09.2 1.37.57.23.3.32.67.32 1.22v2.32c0 .47.02.72.07 1.05h-.85c.06-.35.07-.56.07-1.06v-2.22c0-.89-.33-1.28-1.08-1.28-.47 0-.91.25-1.18.69-.18.27-.31.69-.31.97v1.85c0 .47.02.73.07 1.05h-.85c.05-.34.07-.58.07-1.06v-2.22c0-.83-.38-1.28-1.05-1.28-.49 0-.94.26-1.23.71-.17.25-.31.7-.31.94v1.84c0 .43.02.69.07 1.06h-.85zM247.34 357.53v.84h-.91v-.84h.91zm-.04 2.08c-.05.33-.07.59-.07 1.06v2.94c0 .43.02.7.07 1.06h-.85c.05-.4.07-.67.07-1.06v-2.94c0-.45-.02-.73-.07-1.06h.85zM248.44 362.14c0-1.63.98-2.66 2.51-2.66 1.53 0 2.5 1.03 2.5 2.65 0 1.61-.98 2.66-2.49 2.66-1.54 0-2.52-1.02-2.52-2.65zm.73-.02c0 1.28.69 2.06 1.79 2.06s1.78-.78 1.78-2.05c0-1.27-.68-2.06-1.76-2.06-1.13.01-1.81.79-1.81 2.05zM254.39 360.65c.23.04.38.05.73.05h.49c.28 0 .48-.01.72-.05-.04.28-.05.53-.05 1v1.84c.14.3.25.45.46.6.54.4 1.11.52 2.44.52 1.79 0 2.9-.05 3.78-.18-.14.34-.16.37-.22.69-.84.04-2.16.07-3.27.07-1.56 0-2.12-.09-2.73-.44-.31-.18-.54-.4-.78-.77-.42.42-.66.62-1.11.97-.15.11-.23.18-.37.31l-.31-.62c.41-.19.99-.61 1.51-1.13v-2.27h-.62c-.32 0-.46.01-.7.05v-.64zm.56-3.55c.61.56.91.9 1.51 1.65l-.48.43c-.54-.78-.83-1.12-1.47-1.71l.44-.37zm2.67 1.17c-.44 0-.7.01-.88.05v-.58c.22.03.51.05.98.05h1.65c0-.32-.02-.57-.07-.85h.66c-.05.27-.07.52-.07.85h1.82c.46 0 .76-.02.98-.05v.58c-.22-.04-.48-.05-.94-.05h-1.86v.74h1.57c.31 0 .49-.01.73-.04-.03.22-.04.38-.04.64v1.88c0 .25.01.4.04.61-.23-.03-.45-.04-.73-.04h-1.57v.77h1.9c.46 0 .73-.01.93-.05v.58c-.21-.04-.5-.05-.94-.05h-1.89v.18c0 .3.02.58.07.86h-.66c.05-.27.07-.55.07-.86v-.18h-1.65c-.39 0-.74.02-.94.05v-.58c.21.04.47.05.94.05h1.65v-.77h-1.42c-.28 0-.5.01-.74.04.03-.22.04-.37.04-.61v-1.9c0-.25-.01-.4-.04-.62.22.03.43.04.73.04h1.43v-.74h-1.75zm.16 1.21v.8h1.58v-.8h-1.58zm0 1.25v.87h1.58v-.87h-1.58zm2.11-.45h1.72v-.8h-1.72v.8zm0 1.32h1.72v-.87h-1.72v.87zM264.83 362.18c-.15 1.31-.25 1.76-.57 2.65l-.52-.24c.31-.72.46-1.4.55-2.55l.54.14zm-1.08-1.19l.35.02.44-.01c.1-.13.29-.4.58-.82-.57-.8-.88-1.18-1.35-1.63l.36-.43.42.48c.47-.81.73-1.37.8-1.76l.6.24c-.09.13-.09.13-.35.63-.21.42-.44.85-.72 1.28.26.32.31.38.55.72.48-.72.87-1.47.99-1.82l.56.3c-.04.05-.22.34-.54.86-.3.5-.91 1.38-1.32 1.9.6-.05.88-.08 1.42-.15-.12-.3-.18-.42-.35-.73l.43-.19c.35.65.48.97.7 1.61.72-.3 1.43-.73 2.02-1.23-.42-.42-.64-.71-1.01-1.31-.34.4-.61.69-1.01 1.02-.09-.15-.23-.27-.41-.39.53-.39.98-.86 1.37-1.41.36-.51.59-.98.67-1.33l.59.22-.16.29-.24.45h1.38c.48 0 .71-.01.88-.05l.34.37-.23.34c-.44.73-.81 1.21-1.37 1.78.74.56 1.42.91 2.39 1.21-.15.22-.22.34-.3.6-1.08-.42-1.75-.8-2.49-1.43-.72.62-1.33 1-2.31 1.46-.08-.17-.11-.23-.22-.36l-.32.14-.18-.59c-.27.05-.42.07-.81.11v3.11c0 .4.02.68.06.94h-.67c.04-.26.06-.55.06-.95v-3.04l-.28.02-1.24.12-.08-.59zm3.05 1.03c.25.88.33 1.19.46 2.14l-.52.14c-.09-.95-.18-1.37-.42-2.15l.48-.13zm1.69 3.41h-.6c.04-.22.05-.48.05-.95v-1.75c0-.44 0-.57-.03-.82.22.02.36.02.76.02h2.2c.39 0 .58-.01.77-.02-.02.21-.03.37-.03.82v1.74c0 .48.01.73.05.96h-.61v-.5h-2.56v.5zm0-1.01h2.56v-1.96h-2.56v1.96zm.35-6.11l-.14.2c.27.54.57.93 1.06 1.39.53-.53.82-.91 1.2-1.59h-2.12zM273.68 365.04c.05-.35.07-.66.07-1.08v-5.21c0-.42-.01-.68-.05-1 .33.04.56.05 1.01.05h4.94c.44 0 .69-.01 1.02-.05-.04.29-.05.56-.05 1v5.21c0 .41.02.75.07 1.08h-.71v-.75h-5.59v.75h-.71zm.7-1.34h5.59v-5.32h-5.59v5.32z"></path><text transform="translate(463.084 66.182)" class="st7 st8 st9">ペットショップ</text><path class="st6" d="M644.2 183.09l.32-57.97c-147.43-26.33-544.94-24.52-590.58-18.38l-.8 17.56c-.45.01-.77.01-.96-.01l-7.9 116.72c66.7 7.02 191.08 19.91 287.85 21.06 134.08 1.59 268.8-22.87 311.8-31.64l.27-47.34z"></path><path d="M327.98 176.31c-.62 1-1.11 1.51-2.02 2.15-.16-.23-.22-.3-.39-.44.51-.31.77-.5 1.1-.85.36-.36.55-.62.83-1.15l.48.29zm1.06-4.52c0-.27-.02-.5-.06-.72h.68c-.04.17-.06.39-.06.72v.32h2.64c.43 0 .7-.02.95-.06v.61c-.22-.04-.45-.05-.93-.05h-5.67c-.46 0-.68.01-.91.05v-.61c.26.04.52.06.95.06h2.43v-.32zm-1.55 3.84c-.34 0-.51.01-.76.03.03-.22.03-.38.03-.69v-.97c0-.33-.01-.45-.03-.71.24.03.4.03.76.03h3.72c.41 0 .59-.01.79-.03-.03.21-.03.38-.03.71v.97c0 .3.01.47.03.68-.22-.02-.45-.03-.78-.03h-1.49v2.38c0 .49-.22.64-.94.64l-.84-.03c-.03-.23-.05-.33-.15-.56.35.06.64.09.92.09.38 0 .44-.03.44-.21v-2.3h-1.67zm-.19-.47h4.12v-1.34h-4.12v1.34zm3.88.85c.32.51.49.74.84 1.08.36.36.62.56 1.19.9-.17.15-.28.28-.39.47-.5-.35-.72-.52-1.08-.89-.41-.42-.62-.68-1.03-1.26l.47-.3zM342.71 178.18c.28-.31.39-.45.57-.77.2-.36.28-.57.41-1.03l.49.18c-.29.9-.5 1.31-1.01 1.93l-.46-.31zm5.99-5.12c.22 0 .4-.01.59-.03-.02.17-.03.29-.03.5v1.92c0 .21.01.35.03.5-.22-.02-.38-.03-.56-.03h-4.21c-.26 0-.45.01-.72.04v-.53c.21.03.39.03.72.03h4.23v-.79h-4.09c-.26 0-.46.01-.72.04v-.52c.22.03.38.03.72.03h4.09v-.74h-3.76c-.27 0-.46.01-.68.03v-.39c-.45.42-.64.56-1.16.91-.15-.21-.21-.26-.38-.39.64-.38 1.24-.85 1.67-1.35.43-.49.72-.94.9-1.39l.62.15-.38.56h1.52c.36 0 .53-.01.73-.04l.27.31c-.07.08-.29.38-.4.53-.26.36-.32.43-.48.62h1.48zm-2.12 0c.3-.31.51-.59.75-.97h-2.08c-.32.42-.5.62-.83.94.2.02.3.03.56.03h1.6zm-1.19 4.7c0 .21.04.28.21.32.14.03.42.05.88.05 1.1 0 1.35-.03 1.46-.19.1-.14.14-.36.18-.85.17.1.35.17.54.21-.19 1.25-.3 1.32-2.2 1.32-.7 0-1.07-.03-1.28-.11-.24-.09-.32-.25-.32-.65v-.88c0-.29-.02-.51-.05-.74h.63c-.04.23-.05.37-.05.74v.78zm1.76-.26c-.5-.54-.7-.72-1.21-1.07l.38-.31c.54.38.82.61 1.2 1.01l-.37.37zm1.89-1.2c.58.65.87 1.03 1.3 1.71l-.47.36c-.39-.75-.68-1.15-1.26-1.78l.43-.29zM359.78 174.74l.33.03.36-.01.6-.81c-.5-.59-.79-.89-1.28-1.32l.31-.4.41.39c.48-.73.74-1.26.83-1.64l.53.22-.21.35c-.26.51-.52.94-.84 1.4.21.23.29.32.52.59.5-.77.74-1.2.85-1.51l.5.27-.56.87c-.28.44-.65.96-1.11 1.56.77-.05.79-.05 1.31-.12-.11-.31-.15-.41-.31-.71l.38-.18c.29.61.4.88.6 1.52l-.42.21-.11-.42c-.38.05-.44.06-.77.09v2.83c0 .38.01.62.05.85h-.6c.03-.26.05-.52.05-.85v-2.78l-.99.07-.35.04-.08-.54zm.97 1.08c-.18 1.55-.21 1.71-.48 2.5l-.46-.23c.26-.72.38-1.25.46-2.36l.48.09zm1.7-.11c.18.63.27 1.03.36 1.64l-.44.16c-.08-.65-.17-1.13-.32-1.67l.4-.13zm2.13 0c-.07.13-.07.13-.26.56-.16.39-.49.94-.75 1.26-.24.28-.54.57-.89.85-.1-.16-.2-.27-.37-.39.84-.59 1.29-1.16 1.67-2.08h-.56c-.25 0-.41.01-.58.04v-.54c.18.03.31.04.59.04h.44c.22 0 .33-.01.44-.03l.27.29zm-.06-3.95c.15-.37.22-.56.27-.79l.59.11c-.11.27-.16.37-.31.68h1.09c.39 0 .58-.01.81-.03-.03.23-.03.43-.03.8v1.38c0 .37.01.56.03.79-.22-.03-.45-.03-.8-.03h-.86c.14.54.26.86.58 1.39.4-.35.67-.63 1.06-1.13l.38.36c-.45.49-.73.75-1.2 1.15.47.68.89 1.09 1.53 1.54-.15.13-.24.25-.36.48-.47-.36-.73-.62-1.06-1.04-.52-.66-.75-1.13-1.03-2.02.06.77.09 1.2.09 1.59v1.08c0 .46-.21.61-.83.61l-.64-.03c-.03-.26-.07-.38-.15-.55.33.05.6.08.82.08.22 0 .29-.04.29-.18v-3.32h-.8c-.36 0-.6.01-.81.03.03-.22.03-.45.03-.79v-1.38c0-.33-.01-.56-.03-.79.22.03.42.03.8.03h.54zm-.84 1.21h2.76v-.78h-2.76v.78zm0 1.25h2.76v-.8h-2.76v.8zM326.39 186.27c-.09 1.14-.2 1.61-.49 2.3l-.42-.21c.32-.7.42-1.1.5-2.17l.41.08zm1.47-.87h.43c.42 0 .63-.01.79-.03l-.02.34c-.03 1.11-.18 2.34-.33 2.8-.13.37-.33.49-.8.49-.16 0-.34-.01-.62-.03v-.07c0-.15-.03-.32-.09-.48.33.07.58.1.75.1.27 0 .33-.11.44-.73.08-.43.14-1.08.17-1.95h-1.82c-.34 0-.55.01-.79.03.02-.19.03-.4.03-.88v-2.34c0-.55-.01-.74-.03-.99.25.03.46.04.94.04h1.34c.39 0 .61-.01.87-.04v.53c-.26-.03-.46-.04-.8-.04h-.45v.79h.33c.34 0 .54-.01.74-.04v.5c-.22-.03-.42-.04-.74-.04h-.33v.77h.33c.34 0 .54-.01.74-.04v.5c-.22-.03-.42-.04-.74-.04h-.33v.85zm-.45-3.27h-.93v.79h.93v-.79zm0 1.21h-.93v.77h.93v-.77zm-.93 1.18v.87h.93v-.87h-.93zm.46 1.73c.11.88.13 1.08.15 1.88l-.43.06.01-.35c0-.62-.02-1.02-.08-1.54l.35-.05zm.55-.03c.15.54.22.91.3 1.53l-.38.12c-.07-.74-.12-1.06-.26-1.57l.34-.08zm.52-.08c.17.42.22.6.34 1.15l-.32.14c-.1-.58-.15-.77-.32-1.19l.3-.1zm3.66-1.44c.13 1.03.26 1.58.56 2.27.31.7.61 1.12 1.15 1.62-.17.15-.29.28-.42.49-.61-.68-.97-1.26-1.26-2.04-.28-.74-.41-1.29-.53-2.33h-.97c-.07 2.15-.27 3.2-.86 4.33-.16-.14-.26-.2-.49-.3.68-1.1.87-2.42.87-6 0-.54-.01-.79-.03-1.02.25.03.48.04.94.04h1.42c.47 0 .69-.01.92-.04-.03.2-.03.4-.03.93v1.16c0 .5.01.72.03.92-.16-.03-.42-.03-.82-.03h-.48zm.75-.47v-2h-2.19v.43l-.02 1.57h2.21zM344.02 182.14c0-.32-.02-.54-.05-.79h.63c-.04.26-.05.44-.05.79v.56h.58c.32 0 .54-.01.76-.04v.56c-.2-.03-.39-.03-.76-.03h-1.05c-.02.49-.02.49-.03 1.17h.86c.27 0 .43-.01.6-.03l-.02.53c-.01 1.23-.07 2.44-.16 3.02-.08.47-.17.73-.31.84-.1.09-.33.13-.62.13l-.58-.03c-.03-.26-.04-.39-.1-.56.26.07.47.09.69.09.3 0 .35-.08.44-.66.09-.62.15-1.62.15-2.86h-.97c-.06 1.06-.13 1.59-.26 2.1-.2.79-.44 1.31-.96 2.03-.15-.21-.24-.3-.4-.43.62-.75.91-1.52 1.04-2.75.07-.62.08-.97.12-2.6h-.25c-.33 0-.52.01-.72.04v-.57c.22.03.42.05.74.05h.67v-.56zm2.67.87c-.27.5-.5.85-.92 1.4-.09-.14-.21-.23-.41-.34.67-.78 1.08-1.47 1.35-2.32.08-.22.09-.29.12-.43l.57.14-.15.36-.31.71h2.45c.39 0 .67-.02.87-.05v.57c-.24-.03-.54-.03-.87-.03h-2.7zm1.12 1.68v-.63c0-.29-.02-.5-.04-.71h.57c-.03.21-.05.41-.05.69v.5l.96-.3c.23-.07.58-.2.7-.26-.03.55-.03.65-.03.83-.04 1.32-.09 1.81-.22 2.04-.08.15-.26.21-.57.21l-.47-.03c-.03-.21-.05-.31-.12-.5.19.03.44.07.56.07.15 0 .22-.08.25-.26.06-.47.09-1.01.09-1.68l-1.14.37v1.57c0 .35.01.52.04.72h-.56c.03-.22.03-.36.03-.72v-1.42l-.97.32v2.48c0 .35.09.38 1.49.38.9 0 1.2-.03 1.29-.15.1-.11.16-.51.18-1.16.21.12.31.16.53.21-.15 1.54-.21 1.59-2.03 1.59-1.68 0-1.96-.1-1.96-.73v-2.46c-.21.07-.38.15-.55.22l-.11-.56c.19-.03.32-.06.6-.15l.06-.02v-.62c0-.29-.01-.49-.03-.7h.58c-.04.23-.05.4-.05.69v.48l.97-.31zM359.85 182.77c.2.03.36.04.68.04h1.63c.35 0 .49-.01.68-.04v.57c-.17-.03-.32-.03-.62-.03h-1.69c-.29 0-.46.01-.68.03v-.57zm.29-1.18c.21.03.35.04.65.04h1.15c.29 0 .44-.01.65-.04v.54c-.21-.03-.38-.03-.65-.03h-1.15c-.26 0-.46.01-.65.03v-.54zm0 7.48c.03-.25.05-.49.05-.83v-1.15c0-.3-.01-.5-.04-.72.22.03.44.03.68.03h1.12c.37 0 .47 0 .62-.03-.02.2-.03.35-.03.68v1.2c0 .27.01.48.04.7h-.53v-.35h-1.38v.46h-.53zm.01-5.07c.16.03.32.03.62.03h1.21c.31 0 .43-.01.61-.03v.52c-.21-.03-.34-.03-.61-.03h-1.21c-.28 0-.42.01-.62.03v-.52zm0 1.18c.17.03.32.03.62.03h1.21c.29 0 .45-.01.61-.03v.52c-.24-.03-.32-.03-.61-.03h-1.21c-.29 0-.42.01-.62.03v-.52zm.54 2.98h1.38v-1.32h-1.38v1.32zm6.26-2.88l-.16.32c-.31.66-.74 1.26-1.26 1.8.61.47 1.2.77 2.14 1.07-.14.2-.21.32-.31.54-1.02-.4-1.58-.71-2.21-1.24-.58.5-1.26.9-2.17 1.26-.1-.21-.18-.32-.33-.47.88-.3 1.51-.64 2.13-1.14-.59-.59-.83-.96-1.26-1.95l-.51.04v-.56c.17.03.36.04.61.04h2.38c.36 0 .51-.01.64-.03l.31.32zm-2.65-3.17c-.03.92-.13 1.38-.41 1.89-.18.32-.35.52-.7.79-.15-.16-.28-.27-.44-.36.44-.3.67-.56.84-1.02.14-.35.2-.73.2-1.3 0-.21-.01-.29-.04-.51.23.03.44.03.67.03h1.04c.31 0 .53-.01.73-.03-.03.24-.03.46-.03.8v1.33c0 .15.08.18.36.18.35 0 .45-.03.5-.12.08-.15.12-.45.14-.96.21.14.28.17.47.23-.05.69-.14 1.01-.3 1.15-.13.11-.34.15-.83.15-.69 0-.85-.09-.85-.47v-1.8h-1.35zm-.28 3.36c.31.69.56 1.06 1.14 1.61.5-.5.79-.91 1.12-1.61h-2.26z"></path><path class="st10" d="M236.48 280.5l67.58 4.39"></path><path class="st11" d="M320.19 272.8h58.12v10.14h-58.12zM320.19 285.09h58.12v10.14h-58.12z"></path><path class="st12" d="M427.97 86.56c0 6.64-5.39 12.02-12.02 12.02-6.64 0-12.03-5.39-12.03-12.02 0-6.64 5.39-12.02 12.03-12.02 6.64-.01 12.02 5.38 12.02 12.02z"></path><path class="st6" d="M415.57 80.67v-1.25l-2 2v-4.25h-1v4.25l-2-2v1.25l2.5 2.5zM418.26 78.79v4.25h1v-4.25l2 2v-1.25l-2.5-2.5-2.5 2.5v1.25zM410.41 83.77v10.94h10.98v-10.94h-10.98m9.94 9.89h-8.89v-8.85h8.89v8.85zM412.05 90.31h.34v2.83h.55l.2-2.83h.1l.2 2.83h.55v-2.83h.34l.1-1.9c.03-.39-.25-.73-.64-.79-.19-.03-.39-.05-.6-.05-.21 0-.41.01-.61.05-.38.05-.66.4-.63.79l.1 1.9zM413.19 87.36c.27 0 .5-.22.5-.5 0-.27-.23-.5-.5-.5s-.5.22-.5.5.23.5.5.5zM414.79 90.31h.34v2.83h.55l.19-2.83h.1l.2 2.83h.55v-2.83h.34l.1-1.9c.03-.39-.25-.73-.63-.79-.2-.03-.4-.05-.6-.05-.21 0-.41.01-.6.05-.39.05-.66.4-.63.79l.09 1.9zM415.93 87.36c.27 0 .5-.22.5-.5 0-.27-.22-.5-.5-.5-.27 0-.5.22-.5.5s.23.5.5.5zM417.54 90.31h.34v2.83h.54l.2-2.83h.09l.21 2.83h.55v-2.83h.33l.1-1.9c.03-.39-.25-.73-.63-.79-.2-.03-.4-.05-.6-.05-.2 0-.41.01-.61.05-.38.05-.66.4-.63.79l.11 1.9zM418.67 87.36c.27 0 .49-.22.49-.5 0-.27-.22-.5-.49-.5-.28 0-.5.22-.5.5.01.28.23.5.5.5z"></path><path class="st11" d="M530.82 268.41h58.12v10.14h-58.12zM530.82 280.7h58.12v10.14h-58.12z"></path><path class="st13" d="M550.42 289.41c-.69 0-1.25-.56-1.25-1.25v-17.47c0-.69.56-1.25 1.25-1.25h17.47c.69 0 1.25.56 1.25 1.25v17.47c0 .69-.56 1.25-1.25 1.25h-17.47z"></path><path d="M567.09 279.32c0 1.16-.96 2.02-2.11 2.02h-1.47l-7.21 7.19h-3.21c-1.15 0-2.06-.86-2.06-2.02 0-1.16.91-2.07 2.06-2.07h1.46l2.26-2.24-.46-3.68-.01-.11c0-.42.31-.77.71-.82.22-.03.44-.04.67-.04.23 0 .45.02.67.04.41.05.71.4.71.82l-.01.11-.2 1.6 2.89-2.87h3.18c1.17.01 2.13.92 2.13 2.07z"></path><path class="st6" d="M554.97 285.45l7.25-7.19h2.77c.31 0 .59.12.81.33.2.2.3.46.3.74 0 .58-.48 1.02-1.11 1.02h-1.89l-7.21 7.19h-2.79c-.31 0-.59-.11-.78-.3-.19-.18-.28-.43-.28-.72s.11-.56.3-.76c.2-.2.47-.31.76-.31h1.87z"></path><path d="M551.26 270.91c.15.02.26.03.47.03h.36c.19 0 .29-.01.47-.03-.03.35-.05.64-.05.94v2.77c0 .27.01.43.04.64h-.54c.03-.2.05-.38.05-.64v-3.29h-.31c-.18 0-.33.01-.5.03v-.45zM555.02 274.59c0 .31.01.46.04.67h-.54c.03-.19.05-.37.05-.67v-3.03c0-.25-.01-.43-.05-.65.2.01.35.02.63.02h1.51c.28 0 .44-.01.65-.04v.48c-.19-.03-.35-.04-.65-.04h-1.64v1.47h1.33c.27 0 .44-.01.65-.04v.48c-.19-.03-.35-.04-.65-.04h-1.33v1.39zM557.77 273.46c.22-.14.67-.64 1.14-1.27.17-.22.21-.27.29-.34.16-.14.31-.22.46-.22.16 0 .31.08.49.26l.42.46c.52.6 1.3 1.37 1.8 1.75.22.17.33.25.46.3l-.19.49-.14-.12c-.35-.28-1-.86-1.38-1.24-.34-.34-.55-.57-1.1-1.22-.15-.18-.24-.25-.34-.25-.13 0-.18.05-.45.41-.34.45-.63.81-1 1.21l-.17.19-.29-.41zM557.53 277.25c.49 0 .89-.4.89-.89s-.4-.89-.89-.89-.89.4-.89.89c0 .5.4.89.89.89z"></path><path class="st11" d="M531.7 314.05h58.12v10.14h-58.12zM531.7 326.33h58.12v10.14h-58.12z"></path><path class="st13" d="M551.72 335.51c-.69 0-1.25-.56-1.25-1.25v-17.47c0-.69.56-1.25 1.25-1.25h17.47c.69 0 1.25.56 1.25 1.25v17.47c0 .69-.56 1.25-1.25 1.25h-17.47z"></path><path d="M568.39 325.42c0 1.16-.96 2.02-2.11 2.02h-1.47l-7.21 7.19h-3.2c-1.16 0-2.07-.86-2.07-2.02 0-1.16.91-2.07 2.07-2.07h1.46l2.26-2.25-.46-3.68-.01-.11c0-.42.31-.77.71-.82.22-.03.45-.05.67-.05.23 0 .45.02.67.05.41.05.71.4.71.82v.11l-.2 1.6 2.89-2.87h3.18c1.15.02 2.11.93 2.11 2.08z"></path><path class="st6" d="M556.27 331.55l7.24-7.19h2.77c.31 0 .59.12.8.33.2.2.31.46.31.74 0 .58-.48 1.02-1.11 1.02h-1.89l-7.21 7.19h-2.79c-.3 0-.58-.11-.78-.3-.19-.19-.29-.43-.29-.72s.11-.56.31-.76c.2-.19.47-.31.76-.31h1.88z"></path><path d="M552.38 320.31c.09.3.17.42.35.54.19.14.44.2.73.2.66 0 1.08-.34 1.08-.88 0-.56-.4-.87-1.16-.87-.16 0-.3.01-.46.03v-.45c.13.02.27.03.42.03.38 0 .65-.08.83-.26.14-.14.23-.35.23-.55 0-.49-.34-.77-.92-.77-.35 0-.6.1-.76.3-.08.1-.12.19-.18.4l-.47-.1c.1-.29.17-.42.31-.57.25-.27.64-.42 1.13-.42.83 0 1.35.43 1.35 1.12 0 .35-.15.65-.4.83-.15.11-.27.15-.54.2.33.03.51.1.7.25.25.19.38.5.38.86 0 .77-.59 1.25-1.54 1.25-.58 0-1-.16-1.27-.47-.12-.14-.19-.26-.29-.55l.48-.12zM556.32 320.7c0 .31.01.46.04.67h-.54c.03-.19.05-.37.05-.67v-3.03c0-.25-.01-.43-.05-.65.2.01.35.02.63.02h1.51c.28 0 .44-.01.65-.04v.48c-.19-.03-.35-.04-.65-.04h-1.64v1.47h1.33c.27 0 .44-.01.65-.04v.48c-.19-.03-.35-.04-.65-.04h-1.33v1.39zM559.08 319.56c.22-.14.67-.64 1.14-1.27.17-.22.21-.27.29-.34.16-.14.31-.22.46-.22.16 0 .31.08.49.26l.42.46c.52.6 1.3 1.37 1.8 1.75.22.17.33.25.46.3l-.19.49-.14-.12c-.35-.28-1-.86-1.38-1.24-.34-.34-.55-.57-1.1-1.22-.15-.18-.24-.25-.34-.25-.13 0-.18.05-.45.41-.34.45-.63.81-1 1.21l-.17.19-.29-.41zM558.83 323.35c.49 0 .89-.4.89-.89s-.4-.89-.89-.89-.89.4-.89.89c0 .5.4.89.89.89z"></path><path class="st11" d="M264.21 63.6h39.85v10.14h-39.85zM203.96 49.6h10.14v45.83h-10.14z"></path><path class="st14" d="M419.26 293.5c-.08.18-.09.24-.14.52-.16 1.08-.3 1.61-.59 2.27-.46 1.08-1.21 1.92-2.32 2.59-.56.35-1.05.56-1.87.85-.22-.48-.33-.65-.75-1.12.89-.22 1.41-.41 2-.78 1.36-.85 2.08-2.04 2.26-3.77h-4.59v1.21c0 .29.01.54.03.75h-1.26c.03-.24.05-.53.05-.79v-1.36c0-.39-.01-.64-.04-.89.33.04.5.05 1.01.05h1.84v-.81c0-.3-.01-.47-.05-.69h1.31c-.03.16-.05.41-.05.68v.81h1.69c.7 0 .7 0 .92-.08l.55.56zM426.8 293.84c-.13.1-.13.1-.32.31-.47.51-1.16 1.12-1.75 1.54v3.2c0 .43.01.67.05.9l-1.21-.01c.04-.27.05-.45.05-.89v-2.52c-.85.5-1.52.8-2.66 1.19-.2-.43-.28-.59-.58-.98.88-.23 1.46-.45 2.23-.85 1.05-.54 1.88-1.14 2.67-1.91.31-.31.42-.44.57-.68l.95.7zM428.36 298.09c.81-.05 1.93-.32 2.78-.7 1.17-.51 2.05-1.23 2.79-2.3.41-.6.68-1.12.96-1.88.37.44.52.58 1 .92-.8 1.72-1.69 2.83-2.98 3.68-.96.64-2.12 1.1-3.58 1.41-.38.08-.4.08-.62.16l-.35-1.29zm.8-5.83c1.12.7 1.7 1.13 2.42 1.81l-.81 1.02c-.75-.8-1.52-1.42-2.4-1.91l.79-.92zM443.99 293.39c-.08.12-.13.24-.24.56-.55 1.67-1.01 2.51-1.89 3.55-.84.96-1.99 1.79-3.35 2.38-.24-.44-.41-.65-.8-.99 2.46-.94 4.05-2.62 4.8-5.07l-2.83.04c-.53.86-1.42 1.84-2.2 2.42-.28-.38-.42-.51-.91-.81 1.02-.68 1.77-1.52 2.43-2.73.28-.51.45-.95.48-1.25l1.29.26c-.07.08-.08.1-.16.28l-.25.55-.07.13-.08.14.45-.02 2.06-.03c.25 0 .41-.01.49-.02-.22-.47-.38-.77-.69-1.17l.7-.23c.37.49.58.86.84 1.49l-.4.15.33.37zm.61-.68c-.23-.55-.5-1.03-.81-1.46l.68-.24c.38.5.6.87.83 1.43l-.7.27zM450.29 298.6h2.71c.5 0 .92-.02 1.27-.06v1.13c-.4-.05-.78-.07-1.25-.07h-5.97c-.44 0-.87.02-1.3.07v-1.13c.37.04.76.06 1.3.06h2.14v-6.07c0-.41-.02-.7-.07-1.08h1.23c-.05.35-.07.66-.07 1.08v1.61h2.21c.41 0 .75-.02 1.09-.06v1.12c-.34-.04-.7-.06-1.09-.06h-2.21v3.46zM459.92 294.6c.24.85.73 1.76 1.35 2.46.7.79 1.48 1.33 2.59 1.79-.32.38-.45.57-.69 1.08-1.01-.52-1.65-1-2.32-1.72-.61-.65-1.07-1.4-1.42-2.27-.28.97-.78 1.78-1.53 2.52-.64.63-1.32 1.07-2.25 1.48-.16-.36-.36-.65-.66-.99.68-.27 1.05-.47 1.52-.8 1.26-.89 1.89-1.95 2.12-3.54h-2.22c-.59 0-.87.02-1.18.07v-1.19c.29.05.63.07 1.18.07h2.3c.02-.47.03-.62.03-1.11 0-.39-.03-.68-.07-.94h1.24c-.05.33-.06.47-.07 1.1 0 .38-.01.6-.02.95h2.49c.54 0 .87-.02 1.18-.07v1.19c-.38-.05-.66-.07-1.17-.07h-2.4zM471.76 291.67c.52 0 .75-.01 1.01-.04-.04.29-.05.56-.05 1.02v6.35c0 .35-.11.6-.31.73-.21.13-.52.18-1.08.18-.31 0-.45-.01-.98-.05-.07-.4-.12-.59-.3-1 .4.07 1 .11 1.3.11.26 0 .36-.05.36-.19v-6.18h-5.84v6.32c0 .54.01.78.04 1.04h-1.11c.04-.32.06-.64.06-1.07v-6.36c0-.39-.01-.62-.04-.91.3.04.55.05 1.08.05h5.86zm-2.64 2.59c.29-.45.55-1.02.73-1.57l.95.33c-.28.58-.4.81-.69 1.24h.56c.42 0 .6-.01.84-.05v.99c-.22-.03-.48-.04-.84-.04h-1.45v2.25h.9v-1.04c0-.29-.01-.49-.04-.72h.97c-.04.25-.05.44-.05.79v1.24c0 .42.01.64.04.92h-.91l-.01-.26h-2.68v.66h-.92c.04-.29.05-.52.05-.99v-1.55c0-.36-.01-.46-.04-.82h.95c-.03.22-.04.4-.04.73v1.03h.86v-2.25h-1.37c-.39 0-.61.01-.85.04v-.99c.27.04.45.05.85.05h2.19zm-1.38-1.61c.35.54.39.61.66 1.24l-.88.34c-.21-.54-.36-.82-.64-1.21l.86-.37zM527.76 349.94c-.11.16-.13.19-.26.46-.54 1.15-1.21 1.94-2.3 2.74-.37-.4-.51-.51-.94-.76.65-.36 1.14-.78 1.55-1.33.13-.19.19-.27.36-.55l-.36.06c-.95.11-1.92.24-2.9.38v2.12c.01.65.01.65.04.81.07.37.37.47 1.33.47 1.08 0 2.11-.13 2.89-.37l.06 1.27c-.25.01-.33.01-.57.04-1.02.11-1.71.16-2.33.16-.76 0-1.32-.06-1.67-.16-.38-.11-.71-.46-.81-.87-.08-.29-.09-.43-.09-1.18v-2.15l-.88.11c-.73.09-.73.09-1.04.18l-.12-1.17.23.01c.17 0 .57-.03.83-.07l1-.12v-1.29c0-.47-.01-.57-.06-.89h1.3c-.05.27-.06.47-.06.87v1.18l3.42-.41c.5-.06.51-.07.72-.16l.66.62zM528.82 354.17c.81-.05 1.93-.32 2.78-.7 1.17-.51 2.05-1.23 2.79-2.3.41-.6.68-1.12.96-1.88.37.44.52.58 1 .92-.8 1.72-1.69 2.83-2.98 3.68-.96.64-2.12 1.1-3.58 1.41-.38.08-.4.08-.62.16l-.35-1.29zm.8-5.83c1.12.7 1.7 1.13 2.42 1.81l-.81 1.02c-.75-.8-1.52-1.42-2.4-1.91l.79-.92zM544.63 349.18c-.12.16-.14.2-.29.63-.3.86-.82 1.96-1.2 2.58-.96 1.56-2.28 2.67-4.29 3.59-.3-.51-.42-.67-.78-.97.8-.33 1.27-.56 1.83-.94.67-.43 1.06-.77 1.54-1.31-.66-.56-1.22-.96-1.93-1.34l.71-.84c.79.44 1.18.71 1.89 1.26.44-.68.76-1.33 1.05-2.22l-2.92.03c-.58.97-1.25 1.73-2.2 2.53-.31-.35-.45-.47-.94-.75 1.03-.77 1.79-1.63 2.36-2.68.27-.5.46-.96.54-1.31l1.22.27c-.1.17-.1.17-.28.53-.11.25-.18.37-.23.45.15-.02.15-.02 2.44-.04.39-.01.58-.03.83-.11l.65.64zM545.87 351.04c.41.06.59.07 1.52.07h5.01c.93 0 1.11-.01 1.52-.07v1.31c-.38-.05-.48-.05-1.53-.05h-4.99c-1.05 0-1.16 0-1.53.05v-1.31zM556.22 354.84c-.65 0-.87.01-1.16.04v-1.21c.35.06.52.07 1.17.07h4.28v-4.1h-4.12c-.67 0-.87.01-1.2.05v-1.22c.35.06.53.07 1.21.07h4.52c.49 0 .49 0 .82-.02-.03.25-.03.35-.03.78v5.16c0 .47.01.73.05.97h-1.26v-.57h-4.28zM563.51 351.04c.41.06.59.07 1.52.07h5.01c.93 0 1.11-.01 1.52-.07v1.31c-.38-.05-.48-.05-1.53-.05h-4.99c-1.05 0-1.16 0-1.53.05v-1.31zM573.83 355.73c.05-.3.06-.55.06-1.05v-6.02c0-.46-.02-.71-.06-.96h1.29c-.04.28-.04.4-.04.99v1.75c1.29.45 2.76 1.14 4.27 1.98l-.66 1.11c-.78-.54-1.76-1.07-3.33-1.79l-.32-.16c.03.26.04.38.04.64v2.48c0 .49.01.73.04 1.04h-1.29z"></path><path class="st15" d="M148.45 308.48v11.04M141.22 308.48v11.04M153.27 308.48v11.04M154.89 308.52h-17.71v10.93h17.71v-10.92M146.04 308.48v11.04M143.63 308.48v11.04M150.86 308.48v11.04M138.81 308.48v11.04"></path><path class="st16" d="M223.96 70.04h-8M223.96 57.09h-8.05M223.96 78.67h-7.69M223.89 81.56l-.01-31.71h-7.91v31.72h7.88M223.96 65.72h-7.98M223.96 61.4h-7.89M223.96 74.35h-7.69M223.96 52.77h-7.93"></path><path class="st13" d="M206.04 94.21c-.69 0-1.25-.56-1.25-1.25v-17.46c0-.69.56-1.25 1.25-1.25h17.47c.69 0 1.25.56 1.25 1.25v17.47c0 .69-.56 1.25-1.25 1.25h-17.47z"></path><path d="M222.71 84.13c0 1.16-.95 2.02-2.11 2.02h-1.47l-7.21 7.19h-3.2c-1.16 0-2.06-.86-2.06-2.02 0-1.16.91-2.07 2.06-2.07h1.46l2.26-2.24-.46-3.68-.01-.11c0-.42.31-.77.71-.82.22-.03.44-.04.67-.04.23 0 .45.02.67.04.41.05.71.4.71.82l-.01.11-.2 1.6 2.89-2.87h3.18c1.16 0 2.12.91 2.12 2.07z"></path><path class="st6" d="M210.58 90.25l7.25-7.19h2.77c.31 0 .59.11.81.33.2.2.31.46.31.74 0 .58-.48 1.02-1.11 1.02h-1.89l-7.21 7.19h-2.79c-.31 0-.58-.11-.78-.31-.19-.18-.29-.43-.29-.72s.11-.56.31-.76c.2-.2.47-.31.76-.31h1.86z"></path><path d="M206.63 78.36c-.05.68-.1.97-.26 1.38l-.22-.13c.17-.42.22-.66.26-1.31l.22.06zm.79-.53h.23c.22 0 .34 0 .42-.02l-.01.21c-.02.67-.1 1.41-.18 1.69-.07.22-.17.29-.43.29l-.33-.02v-.04c0-.09-.02-.19-.05-.29.17.04.31.06.4.06.14 0 .18-.07.24-.44.04-.26.07-.65.09-1.17h-.97c-.18 0-.29 0-.42.02l.01-.53v-1.41c0-.33 0-.45-.02-.6.13.02.24.03.5.03h.71c.21 0 .32-.01.46-.03v.32c-.14-.02-.25-.03-.43-.03h-.24v.47h.17c.18 0 .29 0 .39-.03v.3c-.12-.02-.22-.03-.39-.03h-.17v.46h.17c.18 0 .29 0 .39-.03v.3c-.12-.02-.22-.03-.39-.03h-.17v.55zm-.24-1.96h-.49v.47h.49v-.47zm0 .72h-.49v.46h.49v-.46zm-.5.72v.52h.49v-.52h-.49zm.25 1.04c.06.53.07.65.08 1.13l-.23.04v-.21c0-.38-.01-.61-.04-.93l.19-.03zm.29-.02c.08.32.12.55.16.92l-.2.07c-.04-.45-.06-.64-.14-.95l.18-.04zm.27-.05c.09.25.12.36.18.69l-.17.08c-.05-.35-.08-.46-.17-.71l.16-.06zm1.94-.86c.07.62.14.95.3 1.37.16.42.32.67.61.97-.09.09-.15.17-.22.29-.32-.41-.51-.76-.67-1.23-.15-.45-.22-.78-.28-1.4h-.52c-.04 1.3-.15 1.92-.46 2.61-.09-.08-.14-.12-.26-.18.36-.66.46-1.46.46-3.61 0-.32 0-.47-.02-.61.13.02.25.03.5.03h.75c.25 0 .37-.01.49-.03-.01.12-.02.24-.02.56v.7c0 .3 0 .43.02.56-.09-.02-.22-.02-.44-.02h-.24zm.4-.29v-1.2h-1.16v.26l-.01.95h1.17zM212.32 76.93c0 .26 0 .41.02.56-.15-.02-.27-.02-.5-.02h-.68v1.46c0 .2.05.22.42.22.3 0 .47-.03.53-.09.06-.06.1-.27.1-.56v-.16999999999999998c.1.07.19.11.29.15-.02.44-.07.68-.15.79-.1.13-.32.19-.77.19-.59 0-.69-.07-.69-.47v-1.26c0-.28 0-.43-.02-.57.14.02.26.02.46.02h.73v-1.16h-.76c-.19 0-.32 0-.45.03v-.35c.12.02.25.03.45.03h.59c.19 0 .32 0 .46-.03l-.02.52v.71zm2.03-.36c-.03.41-.06.66-.14.97-.11.43-.26.8-.48 1.16.15.22.29.37.51.56.22.2.34.29.65.45-.1.12-.14.2-.19.32-.46-.28-.87-.66-1.15-1.07-.14.19-.3.35-.5.54-.26.23-.47.36-.82.56-.05-.14-.1-.22-.18-.31.53-.22.99-.57 1.34-1.03-.29-.49-.43-.88-.52-1.47-.15.31-.22.43-.36.65-.07-.09-.13-.14-.23-.2.37-.49.63-1.11.78-1.86.04-.22.06-.35.07-.5l.32.07-.07.31-.14.57h1.19c.2 0 .33-.01.43-.03v.35c-.11-.02-.21-.03-.42-.03h-.09zm-1.22 0l-.1.27c.09.65.24 1.1.53 1.59.18-.31.29-.6.38-.99.07-.29.09-.46.12-.87h-.93zM216.95 76.42l.32-.03v.34l-.32-.03h-.43c.23.63.44.98.81 1.36-.07.1-.11.17-.16.31-.33-.4-.5-.7-.68-1.23l.02.98v1.44c0 .22.01.35.03.48h-.34c.02-.13.03-.26.03-.48v-1.42c0-.23.01-.74.02-.99-.16.51-.25.74-.4 1.03-.13.26-.24.44-.42.67-.05-.12-.1-.2-.19-.3.41-.46.71-1.07.92-1.87h-.46c-.14 0-.19 0-.29.03v-.34l.32.03h.49v-.6c0-.19-.01-.29-.03-.43h.34c-.02.13-.03.24-.03.43v.59h.45zm1-1.01c-.02.16-.03.35-.03.54v3.43c0 .16.07.19.53.19.37 0 .48-.04.53-.16.04-.11.07-.41.08-.95.12.07.19.11.3.13-.06 1.24-.11 1.3-.96 1.3-.24 0-.42-.02-.51-.05-.2-.06-.26-.14-.26-.35v-3.55c0-.19-.01-.38-.03-.54h.35zM219.76 78c.17-.13.53-.58.91-1.15.13-.2.17-.25.23-.31.13-.13.24-.2.36-.2.13 0 .25.07.39.23.05.05.12.14.33.42.42.54 1.04 1.23 1.44 1.58.17.15.26.22.36.27l-.15.44-.11-.11c-.28-.25-.8-.78-1.1-1.12-.27-.31-.44-.52-.88-1.1-.12-.16-.19-.22-.27-.22-.1 0-.14.04-.36.37-.27.41-.5.73-.79 1.1l-.13.17-.23-.37zM213.15 82.06c.49 0 .89-.4.89-.89s-.4-.89-.89-.89-.89.4-.89.89.4.89.89.89zM273.77 35.99h.75l-2.54 4.36h-.26l-2.54-4.36h.75l1.92 3.37 1.92-3.37zM273.77 31.17h.75l-2.54 4.36h-.26l-2.54-4.36h.75l1.92 3.37 1.92-3.37zM273.77 26.36h.75l-2.54 4.36h-.26l-2.54-4.36h.75l1.92 3.37 1.92-3.37zM378.28 33.09h.75l-2.54 4.36h-.26l-2.54-4.36h.75l1.92 3.37 1.92-3.37zM378.28 28.28h.75l-2.54 4.36h-.26l-2.54-4.36h.75l1.92 3.37 1.92-3.37zM378.28 23.46h.75l-2.54 4.36h-.26l-2.54-4.36h.75l1.92 3.37 1.92-3.37zM250.44 349.02h.75l-2.54 4.36h-.26l-2.54-4.36h.75l1.92 3.37 1.92-3.37zM250.44 344.2h.75l-2.54 4.36h-.26l-2.54-4.36h.75l1.92 3.38 1.92-3.38zM250.44 339.39h.75l-2.54 4.36h-.26l-2.54-4.36h.75l1.92 3.38 1.92-3.38z"></path><path class="st11" d="M264.13 77.24h39.85v10.14h-39.85z"></path><path class="st17" d="M273.44 85.53c-.69 0-1.25-.56-1.25-1.25v-17.46c0-.69.56-1.25 1.25-1.25h17.47c.69 0 1.25.56 1.25 1.25v17.47c0 .69-.56 1.25-1.25 1.25h-17.47z"></path><path class="st6" d="M289.3 75.71c0 1.04-.86 1.82-1.9 1.82h-1.33l-6.48 6.47h-2.88c-1.04 0-1.86-.78-1.86-1.82s.82-1.86 1.86-1.86h1.32l2.03-2.02-.42-3.3-.01-.1c0-.38.28-.69.64-.74.2-.03.4-.04.61-.04.2 0 .41.02.6.04.37.05.64.36.64.74l-.01.1-.18 1.44 2.6-2.58h2.86c1.05 0 1.91.81 1.91 1.85z"></path><path class="st18" d="M278.39 81.23l6.52-6.47h2.49c.28 0 .53.1.73.29.18.18.27.42.27.66 0 .52-.43.92-1 .92h-1.7l-6.49 6.47h-2.51c-.28 0-.53-.1-.7-.28-.17-.17-.26-.39-.26-.64 0-.26.1-.51.28-.68.18-.18.42-.28.69-.28h1.68z"></path><path class="st6" d="M274.24 70.54c.11.36.21.5.42.65.23.16.53.25.88.25.79 0 1.29-.41 1.29-1.06 0-.68-.49-1.05-1.39-1.05-.19 0-.36.01-.55.03v-.54c.16.03.32.04.51.04.45 0 .79-.1 1-.31.17-.16.27-.42.27-.66 0-.59-.41-.93-1.1-.93-.42 0-.72.12-.91.36-.1.12-.14.23-.22.49l-.57-.12c.12-.35.2-.51.37-.68.3-.33.77-.5 1.36-.5.99 0 1.62.52 1.62 1.34 0 .42-.18.79-.48 1-.18.13-.33.18-.64.25.4.04.61.12.84.29.3.23.46.59.46 1.03 0 .92-.71 1.5-1.85 1.5-.69 0-1.2-.19-1.53-.56-.14-.16-.23-.31-.35-.66l.57-.16zM278.97 71.01c0 .37.01.55.05.8h-.65c.04-.23.05-.44.05-.8v-3.64c0-.29-.01-.51-.05-.78.24.01.42.02.75.02h1.81c.33 0 .53-.01.79-.05v.58c-.23-.03-.42-.05-.79-.05h-1.97v1.76h1.6c.33 0 .53-.01.78-.05v.57c-.23-.03-.42-.05-.78-.05h-1.6v1.69zM282.28 69.64c.26-.17.8-.77 1.37-1.52.2-.26.25-.33.34-.41.19-.17.37-.26.55-.26.19 0 .38.1.59.31.07.06.18.19.5.55.63.72 1.57 1.64 2.17 2.11.26.21.4.29.55.36l-.23.59-.16-.14c-.42-.33-1.2-1.03-1.66-1.48-.4-.41-.66-.69-1.33-1.46-.18-.21-.29-.29-.41-.29-.15 0-.21.05-.54.49-.4.54-.76.97-1.2 1.46l-.2.23-.34-.54zM280.7 73.85c.44 0 .8-.36.8-.8 0-.44-.36-.8-.8-.8-.44 0-.8.36-.8.8 0 .44.35.8.8.8z"></path><path class="st15" d="M368.67 75.59h-7.99M368.67 62.64h-8.04M368.67 84.22h-7.67M368.61 87.11l-.01-31.7h-7.91v31.71h7.88M368.67 71.27h-7.97M368.67 66.96h-7.88M368.67 79.91h-7.67M368.67 58.32h-7.92M392.62 75.59h-8M392.62 62.64h-8.05M392.62 84.22h-7.69M392.55 87.11l-.01-31.7h-7.91v31.71h7.88M392.62 71.27h-7.98M392.62 66.96h-7.9M392.62 79.91h-7.69M392.62 58.32h-7.93"></path><path class="st19" d="M494.38 361.17l149.42 30.79.15-60.75M265.44 353.31v-16.53l26.33 2.52 165.86 14.04 23.79 5.03"></path><path d="M63.45 73.83c-.02.14-.03.32-.03.61l-.02 4.12c.79-.13 1.41-.34 1.96-.68.68-.42 1.14-.92 1.54-1.64.17.24.21.29.38.43-.94 1.39-1.94 2.03-3.77 2.39-.27.05-.3.06-.4.1l-.27-.34c.03-.12.05-.19.05-.44l.01-3.92v-.26l-.02-.37h.57zM71.25 76.1c-.08 1.77-.66 2.6-2.2 3.21-.09-.2-.16-.29-.32-.44 1.42-.47 1.95-1.2 2-2.76h-1.85c-.43 0-.57.01-.79.03v-.51c.23.03.36.04.79.04h4c.44 0 .57-.01.79-.04v.51c-.21-.03-.36-.03-.79-.03h-1.63zm-2.47-2.17c.21.04.34.05.79.05h2.06c.37 0 .55-.01.79-.03v.49l-.78-.02h-2.08c-.47 0-.59.01-.78.03v-.52zm4-.57c.29.38.48.68.67 1.08l-.35.19c-.16-.37-.47-.89-.66-1.11l.34-.16zm.84-.26c.29.38.46.65.67 1.08l-.35.19c-.14-.33-.41-.78-.66-1.1l.34-.17zM78.69 75.16l-.16.16c-.37.38-.71.69-1.37 1.2v2.31c0 .27.01.43.03.6h-.53c.02-.16.03-.25.03-.59v-2.03c-.67.42-1.25.68-2.1.94-.07-.18-.11-.25-.24-.41.68-.18 1.09-.33 1.59-.6.75-.38 1.37-.84 1.96-1.42.21-.2.28-.29.38-.44l.41.28zM84.77 79.14c-.54-.69-1.31-1.44-2.19-2.11-.48.55-.81.86-1.31 1.22-.47.34-.83.57-1.34.82-.11-.21-.16-.28-.33-.45.53-.21.86-.4 1.39-.79 1.09-.81 1.94-1.89 2.44-3.08l.03-.08.02-.05-.16.01-2.28.03c-.31.01-.51.02-.7.05l-.01-.55c.18.03.31.03.54.03h.18l2.44-.03c.24-.01.32-.01.44-.05l.29.29c-.07.08-.12.16-.19.33-.38.85-.7 1.39-1.13 1.91.9.68 1.5 1.22 2.28 2.05l-.41.45zM90.18 75.23c-.02.12-.02.12-.03.48-.02 1.14-.21 1.82-.68 2.41-.42.53-.92.87-1.75 1.18-.1-.22-.15-.29-.31-.46.55-.16.9-.33 1.25-.63.72-.58.99-1.28.99-2.61 0-.19-.01-.24-.03-.37h.56zm2.7-.86l-.16.27c-.47.92-1.11 1.54-2 1.95-.1-.17-.16-.23-.33-.39.48-.18.76-.35 1.08-.65.31-.29.57-.63.77-1.02h-3.88c-.38 0-.55.01-.81.03v-.53c.23.03.42.05.81.05h3.67c.46 0 .46 0 .58-.05l.27.34zM96.73 76.1c-.08 1.77-.66 2.6-2.2 3.21-.09-.2-.16-.29-.32-.44 1.42-.47 1.95-1.2 2-2.76h-1.85c-.43 0-.57.01-.79.03v-.51c.23.03.36.04.79.04h4c.44 0 .57-.01.79-.04v.51c-.21-.03-.36-.03-.79-.03h-1.63zm-2.47-2.17c.21.04.34.05.79.05h2.06c.37 0 .55-.01.79-.03v.49l-.78-.02h-2.08c-.47 0-.59.01-.78.03v-.52zm4.01-.57c.29.38.48.68.67 1.08l-.35.19c-.16-.37-.47-.89-.66-1.11l.34-.16zm.84-.26c.29.38.46.65.67 1.08l-.35.19c-.14-.33-.41-.78-.66-1.1l.34-.17zM100.3 75.49c.25.03.39.04.8.04h3.51c.25 0 .33-.01.44-.05l.25.29c-.06.1-.08.13-.19.43-.58 1.59-1.52 2.47-3.29 3.06-.08-.2-.13-.27-.29-.47.92-.26 1.52-.57 2.03-1.04.49-.44.79-.95 1.11-1.79h-3.57c-.36 0-.56.01-.79.03v-.5zm.59-1.58c.2.04.33.05.72.05h2.28c.38 0 .52-.01.72-.05v.53c-.18-.03-.35-.03-.71-.03h-2.3c-.36 0-.53.01-.71.03v-.53zM106.28 78.49c.53-.02 1.35-.23 1.99-.53 1.32-.59 2.24-1.59 2.79-3.04.16.21.23.27.42.4-.55 1.19-1.18 1.99-2.08 2.61-.7.48-1.41.76-2.55 1.02-.18.04-.24.05-.41.11l-.16-.57zm.43-4.24c.73.46 1.16.8 1.65 1.29l-.36.42c-.49-.53-1.03-.98-1.63-1.34l.34-.37zM117.02 79.14c-.54-.69-1.31-1.44-2.19-2.11-.48.55-.81.86-1.31 1.22-.47.34-.83.57-1.34.82-.11-.21-.16-.28-.33-.45.53-.21.86-.4 1.39-.79 1.09-.81 1.94-1.89 2.44-3.08l.03-.08.02-.05-.16.01-2.28.03c-.31.01-.51.02-.7.05l-.01-.55c.18.03.31.03.54.03h.18l2.44-.03c.24-.01.32-.01.44-.05l.29.29c-.07.08-.12.16-.19.33-.38.85-.7 1.39-1.13 1.91.9.68 1.5 1.22 2.28 2.05l-.41.45zM141.44 52.61c-.09.13-.09.13-.24.45l-.21.38c.1-.01.1-.01 2.11-.03.17-.01.29-.03.4-.07l.31.31c-.08.11-.08.13-.2.45-.47 1.27-1.07 2.26-1.78 2.94-.57.55-1.25.99-2.16 1.41-.11-.21-.17-.28-.33-.42.58-.23.95-.42 1.42-.75.53-.37.85-.65 1.18-1.08-.49-.44-.99-.8-1.53-1.11l.31-.35c.58.33.96.6 1.51 1.06.4-.61.71-1.26.95-1.98l-2.39.03c-.46.75-.95 1.28-1.63 1.82-.16-.18-.22-.23-.4-.33.74-.53 1.3-1.16 1.74-1.95.22-.4.35-.69.4-.94l.54.16zM149.92 53c-.12.09-.13.1-.3.29-.43.45-1.01.95-1.6 1.37v2.91c0 .39.01.54.03.72h-.59c.03-.18.04-.33.04-.71v-2.6c-.89.55-1.39.77-2.64 1.2-.1-.22-.13-.29-.27-.46 1.29-.33 2.47-.92 3.55-1.77.64-.49 1.11-.97 1.31-1.29l.47.34zM156.19 53.74c.29 0 .49-.01.66-.04v.49c-.2-.03-.42-.04-.7-.04h-1.22c.04.77.06.94.14 1.44.1.55.19.9.34 1.29.18.47.36.79.57.97.09.08.18.13.22.13.15 0 .27-.37.38-1.12.15.14.23.19.4.27-.12.58-.21.85-.33 1.07-.12.19-.27.29-.44.29-.25 0-.55-.23-.82-.62-.33-.49-.62-1.34-.77-2.25-.07-.43-.11-.81-.14-1.45h-2.86c-.28 0-.47.01-.7.04v-.51c.19.03.4.04.7.04h2.84l-.01-.69c-.01-.29-.01-.29-.04-.53h.53c-.03.14-.04.36-.04.64l.01.59h1.28zm-4.39 1.85c-.26 0-.44.01-.62.03v-.46c.16.03.33.03.62.03h1.77c.29 0 .44-.01.62-.03v.46c-.17-.03-.35-.03-.61-.03h-.7v1.85c.51-.1.8-.18 1.54-.38v.42c-1.01.27-1.93.46-3.06.67l-.31.07-.1-.49c.32 0 .49-.03 1.5-.21v-1.93h-.65zm4.28-2.01c-.3-.33-.49-.5-.86-.77l.31-.23c.4.29.57.44.87.74l-.32.26zM159.26 55.05l-.04.12-.04.14-.03.15c-.25.91-.66 1.74-1.2 2.36-.16-.14-.24-.19-.45-.29.4-.39.71-.9 1-1.68.14-.38.23-.7.24-.93l.52.13zm.96-1.67c0-.42-.01-.54-.04-.7h.56c-.03.16-.03.29-.03.71v.44h1.72c.44 0 .58-.01.8-.04v.52c-.21-.03-.35-.03-.79-.03h-1.74v3.4c0 .42.01.57.03.72h-.56c.03-.16.04-.3.04-.72v-3.41h-1.67c-.44 0-.57.01-.79.03v-.5c.22.03.35.04.79.04h1.67v-.46zm1.92 1.54c.03.17.1.36.25.77.32.8.64 1.35 1.06 1.83-.19.1-.27.16-.43.32-.48-.63-.84-1.35-1.19-2.35-.06-.18-.12-.33-.17-.44l.48-.13zm.2-2.54c.29.34.47.62.7 1.03l-.35.2c-.21-.4-.51-.85-.69-1.05l.34-.18zm.85-.25c.31.38.48.64.7 1.07l-.34.2c-.15-.33-.43-.77-.7-1.07l.34-.2zM167.31 55.12c-.08 1.77-.66 2.6-2.2 3.21-.09-.2-.16-.29-.32-.44 1.42-.47 1.95-1.2 2-2.76h-1.85c-.43 0-.57.01-.79.03v-.51c.23.03.36.04.79.04h4c.44 0 .57-.01.79-.04v.51c-.21-.03-.36-.03-.79-.03h-1.63zm-2.47-2.17c.21.04.34.05.79.05h2.06c.37 0 .55-.01.79-.03v.49l-.78-.02h-2.08c-.47 0-.59.01-.78.03v-.52zm4.01-.58c.29.38.48.68.67 1.08l-.35.19c-.16-.37-.47-.89-.66-1.11l.34-.16zm.84-.26c.29.38.46.65.67 1.08l-.35.19c-.14-.33-.41-.78-.66-1.1l.34-.17zM174.76 54.17l-.16.16c-.37.38-.71.69-1.37 1.2v2.31c0 .27.01.43.03.6h-.53c.02-.16.03-.25.03-.59v-2.03c-.67.42-1.25.68-2.1.94-.07-.18-.11-.25-.24-.41.68-.18 1.09-.33 1.59-.6.75-.38 1.37-.84 1.96-1.42.21-.2.28-.29.38-.44l.41.28zM179.5 54.34c-.08 1-.15 1.42-.37 1.92-.25.56-.64 1.04-1.17 1.44-.29.21-.55.36-1.05.61-.1-.21-.16-.29-.33-.44.59-.23 1.03-.49 1.44-.89.63-.6.92-1.37.98-2.64h-1.89c-.39.62-.7 1-1.19 1.45-.12-.16-.18-.21-.4-.32.63-.5 1.08-1.08 1.46-1.89.21-.44.29-.68.35-.96l.52.16-.17.38c-.16.36-.27.62-.36.75.11-.01.11-.01 3.18-.01.43 0 .56-.01.84-.04v.5l-.85-.02h-.99zM184.78 54.24c-.02.12-.02.12-.03.48-.02 1.14-.21 1.82-.68 2.41-.42.53-.92.87-1.75 1.18-.1-.22-.15-.29-.31-.46.55-.16.9-.33 1.25-.63.72-.58.99-1.28.99-2.61 0-.19-.01-.24-.03-.37h.56zm2.7-.86l-.16.27c-.47.92-1.11 1.54-2 1.95-.1-.17-.16-.23-.33-.39.48-.18.76-.35 1.08-.65.31-.29.57-.63.77-1.02h-3.88c-.38 0-.55.01-.81.03v-.53c.23.03.42.05.81.05h3.67c.46 0 .46 0 .58-.05l.27.34zM143.45 61.54c-.06.07-.1.16-.18.36-.32.8-.69 1.47-1.15 2.09.37.32.81.75 1.23 1.2l-.35.41c-.32-.4-.76-.85-1.19-1.23-.75.88-1.66 1.57-2.71 2.05-.09-.19-.14-.26-.31-.44.79-.33 1.24-.62 1.83-1.1.34-.29.48-.43.83-.83-.71-.59-1.07-.85-1.62-1.18l.33-.32c.6.39.98.66 1.58 1.14.42-.57.78-1.23 1.05-1.96l-2.93.03c-.39.01-.54.01-.74.05l-.01-.52c.18.03.31.03.57.03h.18l2.86-.03c.26-.01.29-.01.43-.06l.3.31zM144.8 63.6c.02-.16.03-.27.03-.55v-1.17l-.02-.51.53.03h3.53c.28 0 .35-.01.49-.05l.28.27c-.06.11-.08.16-.1.38-.21 1.57-.55 2.42-1.29 3.19-.52.54-1.16.95-1.96 1.25-.11-.22-.16-.29-.33-.46 1.11-.38 1.84-.9 2.32-1.67.38-.59.57-1.27.71-2.45h-3.65v1.19c0 .46 0 .46.02.57h-.56zM152.09 63.26l-.04.12-.04.14-.03.15c-.25.91-.66 1.74-1.2 2.36-.16-.14-.24-.19-.45-.29.4-.39.71-.9 1-1.68.14-.38.23-.7.24-.93l.52.13zm.96-1.67c0-.42-.01-.54-.04-.7h.56c-.03.16-.03.29-.03.71v.44h1.72c.44 0 .58-.01.8-.04v.52c-.21-.03-.35-.03-.79-.03h-1.74v3.4c0 .42.01.57.03.72h-.56c.03-.16.04-.3.04-.72v-3.41h-1.67c-.44 0-.57.01-.79.03v-.51c.22.03.35.04.79.04h1.67v-.45zm1.92 1.54c.03.17.1.36.25.77.32.8.64 1.35 1.06 1.83-.19.1-.27.16-.43.32-.48-.63-.84-1.35-1.19-2.35-.06-.18-.12-.33-.17-.44l.48-.13zm.2-2.54c.29.34.47.62.7 1.03l-.35.2c-.21-.4-.51-.85-.69-1.05l.34-.18zm.85-.25c.31.38.48.64.7 1.07l-.34.2c-.15-.33-.43-.77-.7-1.07l.34-.2zM156.99 63.4c.2.03.38.04.85.04h3.97c.51 0 .62-.01.83-.03v.55c-.22-.02-.38-.03-.83-.03h-3.96c-.5 0-.64.01-.85.03v-.56zM163.75 62.72c.25.03.39.04.8.04h3.51c.25 0 .33-.01.44-.05l.25.29c-.06.1-.08.13-.19.43-.58 1.59-1.52 2.47-3.29 3.06-.08-.2-.13-.27-.29-.47.92-.26 1.52-.57 2.03-1.04.49-.44.79-.95 1.11-1.79h-3.57c-.36 0-.56.01-.79.03v-.5zm.59-1.59c.2.04.33.05.72.05h2.28c.38 0 .52-.01.72-.05v.53c-.18-.03-.35-.03-.71-.03h-2.3c-.36 0-.53.01-.71.03v-.53zM169.72 65.71c.53-.02 1.35-.23 1.99-.53 1.32-.59 2.24-1.59 2.79-3.04.16.21.23.27.42.4-.55 1.19-1.18 1.99-2.08 2.61-.7.48-1.41.76-2.55 1.02-.18.04-.24.05-.41.11l-.16-.57zm.44-4.24c.73.46 1.16.8 1.65 1.29l-.36.42c-.49-.53-1.03-.98-1.63-1.34l.34-.37zM179.48 62.54c-.1-.29-.18-.44-.32-.6-.27-.32-.68-.49-1.18-.49-1.11 0-1.8.85-1.8 2.21 0 1.35.7 2.21 1.8 2.21.54 0 1-.21 1.28-.57.14-.2.21-.37.27-.68l.57.14c-.12.4-.21.59-.37.81-.38.51-1 .79-1.77.79-.66 0-1.21-.21-1.6-.6-.48-.48-.74-1.22-.74-2.08 0-.88.27-1.63.78-2.13.4-.38.92-.58 1.57-.58.64 0 1.16.18 1.53.55.24.23.37.44.53.86l-.55.16zM180.92 66.26c.03-.25.05-.43.05-.77v-3.65c0-.34-.01-.52-.05-.77h.61c-.04.25-.05.43-.05.78v1.15l-.02.34c.14-.23.21-.33.38-.46.29-.25.61-.37 1.03-.37.8 0 1.28.47 1.28 1.27v1.72c0 .31.01.51.05.77h-.62c.03-.23.05-.43.05-.77v-1.61c0-.59-.29-.92-.83-.92-.38 0-.7.16-.96.5-.19.25-.28.43-.34.72v1.31c0 .3.01.51.05.77h-.63zM187.57 65.78c-.27.24-.4.33-.63.42s-.48.14-.71.14c-.75 0-1.21-.39-1.21-1.04 0-.55.34-.94.98-1.12.4-.12.73-.16 1.57-.18v-.4c0-.46-.29-.7-.86-.7-.38 0-.66.1-.85.29-.09.1-.14.19-.21.4l-.53-.12c.12-.31.21-.46.38-.61.28-.26.69-.39 1.2-.39.9 0 1.37.38 1.37 1.12v1.92c0 .31.01.48.05.75h-.55v-.48zm0-1.38c-.81.02-1.2.07-1.51.2-.35.14-.52.38-.52.7 0 .38.28.62.72.62.4 0 .83-.19 1.09-.49.16-.17.21-.31.21-.59v-.44zM189.73 61.07v.61h-.66v-.61h.66zm-.03 1.51c-.03.24-.05.43-.05.77v2.14c0 .31.01.51.05.77h-.62c.03-.29.05-.49.05-.77v-2.14c0-.33-.01-.53-.05-.77h.62z"></path><path class="st20" d="M300.48 190.4c-.72 0-1.31-.59-1.31-1.32v-18.47c0-.73.59-1.32 1.31-1.32h18.47c.73 0 1.32.59 1.32 1.32v18.47c0 .73-.59 1.32-1.32 1.32h-18.47z"></path><path class="st6" d="M312.98 184.27c.47-.07.93-.16 1.39-.26.55-1.04.88-2.21.88-3.47v-6.82c0-1.06-.78-1.94-1.8-2.09h-7.45c-1.02.14-1.8 1.03-1.8 2.09v6.82c0 1.25.31 2.42.86 3.46.46.1.94.19 1.41.27l-3.1 3.86h1.74l2.09-2.59h5.07l2.09 2.59h1.74l-3.12-3.86m-5.48-11.65c0-.12.09-.21.21-.21h4.01c.12 0 .21.09.21.21v.58c0 .12-.09.21-.21.21h-4.01c-.12 0-.21-.09-.21-.21v-.58m-2.2 5.57v-3.37c0-.29.24-.53.53-.53h7.78c.29 0 .52.24.52.53v3.37c0 .29-.24.53-.52.53h-7.78c-.3-.01-.53-.24-.53-.53m1.3 4.18c-.44 0-.79-.35-.79-.79 0-.43.36-.79.79-.79.44 0 .79.36.79.79 0 .44-.35.79-.79.79m5.45-.79c0-.43.35-.79.79-.79.44 0 .79.36.79.79 0 .44-.35.79-.79.79-.44 0-.79-.35-.79-.79z"></path><path class="st21" d="M530.25 291.29v-39.76"></path><path d="M315.59 72.24c.16-.06.62-.58 1.39-1.57.38-.52.56-.65.87-.65.27 0 .39.08.88.63.96 1.06 2.38 2.35 2.91 2.64l-.26.56-.13-.12-.48-.41c-.64-.53-1.42-1.29-2.32-2.26-.45-.48-.48-.51-.62-.51-.13 0-.17.03-.47.44-.26.35-.95 1.2-1.22 1.5l-.21.25-.34-.5zm5.72-2.2c0 .43-.35.78-.77.78-.43 0-.78-.35-.78-.78 0-.42.35-.77.78-.77s.77.34.77.77zm-1.26 0c0 .27.22.49.49.49s.49-.22.49-.49-.22-.49-.49-.49c-.27.01-.49.22-.49.49zM322.96 70.55c.27.47.42.79.68 1.52l-.46.16c-.16-.6-.36-1.06-.64-1.53l.42-.15zm3.85-.04c-.04.11-.04.11-.15.55-.11.48-.36 1.11-.6 1.53-.49.83-1.2 1.46-2.26 1.98-.1-.17-.16-.24-.31-.38 1.05-.47 1.7-1 2.17-1.78.26-.43.46-.94.58-1.47.05-.23.08-.38.08-.46v-.07l.49.1zm-2.46-.24c.36.65.49.92.66 1.47l-.45.16c-.12-.49-.33-.98-.63-1.5l.42-.13zM328.75 74.51c.03-.18.04-.35.04-.72v-4.25c0-.36-.01-.53-.04-.7h.59c-.03.18-.03.32-.03.71v1.28c1.05.38 1.85.75 3.04 1.44l-.29.51c-.64-.45-1.59-.96-2.55-1.35l-.21-.12-.01.01c.02.14.03.23.03.4v2.06c0 .38.01.53.03.72h-.6zM336.34 73.21h1.83c.41 0 .55-.01.8-.04v.53c-.23-.03-.43-.03-.79-.03h-4.06c-.36 0-.55.01-.79.03v-.53c.25.03.39.04.79.04h1.71v-3.03h-1.19c-.37 0-.56.01-.79.03v-.53c.24.03.4.04.8.04h3c.4 0 .56-.01.8-.04v.53c-.23-.03-.42-.03-.79-.03h-1.32v3.03zM340.76 73.81c-.55.01-.55.01-.73.03v-.54c.23.04.32.05.75.05h3.25v-3.3h-3.11c-.41 0-.55.01-.79.03v-.55c.24.04.34.05.79.05h3.28l.36-.01-.01.53v3.5c0 .25.01.5.03.62h-.55v-.41h-3.27zM450.87 61.54c.51.42.77.66 1.39 1.29.29-.25.66-.57.91-.84.38-.4.84-1.01 1.13-1.48l.05-.08c-.1.01-.1.01-3.9.01-.37 0-.56.01-.79.03v-.54c.24.03.4.04.8.04h3.99c.24 0 .27-.01.38-.05l.29.34c-.08.08-.13.14-.27.36-.67 1.05-1.39 1.87-2.26 2.56.26.28.54.64 1 1.24l-.42.35c-.62-.99-1.64-2.11-2.67-2.94l.37-.29zM457 59.44c-.02.16-.03.25-.03.57v1.84c0 .33.01.4.03.57h-.57c.02-.16.03-.3.03-.57v-1.83c0-.29-.01-.41-.03-.57h.57zm3.03 0c-.03.16-.03.27-.03.59v.81c0 1.09-.05 1.69-.17 2.08-.2.64-.63 1.14-1.3 1.52-.33.19-.66.32-1.24.49-.08-.2-.12-.27-.29-.47.62-.14.94-.25 1.3-.46.64-.37.96-.81 1.09-1.44.08-.39.1-.7.1-1.74v-.77c0-.36-.01-.45-.03-.6h.57zM465.81 59.68l-.17.4c-.46 1.18-.94 2-1.56 2.69-.67.77-1.44 1.32-2.58 1.89-.11-.21-.16-.29-.35-.48 1.54-.66 2.58-1.56 3.37-2.95.36-.64.66-1.36.72-1.75l.57.2zM471.9 64.78c-.54-.69-1.31-1.44-2.19-2.11-.48.55-.81.86-1.31 1.22-.47.34-.83.57-1.34.82-.11-.21-.16-.28-.33-.45.53-.21.86-.4 1.39-.79 1.09-.81 1.94-1.89 2.44-3.08l.03-.08.02-.05-.16.01-2.28.03c-.31.01-.51.02-.7.05l-.01-.55c.18.03.31.03.54.03h.18l2.44-.03c.24-.01.32-.01.44-.05l.29.29c-.07.08-.12.16-.19.33-.38.85-.7 1.39-1.13 1.91.9.68 1.5 1.22 2.28 2.05l-.41.45zM473.91 64.93c.03-.18.04-.35.04-.72v-4.25c0-.36-.01-.53-.04-.7h.59c-.03.18-.03.32-.03.71v1.28c1.05.38 1.85.75 3.04 1.44l-.29.51c-.64-.45-1.59-.96-2.55-1.35l-.21-.12-.01.01c.02.14.03.23.03.4v2.06c0 .38.01.53.03.72h-.6zM479.69 59.44c-.02.16-.03.25-.03.57v1.84c0 .33.01.4.03.57h-.57c.02-.16.03-.3.03-.57v-1.83c0-.29-.01-.41-.03-.57h.57zm3.03 0c-.03.16-.03.27-.03.59v.81c0 1.09-.05 1.69-.17 2.08-.2.64-.63 1.14-1.3 1.52-.33.19-.66.32-1.24.49-.08-.2-.12-.27-.29-.47.62-.14.94-.25 1.3-.46.64-.37.96-.81 1.09-1.44.08-.39.1-.7.1-1.74v-.77c0-.36-.01-.45-.03-.6h.57zM485.11 64.22c-.55.01-.55.01-.73.03v-.54c.23.04.32.05.75.05h3.25v-3.3h-3.11c-.41 0-.55.01-.79.03v-.55c.24.04.34.05.79.05h3.28l.36-.01-.01.53v3.5c0 .25.01.5.03.62h-.55v-.41h-3.27zM491.12 64.16v.49h-.53c.02-.15.03-.29.03-.51v-3.71c0-.28-.01-.37-.03-.53.14.01.27.02.53.02h3.64c.29 0 .38 0 .53-.02-.02.16-.02.25-.02.53v3.7l.02.53h-.52v-.49h-3.65zm3.66-3.81h-3.66v3.36h3.66v-3.36zM496.72 61.81c.2.03.38.04.85.04h3.97c.51 0 .62-.01.83-.03v.55c-.22-.02-.38-.03-.83-.03h-3.96c-.5 0-.64.01-.85.03v-.56zM504.9 59.54c-.03.17-.03.17-.04.59-.05 1.85-.11 2.36-.37 3.05-.23.64-.56 1.09-1.18 1.69-.14-.18-.21-.24-.41-.37.56-.44.93-.94 1.16-1.57.21-.59.31-1.49.31-2.93 0-.25-.01-.33-.03-.49l.56.03zm1.69-.07c-.03.16-.04.29-.04.6l-.04 4.13c.57-.21.92-.43 1.27-.79.38-.39.64-.84.81-1.37.14.18.2.25.38.4-.33.79-.79 1.35-1.37 1.76-.3.21-.57.34-.98.5l-.22.08-.16.08-.27-.31c.04-.12.05-.17.05-.46l.04-4c0-.44 0-.44-.03-.61l.56-.01zM511.46 59.85l-.09.46c-.29 1.95-.84 3.26-1.8 4.27-.17-.18-.25-.25-.44-.36.42-.4.7-.78.99-1.35.33-.68.57-1.48.7-2.37.04-.27.07-.52.07-.64l-.01-.11.58.1zm1.89-.1c0 .29.15 1.08.31 1.64.33 1.2.89 2.21 1.55 2.82-.18.12-.27.19-.42.38-.91-.96-1.59-2.54-1.86-4.29-.03-.24-.06-.36-.09-.45l.51-.1zm2.1.24c0 .42-.35.77-.77.77-.43 0-.78-.35-.78-.77s.35-.77.78-.77.77.34.77.77zm-1.26 0c0 .27.22.49.49.49s.49-.22.49-.49-.22-.49-.49-.49c-.27.01-.49.23-.49.49zM515.88 61.81c.2.03.38.04.85.04h3.97c.51 0 .62-.01.83-.03v.55c-.22-.02-.38-.03-.83-.03h-3.96c-.5 0-.64.01-.85.03v-.56zM525.24 59.29l-.15.28c-.18.37-.24.49-.31.61.09-.02.09-.02 2.06-.05.24 0 .26-.01.36-.05l.29.29c-.06.08-.06.09-.14.33-.29.96-.79 1.89-1.37 2.57-.63.72-1.38 1.26-2.38 1.71-.11-.2-.16-.27-.34-.4 1.03-.42 1.76-.94 2.41-1.73.53-.64.94-1.44 1.18-2.29l-2.3.04c-.42.67-.96 1.27-1.63 1.78-.12-.17-.18-.23-.38-.36.72-.47 1.24-1.04 1.72-1.87.26-.45.4-.76.43-1l.55.14zM452.79 72.66h2.24c.32 0 .53-.01.77-.04v.52c-.26-.03-.47-.05-.77-.05h-4.55c-.29 0-.55.01-.81.05v-.52c.23.03.46.04.81.04h1.83v-4.61c0-.26-.01-.47-.05-.71h.58c-.03.23-.05.45-.05.71v1.4h1.73c.29 0 .51-.01.71-.04v.53c-.21-.03-.42-.04-.71-.04h-1.73v2.76zM459.74 69.35c.23.88.59 1.59 1.11 2.2.5.58 1.07 1 1.85 1.33-.14.16-.19.24-.3.46-1.53-.81-2.38-1.81-2.87-3.38-.18 1-.64 1.83-1.33 2.45-.43.38-.81.62-1.48.93-.1-.19-.15-.27-.29-.42.85-.35 1.35-.68 1.8-1.2.53-.62.82-1.34.95-2.39h-1.86c-.36 0-.55.01-.75.05v-.53c.18.03.4.05.77.05h1.89c.02-.33.03-.54.03-.81 0-.31-.02-.56-.05-.75h.56c-.03.23-.05.38-.05.71-.01.35-.01.55-.03.84h2.07c.35 0 .57-.01.76-.05v.53c-.22-.03-.41-.05-.75-.05h-2.03zM463.6 68.12c0-.25-.01-.42-.03-.6.19.02.35.03.66.03h4.21c.3 0 .45-.01.62-.03-.02.18-.03.35-.03.62v4.72c0 .38-.18.49-.82.49-.29 0-.5-.01-.73-.04-.02-.17-.04-.25-.11-.44.28.05.6.08.9.08.25 0 .32-.03.32-.16v-4.85h-4.56v4.79c0 .34.01.51.03.67h-.51c.03-.2.04-.4.04-.68v-4.6zm3.03 1.28c.29-.41.46-.75.63-1.27l.41.15c-.21.48-.37.77-.62 1.12h.66c.29 0 .44-.01.61-.03v.44c-.17-.03-.35-.03-.61-.03h-1.21v1.89h.96v-.91c0-.23-.01-.38-.03-.54h.45c-.03.18-.03.33-.03.57v1.03c0 .26.01.42.03.59h-.42v-.36h-2.26v.62h-.42c.03-.18.03-.35.03-.68v-1.2c0-.23-.01-.38-.03-.57h.45c-.02.16-.03.29-.03.55v.9h.89v-1.89h-1.14c-.27 0-.44.01-.62.03v-.44c.18.03.33.03.62.03h1.68zm-1.26-1.25c.29.43.36.56.55.98l-.38.16c-.17-.41-.31-.66-.55-.98l.38-.16zM452.4 75.7l-.15.28c-.18.37-.24.49-.31.61.09-.02.09-.02 2.06-.05.24 0 .26-.01.36-.05l.29.29c-.06.08-.06.09-.14.33-.29.96-.79 1.89-1.37 2.57-.63.72-1.38 1.26-2.38 1.71-.11-.2-.16-.27-.34-.4 1.03-.42 1.76-.94 2.41-1.73.53-.64.94-1.44 1.18-2.29l-2.3.04c-.42.67-.96 1.27-1.63 1.78-.12-.17-.18-.23-.38-.36.72-.47 1.24-1.04 1.72-1.87.26-.45.4-.76.43-1l.55.14zM455.73 77.54c.25.03.39.04.8.04h3.51c.25 0 .33-.01.44-.05l.25.29c-.06.1-.08.13-.19.43-.58 1.59-1.52 2.47-3.29 3.06-.08-.2-.13-.27-.29-.47.92-.26 1.52-.57 2.03-1.04.49-.44.79-.95 1.11-1.79h-3.57c-.36 0-.56.01-.79.03v-.5zm.59-1.58c.2.04.33.05.72.05h2.28c.38 0 .52-.01.72-.05v.53c-.18-.03-.35-.03-.71-.03h-2.3c-.36 0-.53.01-.71.03v-.53zM466.49 76.89c-.04.06-.05.09-.14.42-.37 1.26-.88 2.12-1.67 2.84-.64.58-1.29.96-2.15 1.29-.1-.21-.17-.31-.33-.47.92-.25 1.89-.85 2.5-1.55.56-.64.96-1.44 1.2-2.43h-3.48c-.4 0-.56.01-.77.04v-.55c.25.03.4.04.77.04h3.3l.4-.01c-.28-.49-.4-.65-.64-.93l.34-.18c.35.42.6.79.74 1.09l-.25.15.18.25zm.21-1.73c.31.37.48.62.72 1.05l-.35.21c-.14-.32-.43-.75-.7-1.07l.33-.19zM469.43 76.26c-.03.09-.04.14-.09.46-.29 1.95-.83 3.23-1.8 4.27-.18-.19-.24-.24-.44-.36.42-.4.7-.78.99-1.35.33-.68.57-1.48.7-2.37.04-.27.07-.52.07-.64l-.01-.11.58.1zm1.89-.1c.01.36.14 1.03.31 1.64.33 1.22.85 2.16 1.55 2.82-.19.13-.26.18-.42.38-.46-.49-.8-1.03-1.14-1.78-.33-.74-.57-1.59-.72-2.52-.04-.25-.05-.34-.09-.45l.51-.09zM477.82 76.77c.42 0 .45 0 .57-.04l.28.27c-.06.11-.06.11-.15.69-.16 1.03-.58 1.87-1.24 2.5-.52.49-1.18.86-2 1.13-.1-.21-.14-.27-.31-.46.65-.17 1.05-.36 1.51-.66.96-.66 1.46-1.6 1.59-2.99h-3.73v1.03l.02.51h-.56c.01-.12.03-.33.03-.51v-.94c0-.21-.01-.39-.03-.55.21.02.37.03.63.03h1.45v-.69c0-.2-.01-.27-.03-.44h.57c-.02.13-.03.27-.03.43v.7h1.43zM484.61 81.19c-.54-.69-1.31-1.44-2.19-2.11-.48.55-.81.86-1.31 1.22-.47.34-.83.57-1.34.82-.11-.21-.16-.28-.33-.45.53-.21.86-.4 1.39-.79 1.09-.81 1.94-1.89 2.44-3.08l.03-.08.02-.05-.16.01-2.28.03c-.31.01-.51.02-.7.05l-.01-.55c.18.03.31.03.54.03h.18l2.44-.03c.24-.01.32-.01.44-.05l.29.29c-.07.08-.12.16-.19.33-.38.85-.7 1.39-1.13 1.91.9.68 1.5 1.22 2.28 2.05l-.41.45z"></path><path class="st22" d="M340.16 295.21c-.7 0-1.27-.57-1.27-1.27v-17.77c0-.7.57-1.27 1.27-1.27h17.77c.7 0 1.27.57 1.27 1.27v17.77c0 .7-.57 1.27-1.27 1.27h-17.77z"></path><path class="st6" d="M356.3 285.22c0 1.06-.87 1.85-1.93 1.85h-1.35l-6.6 6.59h-2.94c-1.06 0-1.89-.79-1.89-1.85s.83-1.89 1.89-1.89h1.34l2.07-2.06-.42-3.37-.01-.1c0-.38.29-.7.66-.75.2-.03.4-.04.61-.04.21 0 .41.01.61.04.37.05.66.37.66.75l-.01.1-.18 1.46 2.65-2.63h2.91c1.06.01 1.93.84 1.93 1.9z"></path><path class="st23" d="M345.2 290.83l6.64-6.59h2.53c.28 0 .54.11.74.3.18.18.28.42.28.68 0 .53-.44.94-1.02.94h-1.73l-6.6 6.58h-2.55c-.28 0-.54-.1-.72-.28-.17-.17-.26-.4-.26-.66 0-.27.1-.52.28-.7.18-.18.43-.28.7-.28h1.71z"></path><path class="st6" d="M340.62 278.98l.26.02.27-.01c.28-.38.31-.4.48-.66-.26-.39-.48-.65-.91-1.1l.23-.31.28.3c.29-.45.53-.96.59-1.26l.42.21-.26.47c-.18.33-.27.49-.52.85.21.25.27.31.4.5.39-.59.63-1.03.7-1.26l.4.24-.16.23c-.37.62-.81 1.26-1.22 1.76.42-.03.85-.08 1.03-.1-.09-.23-.14-.31-.27-.55l.29-.14c.24.44.34.67.55 1.27l-.35.14-.11-.4-.57.08v2.29c0 .26.01.48.04.68h-.48c.03-.2.04-.41.04-.68v-2.25l-.82.08-.25.03-.06-.43zm.77.81c-.07.89-.16 1.37-.38 2.03l-.37-.16c.22-.59.31-1.06.37-1.95l.38.08zm1.35-.1c.14.45.21.72.29 1.18l-.35.15c-.08-.55-.12-.73-.27-1.22l.33-.11zm2.89-2.11h-1.61c-.28 0-.42.01-.59.03v-.42c.16.03.3.03.59.03h1.62l.01-.61h-1.67c-.31 0-.47.01-.66.03v-.43c.18.03.35.03.65.03h1.46c.29 0 .48-.01.66-.03l-.04.64-.04 1.35h.16c.27 0 .46-.01.64-.04v.44c-.17-.03-.35-.03-.64-.03h-1.16c.16.55.24.77.46 1.19.34-.29.55-.53.81-.91l.34.27c-.39.44-.66.7-.97.95.41.6.73.94 1.31 1.34-.12.1-.22.21-.31.37-.49-.38-.83-.76-1.13-1.26-.23-.38-.36-.69-.54-1.24.04.48.06.97.06 1.37v1.02c0 .36-.16.49-.61.49-.17 0-.36-.01-.64-.03-.01-.18-.03-.27-.1-.44.26.05.49.07.67.07.22 0 .27-.03.27-.16v-1.05c-.39.28-.79.53-1.09.69l-.52.28-.2-.43c.42-.12 1.13-.5 1.81-.96v-1.56h-1.03c-.3 0-.44.01-.63.03v-.44c.18.03.36.04.63.04h2l.03-.62zm-2.01 1.37c.33.42.49.63.68.98l-.34.23c-.19-.4-.34-.63-.67-1.03l.33-.18zM352.3 279.88c-.4.9-.8 1.31-1.29 1.31-.65 0-1.13-.71-1.13-1.67 0-.7.26-1.37.72-1.89.55-.6 1.29-.91 2.21-.91.77 0 1.44.24 1.88.68.43.42.66 1.01.66 1.67 0 1.06-.57 1.93-1.57 2.36-.31.13-.57.21-1.04.31-.07-.23-.11-.29-.24-.46.5-.08.82-.17 1.14-.32.75-.34 1.21-1.07 1.21-1.91 0-.78-.4-1.41-1.09-1.72-.25-.11-.45-.16-.79-.17-.1.96-.36 2-.67 2.72zm-.84-2.38c-.69.42-1.11 1.19-1.11 2.04 0 .66.29 1.16.66 1.16.29 0 .56-.32.85-.99.28-.64.53-1.65.62-2.53-.41.03-.7.12-1.02.32zM347.54 283.32c.45 0 .82-.36.82-.81 0-.45-.36-.81-.82-.81-.45 0-.81.36-.81.81 0 .45.37.81.81.81z"></path><path class="st24" d="M509.05 272.88c-.7 0-1.26-.57-1.26-1.27v-17.7c0-.7.56-1.26 1.26-1.26h17.7c.7 0 1.26.57 1.26 1.26v17.7c0 .7-.56 1.27-1.26 1.27h-17.7z"></path><path class="st25" d="M512.93 257.68c.59 0 1.06-.47 1.06-1.06 0-.59-.47-1.06-1.06-1.06-.58 0-1.06.47-1.06 1.06 0 .58.48 1.06 1.06 1.06z"></path><path class="st26" d="M522.83 257.67c.59 0 1.06-.47 1.06-1.06 0-.59-.47-1.06-1.06-1.06-.58 0-1.06.47-1.06 1.06 0 .59.48 1.06 1.06 1.06zM524.43 258.14c-.52-.1-1.05-.15-1.59-.15s-1.07.05-1.59.15c-.88.16-1.47.95-1.43 1.81l.2 3.66h.86v-3.5h.26v9.75h1.17l.42-6.04h.21l.42 6.04h1.17v-9.75h.26v3.5h.86l.2-3.66c.05-.87-.55-1.65-1.42-1.81z"></path><path class="st25" d="M515.21 262.97h.8l-.64-3.63c-.1-.56-.51-1.04-1.1-1.18-.43-.11-.87-.16-1.33-.16-.46 0-.91.05-1.33.16-.59.15-1 .62-1.1 1.18l-.64 3.63h.8l.82-3.07.33 1.24c-.76 1.13-1.2 2.49-1.2 3.96h1.38l.42 4.76h1.07l.42-4.76h1.38c0-1.47-.44-2.83-1.2-3.96l.33-1.24.79 3.07z"></path><path class="st26" d="M517.39 255.65h1.01v14.21h-1.01z"></path><path class="st27" d="M643.31 125.41c-80.76-14.42-476.51-34.69-588.55-19.61"></path><path class="st19" d="M199.24 41.24v55.11s-90.16-1.4-145.27 5.42M232.09 353.31v-19.73l-103.55-7.44-.88-31.59 35.98 2.63v-43l-118.47-12.29 11.41-191.57"></path><path class="st28" d="M163.64 253.18l.54 45.77-33.89-.02v27.21l-90.16-5.61 5.34-83.08"></path><path class="st27" d="M47.15 240.38c66.7 7.02 186.93 19.78 283.69 20.93 134.08 1.59 269.51-22.1 312.51-30.88"></path><path class="st19" d="M397.27 35.81v34.3h39.94v34.28s55.26 2.33 95.76 5.65M644.04 289.41l.6-250.24-111.75-.62"></path><path d="M360.18 40.73c-.39 0-.7.02-1 .06v-.67c.29.04.57.06 1 .06h6.26c.41 0 .72-.02 1-.06v.67c-.28-.04-.61-.06-1-.06h-2.77c-.15.52-.35 1.06-.54 1.5h2.43c.36 0 .63-.02.91-.05-.03.25-.05.53-.05.85v4.36c0 .32.02.61.06.92h-.69v-.59h-4.95v.59h-.68c.04-.32.06-.58.06-.92v-4.37c0-.3-.02-.57-.05-.84.27.03.54.05.87.05h1.44c.21-.47.36-.88.53-1.5h-2.83zm.67 3.85h4.95v-1.8h-4.95v1.8zm0 2.6h4.95v-2.06h-4.95v2.06zM370.02 42.81c.04-.16.05-.3.05-.54v-.37c0-.23.01-.41.05-.6-.48.38-.74.54-1.38.89-.11-.2-.17-.27-.35-.47.7-.32 1.28-.69 1.82-1.17.41-.36.6-.56.72-.79l.56.28-.25.25c-.12.13-.37.37-.61.58v1.34c0 .3.01.42.05.59h-.66zm1.66 4.54c-.88.52-1.46.72-2.81 1.02-.11-.25-.17-.34-.34-.54 1.13-.15 1.85-.37 2.69-.83l.46.35zm3.08-4.22c.51 0 .69-.01.98-.04-.02.27-.03.56-.03 1.02v1.8c0 .48.01.79.04.98-.26-.03-.6-.04-1.05-.04h-3.99c-.46 0-.78.01-1.05.04.03-.22.04-.5.04-.96v-1.83c0-.43-.01-.72-.03-1 .24.02.52.03.98.03h4.11zm-4.51 1.09h4.88v-.62h-4.88v.62zm0 1.08h4.88v-.63h-4.88v.63zm0 1.1h4.88v-.65h-4.88v.65zm2.72-5.53c.75-.11.92-.15 1.37-.26.78-.21 1.28-.39 1.65-.61l.4.48c-1.09.43-2 .67-3.42.87v.44c0 .26.17.3 1.4.3s1.55-.03 1.7-.16c.1-.09.15-.3.17-.8.19.08.38.15.56.18-.07.7-.19.98-.48 1.11-.25.12-.75.16-2.09.16-1.55 0-1.84-.1-1.84-.64v-1.37c0-.31-.02-.48-.06-.7h.69c-.05.22-.06.36-.06.68v.32zm1.17 6.13c.88.47 1.56.67 2.78.81-.16.2-.25.32-.36.55-1.25-.24-1.88-.46-2.86-1.01l.44-.35zM382.02 40.37c0-.29-.02-.48-.06-.66h.71c-.04.17-.06.35-.06.66v.4h2.62c.51 0 .81-.02 1.04-.06v.64c-.24-.04-.53-.05-1.04-.05h-5.83c-.01 4.19-.21 5.45-1.05 6.88-.19-.21-.23-.25-.52-.44.76-1.15.97-2.43.97-5.88 0-.59-.01-.86-.04-1.14.3.03.61.05.99.05h2.27v-.4zm.3 2.05c0-.48-.01-.64-.05-.84h.68c-.04.19-.05.35-.05.85v.43h2.14c.44 0 .72-.02.92-.06v.65c-.23-.04-.51-.06-.9-.06h-2.16v1.48h1.82c.36 0 .55-.01.79-.04-.03.25-.04.48-.04.86v1.45c0 .54.02.87.06 1.14h-.64v-.45h-4.06v.45h-.64c.04-.27.06-.59.06-1.13v-1.49c0-.36-.01-.57-.04-.82.24.03.43.04.8.04h1.31v-2.46zm-1.49 4.87h4.06v-1.88h-4.06v1.88zM389.84 40.96c-.18 0-.4.02-.71.05v-.68c.19.04.38.05.71.05h1.24c.45 0 .69-.02.87-.06-.03.23-.04.41-.04.62 0 1.18.25 2.24.8 3.28.37.7.83 1.33 1.41 1.95.55.56.91.85 1.76 1.36-.25.22-.32.28-.53.6-.82-.57-1.26-.96-1.82-1.61-.54-.62-1.02-1.33-1.34-2.03-.28-.59-.42-1.01-.59-1.74-.29 1.25-.68 2.14-1.32 3.05-.35.5-.78.98-1.27 1.43-.35.32-.59.52-1.18.92-.15-.24-.27-.39-.51-.55 1.02-.64 1.56-1.1 2.18-1.85.68-.83 1.16-1.73 1.45-2.73.18-.64.25-1.11.3-2.05h-1.41zM397.21 47.92c.05-.35.07-.66.07-1.08v-5.21c0-.42-.01-.68-.05-1 .33.04.56.05 1.01.05h4.94c.44 0 .69-.01 1.01-.05-.04.29-.05.56-.05 1v5.21c0 .41.02.75.07 1.08h-.7v-.75h-5.59v.75h-.71zm.71-1.33h5.59v-5.32h-5.59v5.32z"></path><path class="st29" d="M376.83 97.56h2.24M379.07 97.56v-2.23M376.83 95.33v2.23M379.07 95.33h-2.24M376.83 97.5h2.13M378.96 95.38h-2.13M376.83 95.38v2.12M378.96 97.5v-2.12"></path><path class="st30" d="M371.19 98.32c-.43 0-.78-.35-.78-.78v-10.89c0-.43.35-.78.78-.78h10.89c.43 0 .78.35.78.78v10.89c0 .43-.35.78-.78.78h-10.89z"></path><path d="M378.14 94.27c-.48 1.07-1.55 1.81-2.79 1.81-1.67 0-3.05-1.36-3.05-3.05 0-1.21.71-2.25 1.74-2.74l.06.69c-.69.42-1.16 1.18-1.16 2.05 0 1.33 1.09 2.41 2.41 2.41 1.24 0 2.25-.92 2.4-2.1l.39.93m-3.28-6.03l.18 1.96h1.99v.63h-1.95l.06.59h2.8l1.27 2.99 1.07-.45.23.51-1.6.69-1.33-3.11h-3.03l-.36-4.22c-.06-.1-.09-.23-.09-.35 0-.42.33-.77.75-.77s.77.35.77.77c.01.41-.33.76-.76.76zM371.13 97.58h10.83v-2.42z"></path><path class="st19" d="M228.49 39.34v57.58s21.23.12 33.77.57v-60.42"></path><path d="M230.9 72.24c.16-.06.62-.58 1.39-1.57.38-.52.56-.65.87-.65.27 0 .39.08.88.63.96 1.06 2.38 2.35 2.91 2.64l-.26.56-.13-.12-.48-.41c-.64-.53-1.42-1.29-2.32-2.26-.45-.48-.48-.51-.62-.51-.13 0-.17.03-.47.44-.26.35-.95 1.2-1.22 1.5l-.21.25-.34-.5zm5.73-2.2c0 .43-.35.78-.77.78-.43 0-.78-.35-.78-.78 0-.42.35-.77.78-.77s.77.34.77.77zm-1.27 0c0 .27.22.49.49.49s.49-.22.49-.49-.22-.49-.49-.49c-.27.01-.49.22-.49.49zM238.27 70.55c.27.47.42.79.68 1.52l-.46.16c-.16-.6-.36-1.06-.64-1.53l.42-.15zm3.86-.04c-.04.11-.04.11-.15.55-.11.48-.36 1.11-.6 1.53-.49.83-1.2 1.46-2.26 1.98-.1-.17-.16-.24-.31-.38 1.05-.47 1.7-1 2.17-1.78.26-.43.46-.94.58-1.47.05-.23.08-.38.08-.46v-.07l.49.1zm-2.46-.24c.36.65.49.92.66 1.47l-.45.16c-.12-.49-.33-.98-.63-1.5l.42-.13zM244.06 74.51c.03-.18.04-.35.04-.72v-4.25c0-.36-.01-.53-.04-.7h.59c-.03.18-.03.32-.03.71v1.28c1.05.38 1.85.75 3.04 1.44l-.29.51c-.64-.45-1.59-.96-2.55-1.35l-.21-.12-.01.01c.02.14.03.23.03.4v2.06c0 .38.01.53.03.72h-.6zM251.66 73.21h1.83c.41 0 .55-.01.8-.04v.53c-.23-.03-.43-.03-.79-.03h-4.06c-.36 0-.55.01-.79.03v-.53c.25.03.39.04.79.04h1.71v-3.03h-1.19c-.37 0-.56.01-.79.03v-.53c.24.03.4.04.8.04h3c.4 0 .56-.01.8-.04v.53c-.23-.03-.42-.03-.79-.03h-1.32v3.03zM256.08 73.81c-.55.01-.55.01-.73.03v-.54c.23.04.32.05.75.05h3.25v-3.3h-3.11c-.41 0-.55.01-.79.03v-.55c.24.04.34.05.79.05h3.28l.36-.01-.01.53v3.5c0 .25.01.5.03.62h-.55v-.41h-3.27z"></path><path class="st31" d="M255.16 61.16c-.66 0-1.19-.54-1.19-1.2v-16.7c0-.66.53-1.2 1.19-1.2h16.71c.66 0 1.19.54 1.19 1.2v16.71c0 .66-.54 1.2-1.19 1.2h-16.71z"></path><path class="st32" d="M272.09 58.38c0 1-.81 1.81-1.81 1.81h-13.54c-1 0-1.81-.81-1.81-1.81v-13.53c0-1 .81-1.81 1.81-1.81h13.54c1 0 1.81.81 1.81 1.81v13.53z"></path><path d="M257.64 43.89h11.74v15.45h-11.74z"></path><path class="st6" d="M258.41 44.76h10.2v3.06h-10.2zM258.41 49.25h10.2v2.9h-10.2zM259.3 56.64h8.41v1.89h-8.41zM259.18 52.68h.84v.61h-.84zM261.13 52.68h.84v.61h-.84zM263.09 52.68h.84v.61h-.84zM265.05 52.68h.84v.61h-.84zM267 52.68h.84v.61h-.84zM259.18 48.17h.84v.61h-.84zM259.11 45.08h.99v2.38h-.99z"></path><path d="M260.02 45.15v2.23h-.84v-2.23h.84m.15-.15h-1.14v2.53h1.14v-2.53z"></path><path class="st6" d="M261.06 45.08h.99v2.38h-.99z"></path><path d="M261.98 45.15v2.23h-.84v-2.23h.84m.15-.15h-1.14v2.53h1.14v-2.53z"></path><path class="st6" d="M263.01 45.08h.99v2.38h-.99z"></path><path d="M263.93 45.15v2.23h-.84v-2.23h.84m.15-.15h-1.14v2.53h1.14v-2.53z"></path><path class="st6" d="M264.97 45.08h.99v2.38h-.99z"></path><path d="M265.89 45.15v2.23h-.84v-2.23h.84m.15-.15h-1.14v2.53h1.14v-2.53z"></path><path class="st6" d="M266.92 45.08h.99v2.38h-.99z"></path><path d="M267.84 45.15v2.23h-.84v-2.23h.84m.15-.15h-1.14v2.53h1.14v-2.53z"></path><path class="st6" d="M259.11 49.51h.99v2.38h-.99z"></path><path d="M260.02 49.58v2.23h-.84v-2.23h.84m.15-.14h-1.14v2.53h1.14v-2.53z"></path><path class="st6" d="M261.06 49.51h.99v2.38h-.99z"></path><path d="M261.98 49.58v2.23h-.84v-2.23h.84m.15-.14h-1.14v2.53h1.14v-2.53z"></path><path class="st6" d="M263.01 49.51h.99v2.38h-.99z"></path><path d="M263.93 49.58v2.23h-.84v-2.23h.84m.15-.14h-1.14v2.53h1.14v-2.53z"></path><path class="st6" d="M264.97 49.51h.99v2.38h-.99z"></path><path d="M265.89 49.58v2.23h-.84v-2.23h.84m.15-.14h-1.14v2.53h1.14v-2.53z"></path><path class="st6" d="M266.92 49.51h.99v2.38h-.99z"></path><path d="M267.84 49.58v2.23h-.84v-2.23h.84m.15-.14h-1.14v2.53h1.14v-2.53z"></path><path class="st6" d="M261.13 48.17h.84v.61h-.84zM263.09 48.17h.84v.61h-.84zM265.05 48.17h.84v.61h-.84zM267 48.17h.84v.61h-.84z"></path><path class="st19" d="M305.57 35.1v63.57c29.49.91 29.46.9 49.67 1.95l-.21-64.84"></path><path d="M274.86 41.59c-.4 0-.7.02-1 .06v-.67c.29.04.57.06 1 .06h6.26c.41 0 .72-.02 1-.06v.67c-.28-.04-.61-.06-1-.06h-2.77c-.15.52-.35 1.06-.54 1.5h2.43c.36 0 .63-.02.91-.05-.03.25-.05.53-.05.85v4.36c0 .32.02.61.06.92h-.69v-.59h-4.95v.59h-.68c.04-.32.06-.58.06-.92v-4.37c0-.3-.02-.57-.05-.84.27.03.54.05.87.05h1.44c.21-.47.36-.88.53-1.5h-2.83zm.67 3.85h4.95v-1.8h-4.95v1.8zm0 2.6h4.95v-2.06h-4.95v2.06zM284.7 43.67c.04-.16.05-.3.05-.54v-.37c0-.23.01-.41.05-.6-.48.38-.74.55-1.38.89-.11-.2-.17-.27-.35-.47.7-.32 1.28-.69 1.82-1.17.41-.36.6-.56.72-.79l.56.28-.25.25c-.12.13-.37.37-.61.58v1.34c0 .3.01.42.05.59h-.66zm1.66 4.54c-.88.52-1.46.72-2.81 1.02-.11-.25-.17-.34-.34-.54 1.13-.15 1.85-.37 2.69-.83l.46.35zm3.08-4.22c.51 0 .69-.01.98-.04-.02.27-.03.56-.03 1.02v1.8c0 .48.01.79.04.98-.26-.03-.6-.04-1.05-.04h-3.99c-.46 0-.78.01-1.05.04.03-.22.04-.5.04-.96v-1.84c0-.43-.01-.72-.03-1 .23.02.52.03.98.03h4.11zm-4.5 1.09h4.88v-.62h-4.88v.62zm0 1.08h4.88v-.63h-4.88v.63zm0 1.1h4.88v-.65h-4.88v.65zm2.71-5.53c.75-.11.92-.15 1.37-.26.78-.21 1.28-.39 1.64-.61l.4.48c-1.09.43-2 .67-3.42.87v.44c0 .26.17.3 1.4.3s1.55-.03 1.7-.16c.1-.09.15-.3.17-.8.19.08.38.15.56.18-.07.7-.19.98-.48 1.11-.25.12-.75.16-2.09.16-1.55 0-1.84-.1-1.84-.64v-1.37c0-.31-.02-.48-.06-.7h.69c-.05.22-.06.36-.06.68v.32zm1.17 6.13c.88.47 1.56.67 2.78.81-.16.2-.24.32-.36.55-1.25-.24-1.88-.46-2.86-1.01l.44-.35zM296.7 41.23c0-.29-.02-.48-.06-.66h.7c-.04.17-.06.35-.06.66v.4h2.62c.51 0 .81-.02 1.04-.06v.64c-.24-.04-.53-.05-1.04-.05h-5.83c-.01 4.19-.21 5.45-1.05 6.88-.19-.21-.24-.25-.52-.44.76-1.15.97-2.42.97-5.88 0-.59-.01-.86-.04-1.14.3.03.61.05.99.05h2.27v-.4zm.3 2.06c0-.48-.01-.64-.05-.84h.68c-.04.19-.05.35-.05.85v.43h2.14c.44 0 .72-.02.92-.06v.65c-.23-.04-.51-.06-.9-.06h-2.16v1.48h1.82c.36 0 .55-.01.79-.04-.03.25-.04.48-.04.86v1.44c0 .55.02.87.06 1.14h-.64v-.45h-4.06v.45h-.64c.04-.27.06-.59.06-1.13v-1.49c0-.36-.01-.57-.04-.82.23.03.43.04.8.04h1.31v-2.45zm-1.48 4.86h4.06v-1.88h-4.06v1.88zM304.52 41.82c-.18 0-.4.02-.71.05v-.68c.19.04.38.05.71.05h1.24c.45 0 .69-.02.87-.06-.03.23-.04.41-.04.62 0 1.18.25 2.24.8 3.28.37.71.83 1.33 1.41 1.95.55.56.91.85 1.76 1.36-.25.22-.32.28-.53.6-.82-.57-1.26-.96-1.82-1.61-.55-.62-1.02-1.33-1.34-2.03-.28-.59-.42-1.01-.59-1.74-.29 1.25-.68 2.14-1.32 3.05-.35.5-.78.98-1.27 1.43-.35.32-.59.52-1.18.92-.15-.24-.27-.39-.51-.55 1.02-.64 1.56-1.1 2.18-1.85.68-.83 1.16-1.73 1.45-2.74.18-.64.25-1.11.3-2.05h-1.41zM311.89 48.78c.05-.35.07-.66.07-1.08v-5.2c0-.42-.01-.68-.05-1 .33.04.56.05 1.01.05h4.94c.44 0 .69-.01 1.02-.05-.04.29-.05.56-.05 1v5.21c0 .41.02.75.07 1.08h-.71v-.75h-5.59v.75h-.71zm.71-1.33h5.59v-5.32h-5.59v5.32z"></path>
</g></svg>
