<?xml version="1.0" encoding="UTF-8" standalone="no"?>
<svg
   version="1.1"
   id="svg1"
   width="319.92191mm"
   height="400mm"
   viewBox="0 0 319.92191 400"
   xml:space="preserve"
   xmlns:xlink="http://www.w3.org/1999/xlink"
   xmlns="http://www.w3.org/2000/svg"
   xmlns:svg="http://www.w3.org/2000/svg"><defs
     id="defs1"><symbol
       id="AigaSymbols.svg:Information_Inv"><title
         id="title126">Information</title><rect
         x="0.5"
         y="0.5"
         width="71"
         height="71"
         ry="6"
         style="stroke:#ffffff"
         id="rect127" /><circle
         cx="36"
         cy="36"
         r="24"
         style="fill:none;stroke:#ffffff;stroke-width:6"
         id="circle127" /><path
         d="m 27,32 c 0,-5 1,-11 9,-11 4,0 8,3 8,7 0,4 -2,6 -4,7 -2,1 -4,2 -4,5 0,3 0,6 0,6"
         style="fill:none;stroke:#ffffff;stroke-width:6"
         id="path127" /><rect
         x="33"
         y="48"
         width="6"
         height="6"
         style="fill:#ffffff;stroke:none"
         id="rect128" /></symbol></defs><g
     id="layer1"
     style="opacity:1"><g
       id="g16"><rect
         style="fill:none;stroke:none;stroke-width:1;stroke-linecap:square"
         id="use329"
         width="319.92191"
         height="400"
         x="0"
         y="0" /><g
         id="g1"><g
           id="g333"><image
             width="319.92191"
             height="400"
             preserveAspectRatio="none"
             xlink:href="../../../../src/data/260314_1sss.webp"
             id="image1"
             x="0"
             y="0" /></g><g
           id="g332"
           style="opacity:1"><text
             xml:space="preserve"
             style="font-style:normal;font-variant:normal;font-weight:normal;font-stretch:normal;font-size:8px;line-height:1.5;font-family:'Noto Sans';-inkscape-font-specification:'Noto Sans';text-align:center;writing-mode:lr-tb;direction:ltr;text-anchor:middle;opacity:0.75;fill:#000000;stroke:none;stroke-width:1;stroke-linecap:square"
             x="48"
             y="226.86"
             id="text330"><tspan
               id="tspan330"
               x="48"
               y="226.86">CREO</tspan></text><text
             xml:space="preserve"
             style="font-style:normal;font-variant:normal;font-weight:normal;font-stretch:normal;font-size:7.99999px;line-height:1.5;font-family:'Noto Sans';-inkscape-font-specification:'Noto Sans';text-align:center;writing-mode:lr-tb;direction:ltr;text-anchor:middle;opacity:0.75;fill:#000000;stroke:none;stroke-width:1;stroke-linecap:square"
             x="274.70801"
             y="259.22"
             id="text331"><tspan
               id="tspan331"
               x="274.70801"
               y="259.22">Q't</tspan></text><text
             xml:space="preserve"
             style="font-style:normal;font-variant:normal;font-weight:normal;font-stretch:normal;font-size:7.99999px;line-height:1.5;font-family:'Noto Sans';-inkscape-font-specification:'Noto Sans';text-align:center;writing-mode:lr-tb;direction:ltr;text-anchor:middle;opacity:0.75;fill:#000000;stroke:none;stroke-width:1;stroke-linecap:square"
             x="269.90802"
             y="181.86"
             id="text332"><tspan
               id="tspan332"
               x="269.90802"
               y="181.86">MOG</tspan></text></g></g><g
         id="g329"><path
           style="opacity:0.75;fill:none;stroke:#000000;stroke-width:1;stroke-linecap:square"
           d="m 10,145 h 76.000001 v -5"
           id="path325" /><path
           style="opacity:0.75;fill:none;stroke:#000000;stroke-width:1;stroke-linecap:square"
           d="m 10,155 h 54 v 7 h 22.000001 v 131 h -6"
           id="path326" /><path
           style="opacity:0.75;fill:none;stroke:#000000;stroke-width:1;stroke-linecap:square"
           d="m 311,188 h -79 v -12 h -15 v 12 h -84 v -18 h 178"
           id="path327" /><path
           style="opacity:0.75;fill:none;stroke:#000000;stroke-width:1;stroke-linecap:square"
           d="M 311,204 H 133 l 2,9 5,11 15,11 12.88904,2.03046 L 216,237 l 8,-7 21,20 h 66"
           id="path328" /><path
           style="opacity:0.75;fill:none;stroke:#000000;stroke-width:1;stroke-linecap:square"
           d="m 311,264 h -77 l -12,-12 h -19 l -13,13 h -12 l -13,-13 h -11 l -23,-22 -19,20 v 43 h 9"
           id="path329" /><path
           style="opacity:0.75;fill:none;stroke:#000000;stroke-width:1;stroke-linecap:square"
           d="m 112,209 h 12 v 6 l -2,7 -4,4 -3,1 h -3 z"
           id="path330" /></g><g
         id="g18"
         style="display:inline;opacity:1"><g
           id="g17"><g
             id="use3"
             style="display:inline"
             transform="translate(-13,5.75)"><path
               style="fill:none;stroke:#782121;stroke-width:0.5;stroke-linecap:square;stroke-dasharray:none"
               d="m 105,255 v -2"
               id="path3" /><ellipse
               style="fill:#00d400;stroke:none;stroke-width:0.1;stroke-linecap:square"
               id="ellipse3"
               cx="105"
               cy="252.49998"
               rx="1"
               ry="1.5" /></g><use
             x="0"
             y="0"
             xlink:href="#use3"
             id="use4"
             transform="translate(13,11)" /><use
             x="0"
             y="0"
             xlink:href="#use3"
             id="use5"
             transform="translate(-2.98092e-7,17)" /><use
             x="0"
             y="0"
             xlink:href="#use3"
             id="use6"
             transform="translate(13,28)" /><g
             id="use7"
             style="display:inline"
             transform="translate(8.01096e-7,-0.249998)"><path
               style="fill:none;stroke:#782121;stroke-width:0.5;stroke-linecap:square;stroke-dasharray:none"
               d="m 105,255 v -2"
               id="path4" /><ellipse
               style="fill:#00d400;stroke:none;stroke-width:0.1;stroke-linecap:square"
               id="ellipse4"
               cx="105"
               cy="252.49998"
               rx="1"
               ry="1.5" /></g></g></g><g
         id="g353"><use
           xlink:href="#AigaSymbols.svg:Information_Inv"
           style="fill:#000000;stroke:#000000"
           id="use1"
           transform="matrix(0.0972222,0,0,0.0972222,126.5,202.5)" /></g></g></g></svg>
