<?xml version="1.0" encoding="UTF-8" standalone="no"?>
<!-- Created with Inkscape (http://www.inkscape.org/) -->

<svg
   version="1.1"
   id="svg1"
   width="185.84518"
   height="667.75928"
   viewBox="0 0 185.84518 667.75927"
   xmlns="http://www.w3.org/2000/svg"
   xmlns:svg="http://www.w3.org/2000/svg">
  <defs
     id="defs1">
    <linearGradient
       x1="0"
       y1="0"
       x2="1"
       y2="0"
       gradientUnits="userSpaceOnUse"
       gradientTransform="matrix(19.357407,0,0,-19.357391,494.35406,515.79553)"
       spreadMethod="pad"
       id="linearGradient2275">
      <stop
         style="stop-opacity:1;stop-color:#ffffff"
         offset="0"
         id="stop2274" />
      <stop
         style="stop-opacity:1;stop-color:#231f20"
         offset="1"
         id="stop2275" />
    </linearGradient>
    <linearGradient
       x1="0"
       y1="0"
       x2="1"
       y2="0"
       gradientUnits="userSpaceOnUse"
       gradientTransform="matrix(19.357407,0,0,-19.357391,494.35406,515.79553)"
       spreadMethod="pad"
       id="linearGradient2277">
      <stop
         style="stop-opacity:1;stop-color:#ffffff"
         offset="0"
         id="stop2276" />
      <stop
         style="stop-opacity:1;stop-color:#231f20"
         offset="1"
         id="stop2277" />
    </linearGradient>
    <linearGradient
       x1="0"
       y1="0"
       x2="1"
       y2="0"
       gradientUnits="userSpaceOnUse"
       gradientTransform="matrix(19.357407,0,0,-19.357391,494.35406,515.79553)"
       spreadMethod="pad"
       id="linearGradient2279">
      <stop
         style="stop-opacity:1;stop-color:#ffffff"
         offset="0"
         id="stop2278" />
      <stop
         style="stop-opacity:1;stop-color:#231f20"
         offset="1"
         id="stop2279" />
    </linearGradient>
    <linearGradient
       x1="0"
       y1="0"
       x2="1"
       y2="0"
       gradientUnits="userSpaceOnUse"
       gradientTransform="matrix(19.357407,0,0,-19.357391,494.35406,515.79553)"
       spreadMethod="pad"
       id="linearGradient2281">
      <stop
         style="stop-opacity:1;stop-color:#ffffff"
         offset="0"
         id="stop2280" />
      <stop
         style="stop-opacity:1;stop-color:#231f20"
         offset="1"
         id="stop2281" />
    </linearGradient>
    <linearGradient
       x1="0"
       y1="0"
       x2="1"
       y2="0"
       gradientUnits="userSpaceOnUse"
       gradientTransform="matrix(19.357407,0,0,-19.357391,494.35406,515.79553)"
       spreadMethod="pad"
       id="linearGradient2283">
      <stop
         style="stop-opacity:1;stop-color:#ffffff"
         offset="0"
         id="stop2282" />
      <stop
         style="stop-opacity:1;stop-color:#231f20"
         offset="1"
         id="stop2283" />
    </linearGradient>
    <linearGradient
       x1="0"
       y1="0"
       x2="1"
       y2="0"
       gradientUnits="userSpaceOnUse"
       gradientTransform="matrix(19.357407,0,0,-19.357391,494.35406,515.79553)"
       spreadMethod="pad"
       id="linearGradient2285">
      <stop
         style="stop-opacity:1;stop-color:#ffffff"
         offset="0"
         id="stop2284" />
      <stop
         style="stop-opacity:1;stop-color:#231f20"
         offset="1"
         id="stop2285" />
    </linearGradient>
    <linearGradient
       x1="0"
       y1="0"
       x2="1"
       y2="0"
       gradientUnits="userSpaceOnUse"
       gradientTransform="matrix(19.357407,0,0,-19.357391,494.35406,515.79553)"
       spreadMethod="pad"
       id="linearGradient2287">
      <stop
         style="stop-opacity:1;stop-color:#ffffff"
         offset="0"
         id="stop2286" />
      <stop
         style="stop-opacity:1;stop-color:#231f20"
         offset="1"
         id="stop2287" />
    </linearGradient>
    <linearGradient
       x1="0"
       y1="0"
       x2="1"
       y2="0"
       gradientUnits="userSpaceOnUse"
       gradientTransform="matrix(19.357407,0,0,-19.357391,494.35406,515.79553)"
       spreadMethod="pad"
       id="linearGradient2289">
      <stop
         style="stop-opacity:1;stop-color:#ffffff"
         offset="0"
         id="stop2288" />
      <stop
         style="stop-opacity:1;stop-color:#231f20"
         offset="1"
         id="stop2289" />
    </linearGradient>
    <linearGradient
       x1="0"
       y1="0"
       x2="1"
       y2="0"
       gradientUnits="userSpaceOnUse"
       gradientTransform="matrix(19.357407,0,0,-19.357391,494.35406,515.79553)"
       spreadMethod="pad"
       id="linearGradient2291">
      <stop
         style="stop-opacity:1;stop-color:#ffffff"
         offset="0"
         id="stop2290" />
      <stop
         style="stop-opacity:1;stop-color:#231f20"
         offset="1"
         id="stop2291" />
    </linearGradient>
    <linearGradient
       x1="0"
       y1="0"
       x2="1"
       y2="0"
       gradientUnits="userSpaceOnUse"
       gradientTransform="matrix(19.357407,0,0,-19.357391,494.35406,515.79553)"
       spreadMethod="pad"
       id="linearGradient2293">
      <stop
         style="stop-opacity:1;stop-color:#ffffff"
         offset="0"
         id="stop2292" />
      <stop
         style="stop-opacity:1;stop-color:#231f20"
         offset="1"
         id="stop2293" />
    </linearGradient>
    <linearGradient
       x1="0"
       y1="0"
       x2="1"
       y2="0"
       gradientUnits="userSpaceOnUse"
       gradientTransform="matrix(19.357407,0,0,-19.357391,494.35406,515.79553)"
       spreadMethod="pad"
       id="linearGradient2295">
      <stop
         style="stop-opacity:1;stop-color:#ffffff"
         offset="0"
         id="stop2294" />
      <stop
         style="stop-opacity:1;stop-color:#231f20"
         offset="1"
         id="stop2295" />
    </linearGradient>
    <linearGradient
       x1="0"
       y1="0"
       x2="1"
       y2="0"
       gradientUnits="userSpaceOnUse"
       gradientTransform="matrix(19.357407,0,0,-19.357391,494.35406,515.79553)"
       spreadMethod="pad"
       id="linearGradient2297">
      <stop
         style="stop-opacity:1;stop-color:#ffffff"
         offset="0"
         id="stop2296" />
      <stop
         style="stop-opacity:1;stop-color:#231f20"
         offset="1"
         id="stop2297" />
    </linearGradient>
    <linearGradient
       x1="0"
       y1="0"
       x2="1"
       y2="0"
       gradientUnits="userSpaceOnUse"
       gradientTransform="matrix(19.357407,0,0,-19.357391,494.35406,515.79553)"
       spreadMethod="pad"
       id="linearGradient2299">
      <stop
         style="stop-opacity:1;stop-color:#ffffff"
         offset="0"
         id="stop2298" />
      <stop
         style="stop-opacity:1;stop-color:#231f20"
         offset="1"
         id="stop2299" />
    </linearGradient>
  </defs>
  <g
     id="g1"
     transform="translate(-950.05884,-70.882004)">
    <g
       id="g19">
      <g
         id="g18">
        <g
           id="g2"
           style="display:inline;opacity:1"
           transform="translate(-444.437,-372.061)">
          <path
             id="path131"
             d="m 0,0 c 0,33.473 23.143,114.767 28.938,114.767 5.795,0 28.94,-81.294 28.94,-114.759 z"
             style="fill:#ffffff;fill-opacity:1;fill-rule:nonzero;stroke:none"
             transform="matrix(1.33333,0,0,-1.33333,1449.67,689.251)" />
          <path
             id="path132"
             d="m 0,0 c 0,33.473 23.144,114.767 28.938,114.767 5.798,0 28.939,-81.294 28.939,-114.759 z"
             style="fill:none;stroke:#231f20;stroke-width:0.863;stroke-linecap:butt;stroke-linejoin:miter;stroke-miterlimit:10;stroke-dasharray:none;stroke-opacity:1"
             transform="matrix(1.33333,0,0,-1.33333,1449.57,689.251)" />
          <path
             id="path133"
             d="m 0,0 h -12.992 v -6.611 -3.304 h -12.006 v -18.212 h 5.269"
             style="fill:none;stroke:#100f0d;stroke-width:0.431;stroke-linecap:butt;stroke-linejoin:miter;stroke-miterlimit:10;stroke-dasharray:none;stroke-opacity:1"
             transform="matrix(1.33333,0,0,-1.33333,1521.07,644.621)" />
          <path
             id="path134"
             d="M 0,0 V -5.412"
             style="fill:none;stroke:#100f0d;stroke-width:0.431;stroke-linecap:butt;stroke-linejoin:miter;stroke-miterlimit:10;stroke-dasharray:none;stroke-opacity:1"
             transform="matrix(1.33333,0,0,-1.33333,1502.13,682.035)" />
          <path
             id="path135"
             d="M 0,0 H 5.489 V -5.412"
             style="fill:none;stroke:#100f0d;stroke-width:0.431;stroke-linecap:butt;stroke-linejoin:miter;stroke-miterlimit:10;stroke-dasharray:none;stroke-opacity:1"
             transform="matrix(1.33333,0,0,-1.33333,1502.13,682.035)" />
          <path
             id="path136"
             d="M 0,0 H -5.526 V -5.412"
             style="fill:none;stroke:#100f0d;stroke-width:0.431;stroke-linecap:butt;stroke-linejoin:miter;stroke-miterlimit:10;stroke-dasharray:none;stroke-opacity:1"
             transform="matrix(1.33333,0,0,-1.33333,1502.13,682.035)" />
          <path
             id="path137"
             d="M 0,0 H 1.752 V -0.453 H 0.655 v -0.332 h 1.02 v -0.436 h -1.02 v -0.415 h 1.13 V -2.117 H 0 Z"
             style="fill:#231f20;fill-opacity:1;fill-rule:nonzero;stroke:none"
             transform="matrix(1.33333,0,0,-1.33333,1497.34,684.241)" />
          <path
             id="path138"
             d="M 0,0 H 1.752 V -0.453 H 0.656 V -0.785 H 1.672 V -1.221 H 0.656 V -1.636 H 1.783 V -2.117 H 0 Z"
             style="fill:#231f20;fill-opacity:1;fill-rule:nonzero;stroke:none"
             transform="matrix(1.33333,0,0,-1.33333,1504.6,684.241)" />
          <path
             id="path2416"
             d="m 0,0 c 0.444,-0.224 0.881,-0.553 1.024,-0.661 0.063,0.095 0.329,0.514 0.545,1.202 L 1.901,0.437 C 1.807,0.175 1.632,-0.294 1.275,-0.856 1.384,-0.94 1.688,-1.185 2.055,-1.563 L 1.807,-1.828 C 1.468,-1.45 1.167,-1.195 1.083,-1.129 0.542,-1.828 -0.018,-2.132 -0.5,-2.359 l -0.188,0.265 c 0.374,0.165 0.989,0.445 1.53,1.164 -0.331,0.262 -0.656,0.483 -1.03,0.692 z"
             style="fill:#231f20;fill-opacity:1;fill-rule:nonzero;stroke:none"
             transform="matrix(1.33333,0,0,-1.33333,1497.01,665.613)" />
          <path
             id="path2417"
             d="m 0,0 c 0.104,-0.227 0.157,-0.43 0.217,-0.716 l -0.263,-0.088 c -0.049,0.305 -0.091,0.451 -0.199,0.728 z m -0.518,-0.059 c 0.113,-0.234 0.162,-0.42 0.228,-0.712 l -0.262,-0.091 c -0.05,0.29 -0.098,0.457 -0.207,0.722 z m -0.29,-0.612 h -1.904 v 0.297 h 1.904 z m -1.869,-2.547 -0.129,0.286 c 0.884,0.158 1.167,0.496 1.181,1.37 h -1.37 v 0.293 h 2.845 v -0.293 h -1.154 c -0.027,-1.016 -0.408,-1.457 -1.373,-1.656"
             style="fill:#231f20;fill-opacity:1;fill-rule:nonzero;stroke:none"
             transform="matrix(1.33333,0,0,-1.33333,1504.45,664.528)" />
          <path
             id="path2418"
             d="M 0,0 H -0.29 V 1.271 C -0.699,0.996 -0.972,0.859 -1.388,0.709 l -0.135,0.266 c 0.912,0.262 1.669,0.943 2.022,1.422 L 0.758,2.219 C 0.521,1.922 0.217,1.663 0,1.488 Z"
             style="fill:#231f20;fill-opacity:1;fill-rule:nonzero;stroke:none"
             transform="matrix(1.33333,0,0,-1.33333,1506.9,668.842)" />
          <path
             id="path2419"
             d="M 0,0 C 0.775,0.472 0.979,1.079 1.083,1.761 H 0.119 V 2.062 H 1.114 C 1.136,2.345 1.139,2.484 1.136,2.701 L 1.468,2.694 C 1.461,2.442 1.453,2.32 1.433,2.062 H 2.768 V 1.478 C 2.768,1.384 2.764,0.408 2.631,0.077 2.509,-0.224 2.188,-0.224 2.033,-0.224 c -0.282,0 -0.429,0.028 -0.541,0.049 L 1.485,0.144 C 1.639,0.115 1.81,0.087 2.023,0.087 c 0.255,0 0.304,0.098 0.335,0.206 0.071,0.245 0.088,0.978 0.088,1.14 V 1.761 H 1.397 C 1.286,0.996 1.027,0.255 0.21,-0.241 Z"
             style="fill:#231f20;fill-opacity:1;fill-rule:nonzero;stroke:none"
             transform="matrix(1.33333,0,0,-1.33333,1508.47,668.465)" />
          <path
             id="path2420"
             d="M 0,0 C 0.43,0.133 0.877,0.27 1.065,1.346 L 1.362,1.22 C 1.209,0.521 0.922,-0.279 -0.314,-0.388 V 2.474 H 0 Z m -0.912,1.523 c 0,-1.128 -0.315,-1.625 -0.675,-1.974 l -0.23,0.234 c 0.387,0.388 0.593,0.786 0.593,1.716 v 0.877 h 0.312 z"
             style="fill:#231f20;fill-opacity:1;fill-rule:nonzero;stroke:none"
             transform="matrix(1.33333,0,0,-1.33333,1515.2,668.213)" />
          <path
             id="path2421"
             d="M 0,0 -0.018,0.311 0.741,0.37 V 1.146 H 1.059 V 0.395 L 2.89,0.538 C 2.806,-0.186 2.502,-0.608 1.838,-0.909 l -0.185,0.248 c 0.625,0.248 0.765,0.587 0.849,0.877 L 1.059,0.091 v -1.154 c 0,-0.325 0.129,-0.367 0.437,-0.367 h 0.705 c 0.245,0 0.409,0.014 0.626,0.049 L 2.834,-1.695 C 2.701,-1.713 2.548,-1.733 2.223,-1.733 H 1.475 c -0.601,0 -0.734,0.248 -0.734,0.653 v 1.143 z"
             style="fill:#231f20;fill-opacity:1;fill-rule:nonzero;stroke:none"
             transform="matrix(1.33333,0,0,-1.33333,1497.97,671.81)" />
          <path
             id="path2422"
             d="M 0,0 C 1.768,0.094 2.288,1.331 2.529,2.114 L 2.802,1.911 C 2.635,1.415 2.075,-0.217 0.063,-0.35 Z M 1.003,1.517 C 0.797,1.656 0.43,1.862 -0.073,2.02 L 0.084,2.299 C 0.702,2.114 1.087,1.866 1.178,1.81 Z"
             style="fill:#231f20;fill-opacity:1;fill-rule:nonzero;stroke:none"
             transform="matrix(1.33333,0,0,-1.33333,1502.58,673.645)" />
          <path
             id="path2423"
             d="M 0,0 C -0.144,-0.245 -0.206,-0.325 -0.301,-0.44 0.063,-0.622 0.465,-0.839 0.811,-1.136 0.996,-0.863 1.156,-0.542 1.237,0 Z m -1.143,-0.759 c 0.416,0.259 0.724,0.584 0.933,1.049 H 1.597 C 1.534,-0.28 1.353,-1.95 -0.744,-2.495 l -0.151,0.29 c 0.574,0.136 1.116,0.394 1.513,0.831 -0.29,0.248 -0.597,0.465 -1.11,0.724 -0.102,-0.102 -0.199,-0.2 -0.445,-0.353 z"
             style="fill:#231f20;fill-opacity:1;fill-rule:nonzero;stroke:none"
             transform="matrix(1.33333,0,0,-1.33333,1508.3,670.915)" />
          <path
             id="path2424"
             d="m 1136.429,337.526 h -3.006 v 0.332 h 3.006 z"
             style="fill:#231f20;fill-opacity:1;fill-rule:nonzero;stroke:none"
             transform="matrix(1.33333,0,0,-1.33333,0,1122.52)" />
        </g>
      </g>
      <rect
         style="fill:none;stroke:none;stroke-width:0.377953;stroke-linecap:square"
         id="use19"
         width="185.84518"
         height="667.75928"
         x="950.05884"
         y="70.882004" />
    </g>
  </g>
</svg>
