<?xml version="1.0" encoding="UTF-8" standalone="no"?>
<!-- Created with Inkscape (http://www.inkscape.org/) -->

<svg
   viewBox="-225 -200 420 340"
   version="1.1"
   id="svg1"
   xml:space="preserve"
   height="340mm"
   width="420mm"
   xmlns:xlink="http://www.w3.org/1999/xlink"
   xmlns="http://www.w3.org/2000/svg"
   xmlns:svg="http://www.w3.org/2000/svg"><defs
     id="defs1"><rect
       x="119.44444"
       y="110.55556"
       width="55"
       height="24.444445"
       id="rect92" /><symbol
       id="AigaSymbols.svg:BaggageLockers_Inv"><title
         id="title43">Baggage Lockers</title><rect
         x="0.5"
         y="0.5"
         width="71"
         height="71"
         ry="6"
         style="stroke:#ffffff"
         id="rect43"
         rx="6" /><!-- key --><path
         d="m 34.625,11 a 7.5,7.5 0 1 0 0,7 H 37 l 2.5,-2.5 2,2 2,-2 2,2 2,-2 2,2 L 52,15 c 0.5,-0.5 0.5,-1 0,-1.5 L 49.5,11 Z M 27,14.5 a 2,2 0 1 1 -4,0 2,2 0 1 1 4,0 z"
         style="fill:#ffffff;stroke:none"
         id="path44-2" /><!-- locker --><rect
         x="16.5"
         y="26.5"
         width="39"
         height="32"
         style="fill:none;stroke:#ffffff;stroke-width:5"
         id="rect44" /><!-- bag --><path
         d="M 33.5,31.5 A 1.5,1.5 0 0 0 32,33 v 2.5 h -3 v 18 h 14.5 v -18 H 40 V 33 a 1.5,1.5 0 0 0 -1.5,-1.5 z m 0,1.5 h 5 v 2.5 h -5 z m -8,2.5 A 2.5,2.5 0 0 0 23,38 v 13 a 2.5,2.5 0 0 0 2.5,2.5 h 2 v -18 z m 19.5,0 v 18 h 1.5 A 2.5,2.5 0 0 0 49,51 V 38 a 2.5,2.5 0 0 0 -2.5,-2.5 z"
         style="fill:#ffffff;stroke:none"
         id="path45-8" /></symbol><symbol
       id="AigaSymbols.svg:ToiletsMen_Inv"><title
         id="title79">Toilets - Men</title><rect
         x="0.5"
         y="0.5"
         width="71"
         height="71"
         ry="6"
         style="stroke:#ffffff"
         id="rect79"
         rx="6" /><g
         style="fill:#ffffff;stroke:none"
         id="g79"><circle
           cx="36"
           cy="9"
           r="5"
           id="circle79" /><path
           d="m 24,22 v 15.5 a 2.25,2.25 0 0 0 4.5,0 V 23 h 1 v 39.5 a 3,3 0 0 0 6,0 V 40 h 1 v 22.5 a 3,3 0 0 0 6,0 V 23 h 1 v 14.5 a 2.25,2.25 0 0 0 4.5,0 V 22 A 7,7 0 0 0 41,15 H 31 a 7,7 0 0 0 -7,7 z"
           id="path79-4" /></g></symbol><symbol
       id="AigaSymbols.svg:ToiletsWomen_Inv"><title
         id="title81">Toilets - Women</title><rect
         x="0.5"
         y="0.5"
         width="71"
         height="71"
         ry="6"
         style="stroke:#ffffff"
         id="rect81"
         rx="6" /><g
         style="fill:#ffffff;stroke:none"
         id="g81"><circle
           cx="36"
           cy="10"
           r="5"
           id="circle81" /><path
           d="m 35.5,64 a 2.5,2.5 0 0 1 -5,0 V 47 H 24 l 7,-23.5 h -1 l -4.1,13.4 a 2.1,2.1 0 0 1 -4,-1.2 L 26.5,20.5 A 6.5,6.5 0 0 1 33,16 h 6 a 6.5,6.5 0 0 1 6.5,4.5 l 4.6,15.2 a 2.1,2.1 0 0 1 -4,1.2 L 42,23.5 H 41 L 48,47 h -6.5 v 17 a 2.5,2.5 0 0 1 -5,0 V 47 h -1 z"
           id="path81-3" /></g></symbol><symbol
       id="AigaSymbols.svg:Elevator_Inv"><title
         id="title75">Elevator</title><rect
         x="0.5"
         y="0.5"
         width="71"
         height="71"
         ry="6"
         style="stroke:#ffffff"
         id="rect75"
         rx="6" /><g
         style="fill:none;stroke:#ffffff;stroke-width:5;stroke-linecap:round;stroke-linejoin:round"
         id="g76"><!-- Arrow up --><path
           d="M 26.5,23.5 V 6.5 M 20,14 26.5,6.5 33,14"
           id="path75-6" /><!-- Arrow down --><path
           d="m 45.5,6.5 v 17 M 39,16 45.5,23.5 52,16"
           id="path76-8" /></g><rect
         x="17"
         y="28"
         width="38"
         height="38"
         ry="5"
         style="fill:#ffffff;stroke:none"
         id="rect76"
         rx="5" /><rect
         x="22"
         y="33"
         width="28"
         height="28"
         style="stroke:none"
         id="rect77" /><g
         id="person2"
         style="fill:#ffffff;stroke:none"><circle
           cx="27.5"
           cy="38.75"
           r="1.75"
           id="circle77" /><path
           d="m 24.5,41 a 1,1 0 0 0 -1,1 v 7 a 1,1 0 0 0 1,1 h 0.25 v 8.5 a 1.25,1.25 0 1 0 2.5,0 V 50 h 0.5 v 8.5 a 1.25,1.25 0 1 0 2.5,0 V 50 h 0.25 a 1,1 0 0 0 1,-1 v -7 a 1,1 0 0 0 -1,-1 z"
           id="path77-1" /></g><use
         x="8.5"
         xlink:href="#person2"
         id="use77" /><use
         x="17"
         xlink:href="#person2"
         id="use78" /></symbol><symbol
       id="AigaSymbols.svg:Shops_Inv"><title
         id="title193">Shops</title><rect
         x="0.5"
         y="0.5"
         width="71"
         height="71"
         ry="6"
         style="stroke:#ffffff"
         id="rect193"
         rx="6" /><g
         style="fill:#ffffff;stroke:none"
         id="g196"><!-- Pipe --><path
           d="m 19.5,11 v 5 c 0,1.1 1,1.5 2,1 l 13.9,-6.4 c 0.4,-0.2 0.9,0 1.1,0.4 l 1.1,2.3 c 0.2,0.4 0,0.9 -0.4,1.1 L 18,23.1 c -3.5,1.6 -7,-0.6 -7,-3.6 V 11 Z"
           id="path194" /><!-- Book --><path
           d="M 27.5,22 14,28 c -2.2,1 -3,2.4 -3,4.5 v 21 A 5.5,5.5 0 0 0 16.5,59 H 35 v -3.5 a 2,2 0 0 1 0,-4 V 26 h -7.5 z m 0.5,8 h 3 V 48 H 20 l 8,-3.5 z M 16.5,52 h 13 a 2,2 0 0 0 0,3 h -13 a 1.5,1.5 0 0 1 0,-3 z"
           id="path195" /><!-- Present --><path
           d="M 49,10.5 45,11.8 46.9,18 42.6,14.6 40,18 45,22 H 40 V 59 H 62 V 22 H 57 L 62,18 59.4,14.6 55.1,18 57,11.8 53,10.5 51,17 Z M 44,26 h 5 v 6 h -5 z m 9,0 h 5 v 6 h -5 z m -9,10 h 5 v 19 h -5 z m 9,0 h 5 v 19 h -5 z"
           id="path196" /></g></symbol><symbol
       id="AigaSymbols.svg:StairsDown_Inv"><title
         id="title65">Stairs Down</title><rect
         x="0.5"
         y="0.5"
         width="71"
         height="71"
         ry="6"
         style="stroke:#ffffff"
         id="rect65"
         rx="6" /><path
         d="m 9,56.5 h 12 v -10 h 10 v -10 h 10 v -10 h 10 v -10 h 12"
         style="fill:none;stroke:#ffffff;stroke-width:5"
         id="path66-0" /><path
         d="M 42,57 54,45 m -12,3 v 9 h 9"
         style="fill:none;stroke:#ffffff;stroke-width:4;stroke-linecap:round;stroke-linejoin:round"
         id="path67-8" /></symbol><symbol
       id="AigaSymbols.svg:StairsUp_Inv"><title
         id="title69">Stairs Up</title><rect
         x="0.5"
         y="0.5"
         width="71"
         height="71"
         ry="6"
         style="stroke:#ffffff"
         id="rect69"
         rx="6" /><path
         d="m 9,56.5 h 12 v -10 h 10 v -10 h 10 v -10 h 10 v -10 h 12"
         style="fill:none;stroke:#ffffff;stroke-width:5"
         id="path70-2" /><path
         d="M 54,45 42,57 m 12,-3 v -9 h -9"
         style="fill:none;stroke:#ffffff;stroke-width:4;stroke-linecap:round;stroke-linejoin:round"
         id="path71-0" /></symbol><symbol
       id="AigaSymbols.svg:WheelChairInv"><title
         id="title289">NPS Wheelchair Accessible - 1996</title><rect
         x="0.5"
         y="0.5"
         width="71"
         height="71"
         ry="6"
         style="stroke:#ffffff"
         id="rect289"
         rx="6" /><g
         style="fill:#ffffff;stroke:none"
         id="g291"><circle
           cx="30"
           cy="11.75"
           r="5"
           id="circle289" /><path
           d="M 51,36.5 C 50.48,35.61 49.5,35 48.5,35 H 36 L 35.8,31 H 45 a 2.25,2.25 0 0 0 0,-4.5 h -9.5 l -0.2,-4.3 c -0.18,-2.6 -2.2,-4.75 -4.9,-4.6 -2.7,0.15 -5,2.5 -4.8,5.1 L 26.45,38 c 0.2,2.6 2.45,4.5 5.05,4.5 H 48 L 54.5,54 a 2.916,2.916 0 0 0 5,-3 z"
           id="path290" /><path
           d="M 23.2,29 A 19,19 0 1 0 50.9,52.5 L 48.2,48 A 15,15 0 1 1 23.5,33.8 Z"
           id="path291" /></g></symbol><symbol
       id="AigaSymbols.svg:WheelChair_Inv"><title
         id="title293">NPS Wheelchair Accessible</title><rect
         x="0.5"
         y="0.5"
         width="71"
         height="71"
         ry="6"
         style="stroke:#ffffff"
         id="rect293"
         rx="6" /><g
         style="fill:#ffffff;stroke:none"
         id="g295"><circle
           cx="30"
           cy="11.75"
           r="5"
           id="circle293" /><path
           d="m 63.5,55.5 a 2.25,2.25 0 0 0 0,-4.5 h -4 L 51,36.5 C 50.48,35.61 49.5,35 48.5,35 H 36 L 35.8,31 H 45 a 2.25,2.25 0 0 0 0,-4.5 h -9.5 l -0.2,-4.3 c -0.18,-2.6 -2.2,-4.75 -4.9,-4.6 -2.7,0.15 -5,2.5 -4.8,5.1 L 26.45,38 c 0.2,2.6 2.45,4.5 5.05,4.5 H 48 L 54.5,54 c 0.25,0.5 1.3,1.5 2.5,1.5 z"
           id="path294" /><path
           d="M 23.2,29 A 19,19 0 1 0 50.9,52.5 L 48.2,48 A 15,15 0 1 1 23.5,33.8 Z"
           id="path295" /></g></symbol><symbol
       id="AigaSymbols.svg:FirstAid_Inv"><title
         id="title30">First Aid</title><rect
         x="0.5"
         y="0.5"
         width="71"
         height="71"
         ry="6"
         style="stroke:#ffffff"
         id="rect30"
         rx="6" /><path
         d="M 44,13 V 28 H 59 V 44 H 44 V 59 H 28 V 44 H 13 V 28 H 28 V 13 Z"
         style="fill:#ffffff;stroke:none"
         id="path31" /></symbol><symbol
       id="AigaSymbols.svg:Information_Inv"><title
         id="title126">Information</title><rect
         x="0.5"
         y="0.5"
         width="71"
         height="71"
         ry="6"
         style="stroke:#ffffff"
         id="rect127"
         rx="6" /><circle
         cx="36"
         cy="36"
         r="24"
         style="fill:none;stroke:#ffffff;stroke-width:6"
         id="circle127" /><path
         d="m 27,32 c 0,-5 1,-11 9,-11 4,0 8,3 8,7 0,4 -2,6 -4,7 -2,1 -4,2 -4,5 0,3 0,6 0,6"
         style="fill:none;stroke:#ffffff;stroke-width:6"
         id="path127" /><rect
         x="33"
         y="48"
         width="6"
         height="6"
         style="fill:#ffffff;stroke:none"
         id="rect128" /></symbol><rect
       x="119.44444"
       y="110.55556"
       width="55"
       height="24.444445"
       id="rect93" /><rect
       x="119.44444"
       y="110.55556"
       width="55"
       height="24.444445"
       id="rect94" /><rect
       x="119.44444"
       y="110.55556"
       width="55"
       height="24.444445"
       id="rect95" /><rect
       x="119.44444"
       y="110.55556"
       width="55"
       height="24.444445"
       id="rect96" /><rect
       x="119.44444"
       y="110.55556"
       width="55"
       height="24.444445"
       id="rect97" /><rect
       x="119.44444"
       y="110.55556"
       width="55"
       height="24.444445"
       id="rect98" /><rect
       x="119.44444"
       y="110.55556"
       width="55"
       height="24.444445"
       id="rect99" /><rect
       x="119.44444"
       y="110.55556"
       width="55"
       height="24.444445"
       id="rect100" /><rect
       x="119.44444"
       y="110.55556"
       width="55"
       height="24.444445"
       id="rect101" /><rect
       x="119.44444"
       y="110.55556"
       width="55"
       height="24.444445"
       id="rect102" /><rect
       x="119.44444"
       y="110.55556"
       width="55"
       height="24.444445"
       id="rect103" /><rect
       x="119.44444"
       y="110.55556"
       width="55"
       height="24.444445"
       id="rect104" /><rect
       x="119.44444"
       y="110.55556"
       width="55"
       height="24.444445"
       id="rect105" /><rect
       x="119.44444"
       y="110.55556"
       width="55"
       height="24.444445"
       id="rect106" /><rect
       x="119.44444"
       y="110.55556"
       width="55"
       height="24.444445"
       id="rect2" /><symbol
       id="AigaSymbols.svg:DrinkingFountain_Inv"><title
         id="title103">Drinking Fountain</title><rect
         x="0.5"
         y="0.5"
         width="71"
         height="71"
         ry="6"
         style="stroke:#ffffff"
         id="rect103-2" /><g
         style="fill:#ffffff;stroke:none"
         id="g119"><circle
           cx="45"
           cy="16"
           r="5.5"
           id="circle104" /><path
           d="m 34,28.5 v 5 a 2.5,2.5 0 0 0 0.75,1.75 l 6.5,6.5 a 2.475,2.475 0 0 0 3.5,-3.5 L 39,32.5 v -10 a 5.5,5.5 0 0 0 -8,-5 L 19,24 a 5,5 0 0 0 -3,5 v 32.5 a 4,4 0 0 0 8,0 v -27 z"
           id="path104-5" /><path
           d="m 54.5,45 h 7 V 29 h -17 a 2.5,2.5 0 0 0 -1.75,4.25 z"
           id="path105-4" /><!-- Water Drops --><circle
           cx="47.75"
           cy="27.25"
           r="0.69999999"
           id="circle105" /><circle
           cx="49.5"
           cy="27.25"
           r="0.69999999"
           id="circle106" /><circle
           cx="47.75"
           cy="25.25"
           r="0.69999999"
           id="circle107" /><circle
           cx="49.75"
           cy="25.25"
           r="0.69999999"
           id="circle108" /><circle
           cx="48.5"
           cy="23.25"
           r="0.69999999"
           id="circle109" /><circle
           cx="50.75"
           cy="23.75"
           r="0.69999999"
           id="circle110" /><circle
           cx="49.75"
           cy="21.75"
           r="0.75"
           id="circle111" /><circle
           cx="51.5"
           cy="21"
           r="0.75"
           id="circle112" /><circle
           cx="51.5"
           cy="21"
           r="0.75"
           id="circle113" /><circle
           cx="52.5"
           cy="23"
           r="0.75"
           id="circle114" /><circle
           cx="53.75"
           cy="21"
           r="0.85000002"
           id="circle115" /><circle
           cx="54.25"
           cy="23.5"
           r="0.85000002"
           id="circle116" /><circle
           cx="55.5"
           cy="22"
           r="0.89999998"
           id="circle117" /><circle
           cx="55.75"
           cy="25.25"
           r="0.89999998"
           id="circle118" /><circle
           cx="57.25"
           cy="23.5"
           r="0.89999998"
           id="circle119" /></g></symbol><symbol
       id="AigaSymbols.svg:WaitingRoom_Inv"><title
         id="title122">Waiting Room</title><rect
         x="0.5"
         y="0.5"
         width="71"
         height="71"
         ry="6"
         style="stroke:#ffffff"
         id="rect122-7" /><!-- Clock --><circle
         cx="49.5"
         cy="17"
         r="8"
         style="stroke:#ffffff;stroke-width:1.75"
         id="circle122" /><path
         d="m 49.5,12 v 5 L 54,15"
         style="fill:none;stroke:#ffffff;stroke-width:1.25;stroke-linecap:round;stroke-linejoin:round"
         id="path123" /><!-- Person --><circle
         cx="25"
         cy="14"
         r="6"
         style="fill:#ffffff;stroke:none"
         id="circle123" /><path
         d="m 42,63 a 3,3 0 0 0 6,0 V 43.5 A 4.5,4.5 0 0 0 43.5,39 H 33.875 L 31,25 a 5.5,5.5 0 0 0 -10.75,2.25 l 3.375,16.5 A 5.5,5.5 0 0 0 29,48 h 13 z"
         style="fill:#ffffff;stroke:none"
         id="path124" /><!-- Bench --><path
         d="m 17.25,30.5 3,14.5 c 1,3.5 4,6.5 7.5,6.5 h 9.5"
         style="fill:none;stroke:#ffffff;stroke-width:5;stroke-linecap:round"
         id="path125" /></symbol><symbol
       id="AigaSymbols.svg:Nursery_Inv"><title
         id="title86">Nursery</title><rect
         x="0.5"
         y="0.5"
         width="71"
         height="71"
         ry="6"
         style="stroke:#ffffff"
         id="rect86-6" /><g
         style="fill:#ffffff;stroke:none"
         id="g87-3"><circle
           cx="36"
           cy="15.75"
           r="7.5"
           id="circle87" /><path
           d="M 28,39.5 V 34 l -6,6 a 2.475,2.475 0 0 1 -3.5,-3.5 l 10,-10 c 1,-1 1.5,-1.5 3,-1.5 h 9 c 1.5,0 2,0.5 3,1.5 l 10,10 A 2.475,2.475 0 0 1 50,40 l -6,-6 v 5.5 z"
           id="path87-9" /><path
           id="leg2"
           d="M 34,48.5 29.5,53 34,57.5 A 2.475,2.475 0 0 1 30.5,61 L 23,53.5 a 4.2,4.2 0 0 1 0,-6 l 5,-5 z" /><use
           xlink:href="#leg2"
           transform="matrix(-1,0,0,1,72,0)"
           id="use87" /></g></symbol></defs><g
     id="layer2"
     transform="translate(-40,-100)"><g
       id="g183"
       style="display:inline"><rect
         style="fill:none;stroke:none;stroke-width:2;stroke-linecap:square;stroke-linejoin:round"
         id="use33"
         width="420"
         height="340"
         x="-185"
         y="-100" /><g
         id="g39"
         style="display:inline"><path
           id="path37"
           style="fill:#ffffff;stroke:none;stroke-width:2;stroke-linecap:square;stroke-linejoin:round"
           d="m -175,-80 v 220 h 35 v 10 h 125 v -30 h 80 v 30 h 125 v -10 h 35 V -80 h -80 v 5 H -95 v -5 z m 80,30 h 240 v 10 h 35 V 60 H 60 V -5 H -10 V 60 H -130 V -40 h 35 z" /><path
           style="fill:#ffffff;stroke:none;stroke-width:2;stroke-linecap:square;stroke-linejoin:round"
           d="m 0,120 h 50 v 55 h 40 l 30,15 h 15 v 35 H 70 V 195 H 55 v 30 H -5 v -30 h -15 l 2e-6,30 H -85 v -35 h 15 l 30,-15 H 0 Z"
           id="path38" /></g><g
         id="g114"><path
           style="fill:none;stroke:#000000;stroke-width:6;stroke-linecap:butt;stroke-linejoin:miter;stroke-dasharray:none"
           d="m -175,-80 h 80 v 5 h 240 v -5 h 80 v 220 h -35 v 10 H 65 v -30 h -80 v 30 h -125 v -10 h -35 z"
           id="path93" /></g><g
         id="g180"><g
           id="g115"
           style="display:inline"><path
             style="fill:none;stroke:#000000;stroke-width:4;stroke-linecap:butt;stroke-linejoin:miter;stroke-dasharray:none"
             d="m -130,-40 h 35 v -10 h 240 v 10 h 35 V 60 H 60 V -5 h -70 v 65 h -120 z"
             id="path94" /><path
             id="path96"
             style="fill:none;stroke:#000000;stroke-width:4;stroke-linecap:butt;stroke-linejoin:miter;stroke-dasharray:none"
             d="m 50,120 v 55 h 40 l 30,15 h 15 m -220,0 h 15 l 30,-15 H 0 v -55" /><path
             id="path102"
             style="fill:none;stroke:#000000;stroke-width:2;stroke-linecap:butt;stroke-linejoin:miter;stroke-dasharray:none"
             d="m 70,225 v -30 m -90,30 v -30 m 75,30 v -30 m -60,30 v -30" /><path
             id="path180"
             style="display:inline;fill:none;stroke:#000000;stroke-width:4;stroke-linecap:butt;stroke-linejoin:miter;stroke-dasharray:none"
             d="m -5,195 h -35 c -10,0 -15,15 -10,30 h 20 v -20 m 110,0 v 20 h 20 c 5,-15 0,-30 -10,-30 H 55" /><circle
             style="display:inline;fill:none;stroke:#000000;stroke-width:2;stroke-linecap:butt;stroke-linejoin:miter;stroke-dasharray:none"
             id="path181"
             cx="-85"
             cy="182.5"
             r="7.5" /><circle
             style="display:inline;fill:none;stroke:#000000;stroke-width:2;stroke-linecap:butt;stroke-linejoin:miter;stroke-dasharray:none"
             id="circle181"
             cx="135"
             cy="182.5"
             r="7.5" /><circle
             style="display:inline;fill:none;stroke:#000000;stroke-width:2;stroke-linecap:butt;stroke-linejoin:miter;stroke-dasharray:none"
             id="circle182"
             cx="92.5"
             cy="225"
             r="7.5" /><circle
             style="display:inline;fill:none;stroke:#000000;stroke-width:2;stroke-linecap:butt;stroke-linejoin:miter;stroke-dasharray:none"
             id="circle183"
             cx="-42.5"
             cy="225"
             r="7.5" /><path
             id="path51"
             style="fill:none;stroke:#000000;stroke-width:2;stroke-linecap:butt;stroke-linejoin:miter;stroke-dasharray:none"
             d="m 7.5,133 v -6 m 0,48 v -20" /></g><g
           id="g113"
           style="display:inline"><path
             style="fill:none;stroke:#000000;stroke-width:2;stroke-linecap:butt;stroke-linejoin:miter;stroke-dasharray:none"
             d="M 145,60 V 95"
             id="path105" /><path
             style="fill:none;stroke:#000000;stroke-width:2;stroke-linecap:butt;stroke-linejoin:miter;stroke-dasharray:none"
             d="M -130,60 V 95"
             id="path106" /><path
             style="fill:none;stroke:#000000;stroke-width:2;stroke-linecap:butt;stroke-linejoin:miter;stroke-dasharray:none"
             d="M -95,60 V 94.999988"
             id="path112" /><path
             style="fill:none;stroke:#000000;stroke-width:2;stroke-linecap:butt;stroke-linejoin:miter;stroke-dasharray:none"
             d="M 180,60 V 95"
             id="path113" /><path
             style="fill:none;stroke:#000000;stroke-width:2;stroke-linecap:butt;stroke-linejoin:miter;stroke-dasharray:none"
             d="m 10,60 v 40"
             id="path103" /><path
             style="fill:none;stroke:#000000;stroke-width:2;stroke-linecap:butt;stroke-linejoin:miter;stroke-dasharray:none"
             d="M 40,100 V 60"
             id="path104" /><path
             style="fill:none;stroke:#000000;stroke-width:2;stroke-linecap:butt;stroke-linejoin:miter;stroke-dasharray:none"
             d="m 190,140 h -10 v 10"
             id="path174" /><path
             style="fill:none;stroke:#000000;stroke-width:2;stroke-linecap:butt;stroke-linejoin:miter;stroke-dasharray:none"
             d="m -140,140 h 10 v 10"
             id="path175" /><path
             style="fill:none;stroke:#000000;stroke-width:2;stroke-linecap:butt;stroke-linejoin:miter;stroke-dasharray:none"
             d="M -10,60 V 80 H -30"
             id="path176" /><path
             style="fill:none;stroke:#000000;stroke-width:2;stroke-linecap:butt;stroke-linejoin:miter;stroke-dasharray:none"
             d="M -30,60 V 95"
             id="path177" /><path
             style="fill:none;stroke:#000000;stroke-width:2;stroke-linecap:butt;stroke-linejoin:miter;stroke-dasharray:none"
             d="M 80,60 V 95"
             id="path178" /><path
             style="fill:none;stroke:#000000;stroke-width:2;stroke-linecap:butt;stroke-linejoin:miter;stroke-dasharray:none"
             d="M 60,60 V 80 H 80"
             id="path179" /><path
             style="fill:none;stroke:#000000;stroke-width:2;stroke-linecap:butt;stroke-linejoin:miter;stroke-dasharray:none"
             d="M 10,80 H 40"
             id="path183" /></g><g
           id="g139"
           style="display:inline"><rect
             style="fill:none;stroke:#000000;stroke-width:1;stroke-linecap:butt;stroke-linejoin:miter;stroke-dasharray:none"
             id="rect115"
             width="115"
             height="55"
             x="64.999992"
             y="95.000015" /><rect
             style="fill:none;stroke:#000000;stroke-width:1;stroke-linecap:butt;stroke-linejoin:miter;stroke-dasharray:none"
             id="rect116"
             width="19.99999"
             height="20"
             x="60.000011"
             y="60" /><rect
             style="fill:none;stroke:#000000;stroke-width:1;stroke-linecap:butt;stroke-linejoin:miter;stroke-dasharray:none"
             id="rect117"
             width="65"
             height="35"
             x="79.999985"
             y="60" /><rect
             style="fill:none;stroke:#000000;stroke-width:1;stroke-linecap:butt;stroke-linejoin:miter;stroke-dasharray:none"
             id="rect118"
             width="45"
             height="45"
             x="179.99998"
             y="95.000015" /><rect
             style="fill:none;stroke:#000000;stroke-width:1;stroke-linecap:butt;stroke-linejoin:miter;stroke-dasharray:none"
             id="rect119"
             width="44.999981"
             height="40.000011"
             x="179.99998"
             y="55" /><rect
             style="fill:none;stroke:#000000;stroke-width:1;stroke-linecap:butt;stroke-linejoin:miter;stroke-dasharray:none"
             id="rect120"
             width="45.000019"
             height="45"
             x="179.99998"
             y="10" /><rect
             style="fill:none;stroke:#000000;stroke-width:1;stroke-linecap:butt;stroke-linejoin:miter;stroke-dasharray:none"
             id="rect121"
             width="45.000015"
             height="50"
             x="179.99998"
             y="-39.999996" /><rect
             style="fill:none;stroke:#000000;stroke-width:1;stroke-linecap:butt;stroke-linejoin:miter;stroke-dasharray:none"
             id="rect122"
             width="45"
             height="40"
             x="179.99998"
             y="-80" /><rect
             style="fill:none;stroke:#000000;stroke-width:1;stroke-linecap:butt;stroke-linejoin:miter;stroke-dasharray:none"
             id="rect123"
             width="17.5"
             height="17.5"
             x="162.5"
             y="-80" /><rect
             style="fill:none;stroke:#000000;stroke-width:1;stroke-linecap:butt;stroke-linejoin:miter;stroke-dasharray:none"
             id="rect124"
             width="17.5"
             height="17.5"
             x="145"
             y="-80" /><rect
             style="fill:none;stroke:#000000;stroke-width:1;stroke-linecap:butt;stroke-linejoin:miter;stroke-dasharray:none"
             id="rect125"
             width="90"
             height="25"
             x="54.999992"
             y="-75" /><rect
             style="fill:none;stroke:#000000;stroke-width:1;stroke-linecap:butt;stroke-linejoin:miter;stroke-dasharray:none"
             id="rect126"
             width="60"
             height="25"
             x="-4.9999948"
             y="-75" /><rect
             style="fill:none;stroke:#000000;stroke-width:1;stroke-linecap:butt;stroke-linejoin:miter;stroke-dasharray:none"
             id="rect129"
             width="90"
             height="25"
             x="-95"
             y="-75" /><rect
             style="fill:none;stroke:#000000;stroke-width:1;stroke-linecap:butt;stroke-linejoin:miter;stroke-dasharray:none"
             id="rect130"
             width="17.5"
             height="17.5"
             x="-112.50001"
             y="-80" /><rect
             style="fill:none;stroke:#000000;stroke-width:1;stroke-linecap:butt;stroke-linejoin:miter;stroke-dasharray:none"
             id="rect131"
             width="17.5"
             height="17.5"
             x="-130"
             y="-80" /><rect
             style="fill:none;stroke:#000000;stroke-width:1;stroke-linecap:butt;stroke-linejoin:miter;stroke-dasharray:none"
             id="rect132"
             width="45"
             height="40"
             x="-175"
             y="-80" /><rect
             style="fill:none;stroke:#000000;stroke-width:1;stroke-linecap:butt;stroke-linejoin:miter;stroke-dasharray:none"
             id="rect133"
             width="45"
             height="135"
             x="-175"
             y="-40" /><rect
             style="fill:none;stroke:#000000;stroke-width:1;stroke-linecap:butt;stroke-linejoin:miter;stroke-dasharray:none"
             id="rect134"
             width="45"
             height="45"
             x="-175"
             y="95.000015" /><rect
             style="fill:none;stroke:#000000;stroke-width:1;stroke-linecap:butt;stroke-linejoin:miter;stroke-dasharray:none"
             id="rect135"
             width="115"
             height="55"
             x="-130"
             y="95.000015" /><rect
             style="fill:none;stroke:#000000;stroke-width:1;stroke-linecap:butt;stroke-linejoin:miter;stroke-dasharray:none"
             id="rect136"
             width="35"
             height="35"
             x="-130"
             y="60" /><rect
             style="fill:none;stroke:#000000;stroke-width:1;stroke-linecap:butt;stroke-linejoin:miter;stroke-dasharray:none"
             id="rect137"
             width="65"
             height="35"
             x="-95"
             y="60" /><rect
             style="fill:none;stroke:#000000;stroke-width:1;stroke-linecap:butt;stroke-linejoin:miter;stroke-dasharray:none"
             id="rect138"
             width="20"
             height="20"
             x="-30"
             y="60" /><rect
             style="fill:none;stroke:#000000;stroke-width:1;stroke-linecap:butt;stroke-linejoin:miter;stroke-dasharray:none"
             id="rect139"
             width="70"
             height="50"
             x="-10"
             y="-4" /><rect
             style="fill:none;stroke:#000000;stroke-width:1;stroke-linecap:butt;stroke-linejoin:miter;stroke-dasharray:none"
             id="rect165"
             width="15"
             height="14.999994"
             x="-120"
             y="70" /><rect
             style="fill:none;stroke:#000000;stroke-width:1;stroke-linecap:butt;stroke-linejoin:miter;stroke-dasharray:none"
             id="rect166"
             width="35.000015"
             height="34.999996"
             x="145"
             y="60" /><rect
             style="fill:none;stroke:#000000;stroke-width:1;stroke-linecap:butt;stroke-linejoin:miter;stroke-dasharray:none"
             id="rect167"
             width="15.000018"
             height="14.999994"
             x="155"
             y="70" /><rect
             style="fill:none;stroke:#000000;stroke-width:1;stroke-linecap:butt;stroke-linejoin:miter;stroke-dasharray:none"
             id="rect173"
             width="40"
             height="25"
             x="4.9999924"
             y="-75" /></g></g><g
         id="g160"
         style="display:inline"><path
           style="fill:none;stroke:#ffffff;stroke-width:5;stroke-linecap:butt;stroke-linejoin:miter;stroke-dasharray:none"
           d="m 25,155 2e-6,-45 h 25 L 50,90 h 140"
           id="path139" /><path
           style="fill:none;stroke:#ffffff;stroke-width:5;stroke-linecap:butt;stroke-linejoin:miter;stroke-dasharray:none"
           d="M 50,105 H 70"
           id="path140" /><path
           style="fill:none;stroke:#ffffff;stroke-width:5;stroke-linecap:butt;stroke-linejoin:miter;stroke-dasharray:none"
           d="m 155,90 v 10"
           id="path141" /><path
           style="fill:none;stroke:#ffffff;stroke-width:5;stroke-linecap:butt;stroke-linejoin:miter;stroke-dasharray:none"
           d="M 190,60 V 50"
           id="path142" /><path
           style="fill:none;stroke:#ffffff;stroke-width:5;stroke-linecap:butt;stroke-linejoin:miter;stroke-dasharray:none"
           d="M 215,60 V 50"
           id="path143" /><path
           style="fill:none;stroke:#ffffff;stroke-width:5;stroke-linecap:butt;stroke-linejoin:miter;stroke-dasharray:none"
           d="M 190,15 V 5"
           id="path144" /><path
           style="fill:none;stroke:#ffffff;stroke-width:5;stroke-linecap:butt;stroke-linejoin:miter;stroke-dasharray:none"
           d="M 215,15 V 5"
           id="path145" /><rect
           style="fill:none;stroke:#ffffff;stroke-width:5;stroke-linecap:butt;stroke-linejoin:miter;stroke-dasharray:none"
           id="rect145"
           width="5"
           height="10"
           x="200"
           y="-45" /><path
           style="fill:none;stroke:#ffffff;stroke-width:5;stroke-linecap:butt;stroke-linejoin:miter;stroke-dasharray:none"
           d="M 185,-45 H 175"
           id="path146" /><rect
           style="fill:none;stroke:#ffffff;stroke-width:5;stroke-linecap:butt;stroke-linejoin:miter;stroke-dasharray:none"
           id="rect146"
           width="5"
           height="5"
           x="170"
           y="-65" /><rect
           style="fill:none;stroke:#ffffff;stroke-width:5;stroke-linecap:butt;stroke-linejoin:miter;stroke-dasharray:none"
           id="rect147"
           width="5"
           height="5"
           x="150"
           y="-65" /><path
           style="fill:none;stroke:#ffffff;stroke-width:5;stroke-linecap:butt;stroke-linejoin:miter;stroke-dasharray:none"
           d="M 150,-55 H 140"
           id="path147" /><path
           style="fill:none;stroke:#ffffff;stroke-width:5;stroke-linecap:butt;stroke-linejoin:miter;stroke-dasharray:none"
           d="M 60,-65 H 50"
           id="path148" /><path
           style="fill:none;stroke:#ffffff;stroke-width:5;stroke-linecap:butt;stroke-linejoin:miter;stroke-dasharray:none"
           d="M 50,-55 H 40"
           id="path149" /><path
           style="fill:none;stroke:#ffffff;stroke-width:5;stroke-linecap:butt;stroke-linejoin:miter;stroke-dasharray:none"
           d="M 10,-55 H 0"
           id="path150" /><path
           style="fill:none;stroke:#ffffff;stroke-width:5;stroke-linecap:butt;stroke-linejoin:miter;stroke-dasharray:none"
           d="M 0,-65 H -10"
           id="path151" /><path
           style="fill:none;stroke:#ffffff;stroke-width:5;stroke-linecap:butt;stroke-linejoin:miter;stroke-dasharray:none"
           d="m -90,-55 h -10"
           id="path152" /><path
           style="fill:none;stroke:#ffffff;stroke-width:5;stroke-linecap:butt;stroke-linejoin:miter;stroke-dasharray:none"
           d="m -105,-60 v -5"
           id="path153" /><path
           style="fill:none;stroke:#ffffff;stroke-width:5;stroke-linecap:butt;stroke-linejoin:miter;stroke-dasharray:none"
           d="m -125,-60 v -5"
           id="path154" /><path
           style="fill:none;stroke:#ffffff;stroke-width:5;stroke-linecap:butt;stroke-linejoin:miter;stroke-dasharray:none"
           d="m -125,-45 h -10"
           id="path155" /><rect
           style="fill:none;stroke:#ffffff;stroke-width:5;stroke-linecap:butt;stroke-linejoin:miter;stroke-dasharray:none"
           id="rect155"
           width="5"
           height="10"
           x="-150"
           y="-45" /><rect
           style="fill:none;stroke:#ffffff;stroke-width:5;stroke-linecap:butt;stroke-linejoin:miter;stroke-dasharray:none"
           id="rect156"
           width="5"
           height="10"
           x="-145"
           y="90" /><rect
           style="fill:none;stroke:#ffffff;stroke-width:5;stroke-linecap:butt;stroke-linejoin:miter;stroke-dasharray:none"
           id="rect157"
           width="10"
           height="5"
           x="-135"
           y="105" /><rect
           style="fill:none;stroke:#ffffff;stroke-width:5;stroke-linecap:butt;stroke-linejoin:miter;stroke-dasharray:none"
           id="rect158"
           width="5"
           height="10"
           x="-110"
           y="90" /><path
           style="fill:none;stroke:#ffffff;stroke-width:5;stroke-linecap:butt;stroke-linejoin:miter;stroke-dasharray:none"
           d="m -20,110 h 10"
           id="path158" /><path
           style="fill:none;stroke:#ffffff;stroke-width:5;stroke-linecap:butt;stroke-linejoin:miter;stroke-dasharray:none"
           d="M -20,85 V 75"
           id="path159" /><rect
           style="fill:none;stroke:#ffffff;stroke-width:5;stroke-linecap:butt;stroke-linejoin:miter;stroke-dasharray:none"
           id="rect159"
           width="10"
           height="5"
           x="175"
           y="105" /><rect
           style="fill:none;stroke:#ffffff;stroke-width:5;stroke-linecap:butt;stroke-linejoin:miter;stroke-dasharray:none"
           id="rect160"
           width="5"
           height="10"
           x="185"
           y="90" /><path
           style="fill:none;stroke:#ffffff;stroke-width:5;stroke-linecap:butt;stroke-linejoin:miter;stroke-dasharray:none"
           d="M 10,125 V 115"
           id="path52" /><path
           style="fill:none;stroke:#ffffff;stroke-width:5;stroke-linecap:butt;stroke-linejoin:miter;stroke-dasharray:none"
           d="M 40,125 V 115"
           id="path53" /></g><g
         id="g167"
         style="display:inline"><path
           style="fill:none;stroke:#000000;stroke-width:0.1;stroke-linecap:butt;stroke-linejoin:miter;stroke-dasharray:none"
           d="M -5,224 H 55 M -5,223 H 55 M -5,222 H 55 M -5,221 H 55 M -5,220 H 55 M -5,219 H 55 M -5,218 H 55 M -5,217 H 55 M -5,216 H 55 M -5,215 H 55 M -5,214 H 55 M -5,213 H 55 M -5,212 H 55 M -5,211 H 55 M -5,210 H 55"
           id="path161" /><path
           id="path163"
           style="fill:none;stroke:#000000;stroke-width:0.1;stroke-linecap:butt;stroke-linejoin:miter;stroke-dasharray:none"
           d="m 70,224 h 10 m -10,-1 h 10 m -10,-1 h 10 m -10,-1 h 10 m -10,-1 h 10 m -10,-1 h 10 m -10,-1 h 10 m -10,-1 h 10 m -10,-1 h 10 m -10,-1 h 10 m -10,-1 h 10 m -10,-1 h 10 m -10,-1 h 10 m -10,-1 h 10 m -10,-1 h 10 m -100,14 h -10 m 10,-1 h -10 m 10,-1 h -10 m 10,-1 h -10 m 10,-1 h -10 m 10,-1 h -10 m 10,-1 h -10 m 10,-1 h -10 m 10,-1 h -10 m 10,-1 h -10 m 10,-1 h -10 m 10,-1 h -10 m 10,-1 h -10 m 10,-1 h -10 m 10,-1 h -10 m 10,-1 h -10" /><path
           style="fill:none;stroke:#000000;stroke-width:0.1;stroke-linecap:butt;stroke-linejoin:miter;stroke-dasharray:none"
           d="M 7.5,165 H 50 M 7.5,164 H 50 M 7.5,163 H 50 M 7.5,162 H 50 M 7.5,161 H 50 M 7.5,160 H 50 M 7.5,159 H 50 M 7.5,158 H 50 M 7.5,157 H 50 M 7.5,156 H 50"
           id="path164" /><path
           style="fill:none;stroke:#000000;stroke-width:0.1;stroke-linecap:butt;stroke-linejoin:miter;stroke-dasharray:none"
           d="M 7.5,132 H 50 M 7.5,131 H 50 M 7.5,130 H 50 M 7.5,129 H 50 M 7.5,128 H 50"
           id="path167" /><path
           style="fill:none;stroke:#000000;stroke-width:0.1;stroke-linecap:butt;stroke-linejoin:miter;stroke-dasharray:none"
           d="M 10,99 H 40 M 10,98 H 40 M 10,97 H 40 M 10,96 H 40 M 10,95 H 40 M 10,94 H 40 M 10,93 H 40 M 10,92 H 40 M 10,91 H 40 M 10,90 H 40 M 10,89 H 40 M 10,88 H 40 M 10,87 H 40 M 10,86 H 40 M 10,85 h 30"
           id="path168" /><path
           style="fill:none;stroke:#000000;stroke-width:0.1;stroke-linecap:butt;stroke-linejoin:miter;stroke-dasharray:none"
           d="M 40,61 H 10 m 30,1 H 10 m 30,1 H 10 m 30,1 H 10 m 30,1 H 10 m 30,1 H 10 m 30,1 H 10 m 30,1 H 10 m 30,1 H 10 m 30,1 H 10 m 30,1 H 10 m 30,1 H 10 m 30,1 H 10 m 30,1 H 10 m 30,1 H 10"
           id="path169" /><path
           style="fill:none;stroke:#000000;stroke-width:0.1;stroke-linecap:butt;stroke-linejoin:miter;stroke-dasharray:none"
           d="m 145,82 h 10 m -10,-1 h 10 m -10,-1 h 10 m -10,-1 h 10 m -10,-1 h 10 m -10,-1 h 10 m -10,-1 h 10 m -10,-1 h 10 m -10,-1 h 10 m -10,-1 h 10"
           id="path170" /><path
           style="fill:none;stroke:#000000;stroke-width:0.1;stroke-linecap:butt;stroke-linejoin:miter;stroke-dasharray:none"
           d="M 158,70 V 60 m 1,10 V 60 m 1,10 V 60 m 1,10 V 60 m 1,10 V 60 m 1,10 V 60 m 1,10 V 60 m 1,10 V 60 m 1,10 V 60 m 1,10 V 60"
           id="path171" /><path
           style="fill:none;stroke:#000000;stroke-width:0.1;stroke-linecap:butt;stroke-linejoin:miter;stroke-dasharray:none"
           d="m -105,82 h 10 m -10,-1 h 10 m -10,-1 h 10 m -10,-1 h 10 m -10,-1 h 10 m -10,-1 h 10 m -10,-1 h 10 m -10,-1 h 10 m -10,-1 h 10 m -10,-1 h 10"
           id="path172" /><path
           style="fill:none;stroke:#000000;stroke-width:0.1;stroke-linecap:butt;stroke-linejoin:miter;stroke-dasharray:none"
           d="M -108,70 V 60 m -1,10 V 60 m -1,10 V 60 m -1,10 V 60 m -1,10 V 60 m -1,10 V 60 m -1,10 V 60 m -1,10 V 60 m -1,10 V 60 m -1,10 V 60"
           id="path173" /></g><g
         id="g179"><use
           xlink:href="#AigaSymbols.svg:Information_Inv"
           style="fill:#000000;stroke:#000000"
           id="use1-7"
           transform="matrix(0.0833332,0,0,0.0833332,-8,67.5)" /><use
           xlink:href="#AigaSymbols.svg:BaggageLockers_Inv"
           style="fill:#000000;stroke:#000000"
           id="use1-1"
           transform="matrix(0.0833332,0,0,0.0833332,26,49.5)" /><use
           xlink:href="#AigaSymbols.svg:Shops_Inv"
           style="fill:#000000;stroke:#000000"
           id="use1-9"
           transform="matrix(0.0833332,0,0,0.0833332,-44.2179,119.014)" /><use
           xlink:href="#AigaSymbols.svg:Elevator_Inv"
           style="fill:#000000;stroke:#000000"
           id="use1-45"
           transform="matrix(0.0833332,0,0,0.0833332,-23,67)" /><use
           xlink:href="#AigaSymbols.svg:WheelChairInv"
           style="fill:#000000;stroke:#000000"
           id="use1-61"
           transform="matrix(0.0833332,0,0,0.0833332,-124.056,-73)" /><use
           xlink:href="#AigaSymbols.svg:ToiletsMen_Inv"
           style="fill:#000000;stroke:#000000"
           id="use1-37"
           transform="matrix(0.0833332,0,0,0.0833332,-110,-73)" /><use
           xlink:href="#AigaSymbols.svg:DrinkingFountain_Inv"
           style="fill:#000000;stroke:#000000"
           id="use1-44"
           transform="matrix(0.0833332,0,0,0.0833332,26,-65.5)" /><use
           xlink:href="#AigaSymbols.svg:WaitingRoom_Inv"
           style="fill:#000000;stroke:#000000"
           id="use1-68"
           transform="matrix(0.0833332,0,0,0.0833332,18,-65.5)" /><use
           xlink:href="#AigaSymbols.svg:ToiletsWomen_Inv"
           style="fill:#000000;stroke:#000000"
           id="use1-689"
           transform="matrix(0.0833332,0,0,0.0833332,146,-73)" /><use
           xlink:href="#AigaSymbols.svg:WheelChairInv"
           style="fill:#000000;stroke:#000000"
           id="use1-71"
           transform="matrix(0.0833332,0,0,0.0833332,168.056,-73)" /><use
           xlink:href="#AigaSymbols.svg:FirstAid_Inv"
           style="fill:#000000;stroke:#000000"
           id="use1-10"
           transform="matrix(0.0833332,0,0,0.0833332,-6.94444,113.056)" /><use
           xlink:href="#AigaSymbols.svg:StairsUp_Inv"
           style="display:inline;fill:#000000;stroke:#000000"
           id="use1-77"
           transform="matrix(0.0833332,0,0,0.0833332,27,92)" /><use
           xlink:href="#AigaSymbols.svg:StairsDown_Inv"
           style="display:inline;fill:#000000;stroke:#000000"
           id="use1-73"
           transform="matrix(0.0833332,0,0,0.0833332,17,62)" /><use
           xlink:href="#AigaSymbols.svg:Nursery_Inv"
           style="display:inline;fill:#000000;stroke:#000000"
           id="use1-8"
           transform="matrix(0.0833332,0,0,0.0833332,154,-73)" /><use
           xlink:href="#AigaSymbols.svg:Nursery_Inv"
           style="display:inline;fill:#000000;stroke:#000000"
           id="use180"
           transform="matrix(0.0833332,0,0,0.0833332,-102,-73)" /></g></g></g></svg>
